<mxfile host="app.diagrams.net" modified="2023-11-04T00:59:43.905Z" agent="Mozilla/5.0 (Macintosh; Intel Mac OS X 10_15_7) AppleWebKit/605.1.15 (KHTML, like Gecko) Version/15.4 Safari/605.1.15" etag="lYwShptpejlbrgfEMP9o" version="22.0.8" type="device">
  <diagram name="Страница — 1" id="F--uWlHV8y8XYN30pYrF">
    <mxGraphModel dx="999" dy="692" grid="1" gridSize="10" guides="1" tooltips="1" connect="1" arrows="1" fold="1" page="1" pageScale="1" pageWidth="3300" pageHeight="8200" math="0" shadow="0">
      <root>
        <mxCell id="0" />
        <mxCell id="1" parent="0" />
        <mxCell id="4PH2qwDJ6IYh9CamzKsP-1" value="Editor&lt;br&gt;" style="shape=umlActor;verticalLabelPosition=bottom;verticalAlign=top;html=1;labelBackgroundColor=none;fillColor=#A8DADC;strokeColor=#457B9D;fontColor=#1D3557;" vertex="1" parent="1">
          <mxGeometry x="105" y="80" width="30" height="60" as="geometry" />
        </mxCell>
        <mxCell id="4PH2qwDJ6IYh9CamzKsP-3" value="UI" style="shape=umlBoundary;whiteSpace=wrap;html=1;strokeColor=#457B9D;fontColor=#1D3557;fillColor=#A8DADC;" vertex="1" parent="1">
          <mxGeometry x="360" y="80" width="70" height="60" as="geometry" />
        </mxCell>
        <mxCell id="4PH2qwDJ6IYh9CamzKsP-4" value="User Based&lt;br&gt;Back" style="ellipse;shape=umlControl;whiteSpace=wrap;html=1;strokeColor=#457B9D;fontColor=#1D3557;fillColor=#A8DADC;" vertex="1" parent="1">
          <mxGeometry x="650" y="70" width="60" height="70" as="geometry" />
        </mxCell>
        <mxCell id="4PH2qwDJ6IYh9CamzKsP-5" value="Logins&amp;nbsp;&lt;br&gt;DB" style="ellipse;shape=umlEntity;whiteSpace=wrap;html=1;strokeColor=#457B9D;fontColor=#1D3557;fillColor=#A8DADC;" vertex="1" parent="1">
          <mxGeometry x="930" y="80" width="60" height="60" as="geometry" />
        </mxCell>
        <mxCell id="4PH2qwDJ6IYh9CamzKsP-6" value="Depart-ments DB" style="ellipse;shape=umlEntity;whiteSpace=wrap;html=1;strokeColor=#457B9D;fontColor=#1D3557;fillColor=#A8DADC;" vertex="1" parent="1">
          <mxGeometry x="1210" y="80" width="60" height="60" as="geometry" />
        </mxCell>
        <mxCell id="4PH2qwDJ6IYh9CamzKsP-7" value="Global DB" style="ellipse;shape=umlEntity;whiteSpace=wrap;html=1;strokeColor=#457B9D;fontColor=#1D3557;fillColor=#A8DADC;" vertex="1" parent="1">
          <mxGeometry x="1770" y="80" width="60" height="60" as="geometry" />
        </mxCell>
        <mxCell id="4PH2qwDJ6IYh9CamzKsP-9" value="Departments Editing&lt;br&gt;Transaction" style="ellipse;shape=umlControl;whiteSpace=wrap;html=1;strokeColor=#457B9D;fontColor=#1D3557;fillColor=#A8DADC;" vertex="1" parent="1">
          <mxGeometry x="1480" y="55" width="80" height="100" as="geometry" />
        </mxCell>
        <mxCell id="4PH2qwDJ6IYh9CamzKsP-10" value="Global DB&lt;br&gt;Editing&lt;br&gt;Transaction" style="ellipse;shape=umlControl;whiteSpace=wrap;html=1;strokeColor=#457B9D;fontColor=#1D3557;fillColor=#A8DADC;" vertex="1" parent="1">
          <mxGeometry x="2040" y="55" width="80" height="100" as="geometry" />
        </mxCell>
        <mxCell id="4PH2qwDJ6IYh9CamzKsP-11" value="Kafka" style="ellipse;shape=umlEntity;whiteSpace=wrap;html=1;strokeColor=#457B9D;fontColor=#1D3557;fillColor=#A8DADC;" vertex="1" parent="1">
          <mxGeometry x="2330" y="80" width="60" height="60" as="geometry" />
        </mxCell>
        <mxCell id="4PH2qwDJ6IYh9CamzKsP-12" value="" style="endArrow=none;dashed=1;html=1;dashPattern=1 3;strokeWidth=2;rounded=0;strokeColor=#457B9D;fontColor=#1D3557;fillColor=#A8DADC;entryX=0.5;entryY=0.5;entryDx=0;entryDy=0;entryPerimeter=0;" edge="1" parent="1" source="4PH2qwDJ6IYh9CamzKsP-196" target="4PH2qwDJ6IYh9CamzKsP-1">
          <mxGeometry width="50" height="50" relative="1" as="geometry">
            <mxPoint x="120" y="7040" as="sourcePoint" />
            <mxPoint x="170" y="280" as="targetPoint" />
          </mxGeometry>
        </mxCell>
        <mxCell id="4PH2qwDJ6IYh9CamzKsP-13" value="" style="endArrow=none;dashed=1;html=1;dashPattern=1 3;strokeWidth=2;rounded=0;strokeColor=#457B9D;fontColor=#1D3557;fillColor=#A8DADC;entryX=0.571;entryY=1.033;entryDx=0;entryDy=0;entryPerimeter=0;" edge="1" parent="1" source="4PH2qwDJ6IYh9CamzKsP-186" target="4PH2qwDJ6IYh9CamzKsP-3">
          <mxGeometry width="50" height="50" relative="1" as="geometry">
            <mxPoint x="400" y="7041" as="sourcePoint" />
            <mxPoint x="400" y="160" as="targetPoint" />
          </mxGeometry>
        </mxCell>
        <mxCell id="4PH2qwDJ6IYh9CamzKsP-14" value="" style="endArrow=none;dashed=1;html=1;dashPattern=1 3;strokeWidth=2;rounded=0;strokeColor=#457B9D;fontColor=#1D3557;fillColor=#A8DADC;entryX=0.483;entryY=1.029;entryDx=0;entryDy=0;entryPerimeter=0;" edge="1" parent="1" source="4PH2qwDJ6IYh9CamzKsP-188" target="4PH2qwDJ6IYh9CamzKsP-4">
          <mxGeometry width="50" height="50" relative="1" as="geometry">
            <mxPoint x="679" y="7040" as="sourcePoint" />
            <mxPoint x="680" y="180" as="targetPoint" />
          </mxGeometry>
        </mxCell>
        <mxCell id="4PH2qwDJ6IYh9CamzKsP-15" value="" style="endArrow=none;dashed=1;html=1;dashPattern=1 3;strokeWidth=2;rounded=0;strokeColor=#457B9D;fontColor=#1D3557;fillColor=#A8DADC;entryX=0.5;entryY=1;entryDx=0;entryDy=0;" edge="1" parent="1" source="4PH2qwDJ6IYh9CamzKsP-190" target="4PH2qwDJ6IYh9CamzKsP-5">
          <mxGeometry width="50" height="50" relative="1" as="geometry">
            <mxPoint x="960" y="7041" as="sourcePoint" />
            <mxPoint x="960" y="170" as="targetPoint" />
          </mxGeometry>
        </mxCell>
        <mxCell id="4PH2qwDJ6IYh9CamzKsP-16" value="" style="endArrow=none;dashed=1;html=1;dashPattern=1 3;strokeWidth=2;rounded=0;strokeColor=#457B9D;fontColor=#1D3557;fillColor=#A8DADC;entryX=0.5;entryY=1;entryDx=0;entryDy=0;" edge="1" parent="1" source="4PH2qwDJ6IYh9CamzKsP-236" target="4PH2qwDJ6IYh9CamzKsP-6">
          <mxGeometry width="50" height="50" relative="1" as="geometry">
            <mxPoint x="1240" y="7040" as="sourcePoint" />
            <mxPoint x="1240" y="170" as="targetPoint" />
          </mxGeometry>
        </mxCell>
        <mxCell id="4PH2qwDJ6IYh9CamzKsP-17" value="" style="endArrow=none;dashed=1;html=1;dashPattern=1 3;strokeWidth=2;rounded=0;strokeColor=#457B9D;fontColor=#1D3557;fillColor=#A8DADC;entryX=0.488;entryY=0.99;entryDx=0;entryDy=0;entryPerimeter=0;" edge="1" parent="1" source="4PH2qwDJ6IYh9CamzKsP-305" target="4PH2qwDJ6IYh9CamzKsP-9">
          <mxGeometry width="50" height="50" relative="1" as="geometry">
            <mxPoint x="1519" y="7040" as="sourcePoint" />
            <mxPoint x="1520" y="180" as="targetPoint" />
          </mxGeometry>
        </mxCell>
        <mxCell id="4PH2qwDJ6IYh9CamzKsP-18" value="" style="endArrow=none;dashed=1;html=1;dashPattern=1 3;strokeWidth=2;rounded=0;strokeColor=#457B9D;fontColor=#1D3557;fillColor=#A8DADC;entryX=0.5;entryY=1;entryDx=0;entryDy=0;" edge="1" parent="1" source="4PH2qwDJ6IYh9CamzKsP-224" target="4PH2qwDJ6IYh9CamzKsP-7">
          <mxGeometry width="50" height="50" relative="1" as="geometry">
            <mxPoint x="1800" y="7041" as="sourcePoint" />
            <mxPoint x="1800" y="160" as="targetPoint" />
          </mxGeometry>
        </mxCell>
        <mxCell id="4PH2qwDJ6IYh9CamzKsP-19" value="" style="endArrow=none;dashed=1;html=1;dashPattern=1 3;strokeWidth=2;rounded=0;strokeColor=#457B9D;fontColor=#1D3557;fillColor=#A8DADC;entryX=0.494;entryY=1.05;entryDx=0;entryDy=0;entryPerimeter=0;" edge="1" parent="1" source="4PH2qwDJ6IYh9CamzKsP-350" target="4PH2qwDJ6IYh9CamzKsP-10">
          <mxGeometry width="50" height="50" relative="1" as="geometry">
            <mxPoint x="2080" y="7041" as="sourcePoint" />
            <mxPoint x="2079.5" y="170" as="targetPoint" />
          </mxGeometry>
        </mxCell>
        <mxCell id="4PH2qwDJ6IYh9CamzKsP-20" value="" style="endArrow=none;dashed=1;html=1;dashPattern=1 3;strokeWidth=2;rounded=0;strokeColor=#457B9D;fontColor=#1D3557;fillColor=#A8DADC;entryX=0.5;entryY=1;entryDx=0;entryDy=0;" edge="1" parent="1" source="4PH2qwDJ6IYh9CamzKsP-346" target="4PH2qwDJ6IYh9CamzKsP-11">
          <mxGeometry width="50" height="50" relative="1" as="geometry">
            <mxPoint x="2360" y="7042" as="sourcePoint" />
            <mxPoint x="2360" y="155" as="targetPoint" />
          </mxGeometry>
        </mxCell>
        <mxCell id="4PH2qwDJ6IYh9CamzKsP-23" value="&#39;Edit Limits&#39; Button Pressed" style="html=1;verticalAlign=bottom;endArrow=block;curved=0;rounded=0;strokeColor=#457B9D;fontColor=#1D3557;fillColor=#A8DADC;" edge="1" parent="1" source="4PH2qwDJ6IYh9CamzKsP-184">
          <mxGeometry width="80" relative="1" as="geometry">
            <mxPoint x="120" y="200" as="sourcePoint" />
            <mxPoint x="400" y="200" as="targetPoint" />
          </mxGeometry>
        </mxCell>
        <mxCell id="4PH2qwDJ6IYh9CamzKsP-25" value="Send Request for &#39;Department&#39; List" style="html=1;verticalAlign=bottom;endArrow=block;curved=0;rounded=0;strokeColor=#457B9D;fontColor=#1D3557;fillColor=#A8DADC;" edge="1" parent="1">
          <mxGeometry width="80" relative="1" as="geometry">
            <mxPoint x="400" y="240" as="sourcePoint" />
            <mxPoint x="680" y="240" as="targetPoint" />
          </mxGeometry>
        </mxCell>
        <mxCell id="4PH2qwDJ6IYh9CamzKsP-26" value="Get &#39;Department&#39; List for Current User" style="html=1;verticalAlign=bottom;endArrow=block;curved=0;rounded=0;strokeColor=#457B9D;fontColor=#1D3557;fillColor=#A8DADC;" edge="1" parent="1">
          <mxGeometry width="80" relative="1" as="geometry">
            <mxPoint x="680" y="280" as="sourcePoint" />
            <mxPoint x="960" y="280" as="targetPoint" />
          </mxGeometry>
        </mxCell>
        <mxCell id="4PH2qwDJ6IYh9CamzKsP-28" value="Send &#39;Department&#39; List for Current User" style="html=1;verticalAlign=bottom;endArrow=block;curved=0;rounded=0;strokeColor=#457B9D;fontColor=#1D3557;fillColor=#A8DADC;" edge="1" parent="1">
          <mxGeometry width="80" relative="1" as="geometry">
            <mxPoint x="960" y="440" as="sourcePoint" />
            <mxPoint x="680" y="440" as="targetPoint" />
          </mxGeometry>
        </mxCell>
        <mxCell id="4PH2qwDJ6IYh9CamzKsP-30" value="Send &#39;Department&#39; List for Current User" style="html=1;verticalAlign=bottom;endArrow=block;curved=0;rounded=0;strokeColor=#457B9D;fontColor=#1D3557;fillColor=#A8DADC;" edge="1" parent="1">
          <mxGeometry width="80" relative="1" as="geometry">
            <mxPoint x="680" y="480" as="sourcePoint" />
            <mxPoint x="400" y="480" as="targetPoint" />
          </mxGeometry>
        </mxCell>
        <mxCell id="4PH2qwDJ6IYh9CamzKsP-31" value="Show &#39;Department&#39; List with added &lt;br&gt;&#39;Global Positions List&#39;&amp;nbsp;and &#39;Average Limits List&#39;&lt;br&gt;options" style="html=1;verticalAlign=bottom;endArrow=block;curved=0;rounded=0;strokeColor=#457B9D;fontColor=#1D3557;fillColor=#A8DADC;" edge="1" parent="1">
          <mxGeometry width="80" relative="1" as="geometry">
            <mxPoint x="400" y="520" as="sourcePoint" />
            <mxPoint x="120" y="520" as="targetPoint" />
          </mxGeometry>
        </mxCell>
        <mxCell id="4PH2qwDJ6IYh9CamzKsP-32" value="One of Original &#39;Department&#39; List Items Selected&amp;nbsp;" style="html=1;verticalAlign=bottom;endArrow=block;curved=0;rounded=0;strokeColor=#457B9D;fontColor=#1D3557;fillColor=#A8DADC;" edge="1" parent="1">
          <mxGeometry width="80" relative="1" as="geometry">
            <mxPoint x="120" y="680" as="sourcePoint" />
            <mxPoint x="400" y="680" as="targetPoint" />
          </mxGeometry>
        </mxCell>
        <mxCell id="4PH2qwDJ6IYh9CamzKsP-34" value="Send Request For &#39;Positions&#39; used in&lt;br&gt;selected &#39;Department&#39;" style="html=1;verticalAlign=bottom;endArrow=block;curved=0;rounded=0;strokeColor=#457B9D;fontColor=#1D3557;fillColor=#A8DADC;" edge="1" parent="1">
          <mxGeometry width="80" relative="1" as="geometry">
            <mxPoint x="400" y="720" as="sourcePoint" />
            <mxPoint x="680" y="720" as="targetPoint" />
          </mxGeometry>
        </mxCell>
        <mxCell id="4PH2qwDJ6IYh9CamzKsP-35" value="Get &#39;Positions&#39; that has been&lt;br&gt;used in selected &#39;Department&#39;&lt;br&gt;with its &#39;Name&#39;, &#39;Count&#39; and &lt;br&gt;&#39;Position_Attributes.Attribute_Name&#39;&lt;br&gt;(if Position have more than 5 Attributes&lt;br&gt;then Get first 5)" style="html=1;verticalAlign=bottom;endArrow=block;curved=0;rounded=0;strokeColor=#457B9D;fontColor=#1D3557;fillColor=#A8DADC;" edge="1" parent="1">
          <mxGeometry width="80" relative="1" as="geometry">
            <mxPoint x="680" y="760" as="sourcePoint" />
            <mxPoint x="1240" y="760" as="targetPoint" />
          </mxGeometry>
        </mxCell>
        <mxCell id="4PH2qwDJ6IYh9CamzKsP-38" value="Send &#39;Position&#39; List&lt;br&gt;with its &#39;Name&#39;, &#39;Count&#39; and &lt;br&gt;&#39;Position_Attributes.Attribute_Name&#39;" style="html=1;verticalAlign=bottom;endArrow=block;curved=0;rounded=0;strokeColor=#457B9D;fontColor=#1D3557;fillColor=#A8DADC;" edge="1" parent="1">
          <mxGeometry width="80" relative="1" as="geometry">
            <mxPoint x="1240" y="920" as="sourcePoint" />
            <mxPoint x="680" y="920" as="targetPoint" />
          </mxGeometry>
        </mxCell>
        <mxCell id="4PH2qwDJ6IYh9CamzKsP-39" value="Send &#39;Position&#39; List&lt;br&gt;with its &#39;Name&#39;, &#39;Count&#39; and &lt;br&gt;&#39;Position_Attributes.Attribute_Name&#39;" style="html=1;verticalAlign=bottom;endArrow=block;curved=0;rounded=0;strokeColor=#457B9D;fontColor=#1D3557;fillColor=#A8DADC;" edge="1" parent="1">
          <mxGeometry width="80" relative="1" as="geometry">
            <mxPoint x="680" y="960" as="sourcePoint" />
            <mxPoint x="400" y="960" as="targetPoint" />
          </mxGeometry>
        </mxCell>
        <mxCell id="4PH2qwDJ6IYh9CamzKsP-40" value="Show &#39;Position&#39; List&amp;nbsp;with its &#39;Name&#39;,&lt;br&gt;&amp;nbsp;&#39;Position_Attributes.Attribute_Name&#39;&lt;br&gt;and &#39;Count&#39;" style="html=1;verticalAlign=bottom;endArrow=block;curved=0;rounded=0;strokeColor=#457B9D;fontColor=#1D3557;fillColor=#A8DADC;" edge="1" parent="1">
          <mxGeometry width="80" relative="1" as="geometry">
            <mxPoint x="400" y="1000" as="sourcePoint" />
            <mxPoint x="120" y="1000" as="targetPoint" />
          </mxGeometry>
        </mxCell>
        <mxCell id="4PH2qwDJ6IYh9CamzKsP-41" value="One of List Items Selected" style="html=1;verticalAlign=bottom;endArrow=block;curved=0;rounded=0;strokeColor=#457B9D;fontColor=#1D3557;fillColor=#A8DADC;" edge="1" parent="1">
          <mxGeometry width="80" relative="1" as="geometry">
            <mxPoint x="120" y="1040" as="sourcePoint" />
            <mxPoint x="400" y="1040" as="targetPoint" />
          </mxGeometry>
        </mxCell>
        <mxCell id="4PH2qwDJ6IYh9CamzKsP-42" value="Send Request for Detailed info&lt;br&gt;for selected &#39;Position&#39;" style="html=1;verticalAlign=bottom;endArrow=block;curved=0;rounded=0;strokeColor=#457B9D;fontColor=#1D3557;fillColor=#A8DADC;" edge="1" parent="1">
          <mxGeometry width="80" relative="1" as="geometry">
            <mxPoint x="400" y="1080" as="sourcePoint" />
            <mxPoint x="680" y="1080" as="targetPoint" />
          </mxGeometry>
        </mxCell>
        <mxCell id="4PH2qwDJ6IYh9CamzKsP-43" value="Get &#39;Attribute&#39; List with &#39;Attribute_Name&#39;,&lt;br&gt;&amp;nbsp;&#39;Position_Attributes.Value&#39;&amp;nbsp;and &#39;Limits&#39; List with &#39;Max&#39;,&lt;br&gt;&amp;nbsp;&#39;Min&#39;, &#39;Start Date&#39;,&#39;End Date&#39; for selected &lt;br&gt;&#39;Position&#39; from selected &#39;Department&#39;" style="html=1;verticalAlign=bottom;endArrow=block;curved=0;rounded=0;strokeColor=#457B9D;fontColor=#1D3557;fillColor=#A8DADC;" edge="1" parent="1">
          <mxGeometry width="80" relative="1" as="geometry">
            <mxPoint x="680" y="1120" as="sourcePoint" />
            <mxPoint x="1240" y="1120" as="targetPoint" />
          </mxGeometry>
        </mxCell>
        <mxCell id="4PH2qwDJ6IYh9CamzKsP-45" value="Send &#39;Attribute&#39; and &#39;Limits&#39; Lists&amp;nbsp;for selected &lt;br&gt;&#39;Position&#39; from selected &#39;Department&#39;" style="html=1;verticalAlign=bottom;endArrow=block;curved=0;rounded=0;strokeColor=#457B9D;fontColor=#1D3557;fillColor=#A8DADC;" edge="1" parent="1">
          <mxGeometry width="80" relative="1" as="geometry">
            <mxPoint x="1240" y="1280" as="sourcePoint" />
            <mxPoint x="680" y="1280" as="targetPoint" />
          </mxGeometry>
        </mxCell>
        <mxCell id="4PH2qwDJ6IYh9CamzKsP-46" value="Send &#39;Attribute&#39; and &#39;Limits&#39; Lists&amp;nbsp;for selected &lt;br&gt;&#39;Position&#39; from selected &#39;Department&#39;" style="html=1;verticalAlign=bottom;endArrow=block;curved=0;rounded=0;strokeColor=#457B9D;fontColor=#1D3557;fillColor=#A8DADC;" edge="1" parent="1">
          <mxGeometry width="80" relative="1" as="geometry">
            <mxPoint x="680" y="1320" as="sourcePoint" />
            <mxPoint x="400" y="1320" as="targetPoint" />
          </mxGeometry>
        </mxCell>
        <mxCell id="4PH2qwDJ6IYh9CamzKsP-47" value="Show &#39;Attribute&#39; List with its &#39;Attribute Name&#39; and &#39;Value&#39;;&lt;br&gt;&amp;nbsp;&#39;Limits&#39; List with its &#39;Min&#39;, &#39;Max&#39;, &#39;Start Date&#39;, &#39;End Date&#39;;&lt;br&gt;&#39;Edit Limits&#39; and &#39;Edit Attribute&#39;, &#39;Look Stat&#39; Buttons" style="html=1;verticalAlign=bottom;endArrow=block;curved=0;rounded=0;strokeColor=#457B9D;fontColor=#1D3557;fillColor=#A8DADC;" edge="1" parent="1">
          <mxGeometry width="80" relative="1" as="geometry">
            <mxPoint x="400" y="1360" as="sourcePoint" />
            <mxPoint x="120" y="1360" as="targetPoint" />
          </mxGeometry>
        </mxCell>
        <mxCell id="4PH2qwDJ6IYh9CamzKsP-48" value="&#39;Edit Attributes&#39; Button Pressed" style="html=1;verticalAlign=bottom;endArrow=block;curved=0;rounded=0;strokeColor=#457B9D;fontColor=#1D3557;fillColor=#A8DADC;" edge="1" parent="1">
          <mxGeometry width="80" relative="1" as="geometry">
            <mxPoint x="120" y="3760" as="sourcePoint" />
            <mxPoint x="400" y="3760" as="targetPoint" />
            <mxPoint as="offset" />
          </mxGeometry>
        </mxCell>
        <mxCell id="4PH2qwDJ6IYh9CamzKsP-54" value="&#39;Global Positions&#39; Item was selected" style="html=1;verticalAlign=bottom;endArrow=block;curved=0;rounded=0;strokeColor=#457B9D;fontColor=#1D3557;fillColor=#A8DADC;" edge="1" parent="1">
          <mxGeometry width="80" relative="1" as="geometry">
            <mxPoint x="120" y="1520" as="sourcePoint" />
            <mxPoint x="400" y="1520" as="targetPoint" />
          </mxGeometry>
        </mxCell>
        <mxCell id="4PH2qwDJ6IYh9CamzKsP-55" value="Send Request For &#39;Global Position&#39; List" style="html=1;verticalAlign=bottom;endArrow=block;curved=0;rounded=0;strokeColor=#457B9D;fontColor=#1D3557;fillColor=#A8DADC;" edge="1" parent="1">
          <mxGeometry width="80" relative="1" as="geometry">
            <mxPoint x="400" y="1560" as="sourcePoint" />
            <mxPoint x="680" y="1560" as="targetPoint" />
          </mxGeometry>
        </mxCell>
        <mxCell id="4PH2qwDJ6IYh9CamzKsP-56" value="Get &#39;Position&#39; List with its &lt;br&gt;&#39;Attribute Name&#39;, from &#39;Global DB&#39;&lt;br&gt;(Get 5 attributes if there is more than 5 for some position&lt;br&gt;and get first 5 - if position &#39;Name&#39; is unique&lt;br&gt;otherwise - get as much as possible (up to 5) unique &#39;Attribute Name&#39;&lt;br&gt;for each position with the same &#39;Name&#39; )" style="html=1;verticalAlign=bottom;endArrow=block;curved=0;rounded=0;strokeColor=#457B9D;fontColor=#1D3557;fillColor=#A8DADC;" edge="1" parent="1">
          <mxGeometry width="80" relative="1" as="geometry">
            <mxPoint x="680" y="1600" as="sourcePoint" />
            <mxPoint x="1800" y="1600" as="targetPoint" />
          </mxGeometry>
        </mxCell>
        <mxCell id="4PH2qwDJ6IYh9CamzKsP-57" value="Form &#39;Position&#39; List&lt;br&gt;with its &#39;Attribute Name&#39;" style="html=1;verticalAlign=bottom;endArrow=block;curved=0;rounded=0;strokeColor=#457B9D;fontColor=#1D3557;fillColor=#A8DADC;" edge="1" parent="1">
          <mxGeometry x="0.0833" width="80" relative="1" as="geometry">
            <mxPoint x="1800" y="1640" as="sourcePoint" />
            <mxPoint x="1800" y="1720" as="targetPoint" />
            <Array as="points">
              <mxPoint x="1880" y="1640" />
              <mxPoint x="1880" y="1720" />
            </Array>
            <mxPoint as="offset" />
          </mxGeometry>
        </mxCell>
        <mxCell id="4PH2qwDJ6IYh9CamzKsP-59" value="Get &#39;Position&#39; List with its &lt;br&gt;&#39;Attribute Name&#39;, from &#39;Global DB&#39;&lt;br&gt;(Get 5 attributes if there is more than 5 for some position&lt;br&gt;and get first 5 - if position &#39;Name&#39; is unique&lt;br&gt;otherwise - get as much as possible (up to 5) unique &#39;Attribute Name&#39;&lt;br&gt;for each position with the same &#39;Name&#39; )" style="html=1;verticalAlign=bottom;endArrow=block;curved=0;rounded=0;strokeColor=#457B9D;fontColor=#1D3557;fillColor=#A8DADC;" edge="1" parent="1">
          <mxGeometry width="80" relative="1" as="geometry">
            <mxPoint x="1800" y="1760" as="sourcePoint" />
            <mxPoint x="677" y="1760" as="targetPoint" />
          </mxGeometry>
        </mxCell>
        <mxCell id="4PH2qwDJ6IYh9CamzKsP-60" value="Send &#39;Global Position&#39; List&lt;br&gt;with its &#39;Attribute Name&#39;" style="html=1;verticalAlign=bottom;endArrow=block;curved=0;rounded=0;strokeColor=#457B9D;fontColor=#1D3557;fillColor=#A8DADC;" edge="1" parent="1">
          <mxGeometry width="80" relative="1" as="geometry">
            <mxPoint x="680" y="1800" as="sourcePoint" />
            <mxPoint x="400" y="1800" as="targetPoint" />
          </mxGeometry>
        </mxCell>
        <mxCell id="4PH2qwDJ6IYh9CamzKsP-61" value="Show &#39;Global Position&#39; List&lt;br&gt;with its &#39;Attribute Name&#39;" style="html=1;verticalAlign=bottom;endArrow=block;curved=0;rounded=0;strokeColor=#457B9D;fontColor=#1D3557;fillColor=#A8DADC;" edge="1" parent="1">
          <mxGeometry width="80" relative="1" as="geometry">
            <mxPoint x="400" y="1840" as="sourcePoint" />
            <mxPoint x="120" y="1840" as="targetPoint" />
          </mxGeometry>
        </mxCell>
        <mxCell id="4PH2qwDJ6IYh9CamzKsP-62" value="One of the List items selected" style="html=1;verticalAlign=bottom;endArrow=block;curved=0;rounded=0;strokeColor=#457B9D;fontColor=#1D3557;fillColor=#A8DADC;" edge="1" parent="1">
          <mxGeometry width="80" relative="1" as="geometry">
            <mxPoint x="120" y="1880" as="sourcePoint" />
            <mxPoint x="400" y="1880" as="targetPoint" />
          </mxGeometry>
        </mxCell>
        <mxCell id="4PH2qwDJ6IYh9CamzKsP-63" value="Send Request for full &#39;Attribute Name&#39;&lt;br&gt;list and &#39;Department&#39; List where &#39;Position&#39;&amp;nbsp;&lt;br&gt;were used, for selected &#39;Position&#39;" style="html=1;verticalAlign=bottom;endArrow=block;curved=0;rounded=0;strokeColor=#457B9D;fontColor=#1D3557;fillColor=#A8DADC;" edge="1" parent="1">
          <mxGeometry width="80" relative="1" as="geometry">
            <mxPoint x="400" y="1920" as="sourcePoint" />
            <mxPoint x="680" y="1920" as="targetPoint" />
          </mxGeometry>
        </mxCell>
        <mxCell id="4PH2qwDJ6IYh9CamzKsP-64" value="Get full &#39;Attribute Name&#39;&lt;br&gt;list and &#39;Department&#39; List where &#39;Position&#39;&amp;nbsp;&lt;br&gt;were used, for selected &#39;Position&#39;" style="html=1;verticalAlign=bottom;endArrow=block;curved=0;rounded=0;strokeColor=#457B9D;fontColor=#1D3557;fillColor=#A8DADC;" edge="1" parent="1">
          <mxGeometry width="80" relative="1" as="geometry">
            <mxPoint x="680" y="1960" as="sourcePoint" />
            <mxPoint x="1244" y="1960" as="targetPoint" />
          </mxGeometry>
        </mxCell>
        <mxCell id="4PH2qwDJ6IYh9CamzKsP-65" value="Form &#39;Department&#39; List" style="html=1;verticalAlign=bottom;endArrow=block;curved=0;rounded=0;strokeColor=#457B9D;fontColor=#1D3557;fillColor=#A8DADC;" edge="1" parent="1">
          <mxGeometry width="80" relative="1" as="geometry">
            <mxPoint x="1238" y="2000" as="sourcePoint" />
            <mxPoint x="1240" y="2080" as="targetPoint" />
            <Array as="points">
              <mxPoint x="1320" y="2000" />
              <mxPoint x="1320" y="2080" />
            </Array>
          </mxGeometry>
        </mxCell>
        <mxCell id="4PH2qwDJ6IYh9CamzKsP-66" value="Form &#39;Attribute Name&#39; List" style="html=1;verticalAlign=bottom;endArrow=block;curved=0;rounded=0;strokeColor=#457B9D;fontColor=#1D3557;fillColor=#A8DADC;" edge="1" parent="1">
          <mxGeometry width="80" relative="1" as="geometry">
            <mxPoint x="1240" y="2120" as="sourcePoint" />
            <mxPoint x="1242" y="2200" as="targetPoint" />
            <Array as="points">
              <mxPoint x="1322" y="2120" />
              <mxPoint x="1322" y="2200" />
            </Array>
          </mxGeometry>
        </mxCell>
        <mxCell id="4PH2qwDJ6IYh9CamzKsP-67" value="Send full &#39;Attribute Name&#39;&lt;br&gt;list and &#39;Department&#39; List where &#39;Position&#39;&amp;nbsp;&lt;br&gt;were used, for selected &#39;Position&#39;" style="html=1;verticalAlign=bottom;endArrow=block;curved=0;rounded=0;strokeColor=#457B9D;fontColor=#1D3557;fillColor=#A8DADC;" edge="1" parent="1">
          <mxGeometry width="80" relative="1" as="geometry">
            <mxPoint x="1240" y="2240" as="sourcePoint" />
            <mxPoint x="680" y="2240" as="targetPoint" />
          </mxGeometry>
        </mxCell>
        <mxCell id="4PH2qwDJ6IYh9CamzKsP-68" value="Send full &#39;Attribute Name&#39;&lt;br&gt;and &#39;Department&#39; Lists" style="html=1;verticalAlign=bottom;endArrow=block;curved=0;rounded=0;strokeColor=#457B9D;fontColor=#1D3557;fillColor=#A8DADC;" edge="1" parent="1">
          <mxGeometry width="80" relative="1" as="geometry">
            <mxPoint x="680" y="2280" as="sourcePoint" />
            <mxPoint x="400" y="2280" as="targetPoint" />
          </mxGeometry>
        </mxCell>
        <mxCell id="4PH2qwDJ6IYh9CamzKsP-69" value="Show &#39;Attribute Name&#39; List&lt;br&gt;and &#39;Department&#39; List" style="html=1;verticalAlign=bottom;endArrow=block;curved=0;rounded=0;strokeColor=#457B9D;fontColor=#1D3557;fillColor=#A8DADC;" edge="1" parent="1">
          <mxGeometry width="80" relative="1" as="geometry">
            <mxPoint x="400" y="2320" as="sourcePoint" />
            <mxPoint x="120" y="2320" as="targetPoint" />
          </mxGeometry>
        </mxCell>
        <mxCell id="4PH2qwDJ6IYh9CamzKsP-71" value="One of &#39;Department&#39; List Items selected" style="html=1;verticalAlign=bottom;endArrow=block;curved=0;rounded=0;strokeColor=#457B9D;fontColor=#1D3557;fillColor=#A8DADC;" edge="1" parent="1">
          <mxGeometry width="80" relative="1" as="geometry">
            <mxPoint x="120" y="2360" as="sourcePoint" />
            <mxPoint x="400" y="2360" as="targetPoint" />
          </mxGeometry>
        </mxCell>
        <mxCell id="4PH2qwDJ6IYh9CamzKsP-72" value="Send Request for Detailed info&lt;br&gt;for selected &#39;Position&#39; from &lt;br&gt;selected &#39;Department&#39;" style="html=1;verticalAlign=bottom;endArrow=block;curved=0;rounded=0;strokeColor=#457B9D;fontColor=#1D3557;fillColor=#A8DADC;" edge="1" parent="1">
          <mxGeometry width="80" relative="1" as="geometry">
            <mxPoint x="400" y="2400" as="sourcePoint" />
            <mxPoint x="680" y="2400" as="targetPoint" />
          </mxGeometry>
        </mxCell>
        <mxCell id="4PH2qwDJ6IYh9CamzKsP-73" value="Complete &#39;Attribute&#39; List via Getting&lt;br&gt;&amp;nbsp;&#39;Position_Attributes.Value&#39;;&lt;br&gt;Get &#39;Limits&#39; List with &#39;Max&#39;,&lt;br&gt;&amp;nbsp;&#39;Min&#39;, &#39;Start Date&#39;,&#39;End Date&#39; for selected &lt;br&gt;&#39;Position&#39; from selected &#39;Department&#39;" style="html=1;verticalAlign=bottom;endArrow=block;curved=0;rounded=0;strokeColor=#457B9D;fontColor=#1D3557;fillColor=#A8DADC;" edge="1" parent="1">
          <mxGeometry width="80" relative="1" as="geometry">
            <mxPoint x="680" y="2440" as="sourcePoint" />
            <mxPoint x="1240" y="2440" as="targetPoint" />
            <mxPoint as="offset" />
          </mxGeometry>
        </mxCell>
        <mxCell id="4PH2qwDJ6IYh9CamzKsP-75" value="Send &#39;Attribute&#39; and &#39;Limits&#39; Lists&amp;nbsp;for selected &lt;br&gt;&#39;Position&#39; from selected &#39;Department&#39;" style="html=1;verticalAlign=bottom;endArrow=block;curved=0;rounded=0;strokeColor=#457B9D;fontColor=#1D3557;fillColor=#A8DADC;" edge="1" parent="1">
          <mxGeometry width="80" relative="1" as="geometry">
            <mxPoint x="1240" y="2600" as="sourcePoint" />
            <mxPoint x="680" y="2600" as="targetPoint" />
          </mxGeometry>
        </mxCell>
        <mxCell id="4PH2qwDJ6IYh9CamzKsP-76" value="Send &#39;Attribute&#39; and &#39;Limits&#39; Lists&amp;nbsp;for selected &lt;br&gt;&#39;Position&#39; from selected &#39;Department&#39;" style="html=1;verticalAlign=bottom;endArrow=block;curved=0;rounded=0;strokeColor=#457B9D;fontColor=#1D3557;fillColor=#A8DADC;" edge="1" parent="1">
          <mxGeometry width="80" relative="1" as="geometry">
            <mxPoint x="680" y="2640" as="sourcePoint" />
            <mxPoint x="400" y="2640" as="targetPoint" />
          </mxGeometry>
        </mxCell>
        <mxCell id="4PH2qwDJ6IYh9CamzKsP-77" value="Show &#39;Attribute&#39; List with its &#39;Attribute Name&#39; and &#39;Value&#39;;&lt;br&gt;&amp;nbsp;&#39;Limits&#39; List with its &#39;Min&#39;, &#39;Max&#39;, &#39;Start Date&#39;, &#39;End Date&#39;;&lt;br&gt;&#39;Edit Limits&#39; and &#39;Edit Attribute&#39;, &#39;Look Stat&#39; Buttons" style="html=1;verticalAlign=bottom;endArrow=block;curved=0;rounded=0;strokeColor=#457B9D;fontColor=#1D3557;fillColor=#A8DADC;" edge="1" parent="1">
          <mxGeometry width="80" relative="1" as="geometry">
            <mxPoint x="400" y="2700" as="sourcePoint" />
            <mxPoint x="120" y="2700" as="targetPoint" />
            <mxPoint as="offset" />
          </mxGeometry>
        </mxCell>
        <mxCell id="4PH2qwDJ6IYh9CamzKsP-80" value="&#39;Average Limits List&#39; Item was selected" style="html=1;verticalAlign=bottom;endArrow=block;curved=0;rounded=0;strokeColor=#457B9D;fontColor=#1D3557;fillColor=#A8DADC;" edge="1" parent="1">
          <mxGeometry width="80" relative="1" as="geometry">
            <mxPoint x="120" y="2840" as="sourcePoint" />
            <mxPoint x="400" y="2840" as="targetPoint" />
          </mxGeometry>
        </mxCell>
        <mxCell id="4PH2qwDJ6IYh9CamzKsP-81" value="Send Request for &#39;Global Position&#39; List" style="html=1;verticalAlign=bottom;endArrow=block;curved=0;rounded=0;strokeColor=#457B9D;fontColor=#1D3557;fillColor=#A8DADC;" edge="1" parent="1">
          <mxGeometry width="80" relative="1" as="geometry">
            <mxPoint x="400" y="2880" as="sourcePoint" />
            <mxPoint x="680" y="2880" as="targetPoint" />
          </mxGeometry>
        </mxCell>
        <mxCell id="4PH2qwDJ6IYh9CamzKsP-82" value="Get &#39;Position&#39; List with its&amp;nbsp;&lt;br style=&quot;border-color: var(--border-color);&quot;&gt;&#39;Attribute Name&#39;, from &#39;Global DB&#39;&lt;br style=&quot;border-color: var(--border-color);&quot;&gt;(Get 5 attributes if there is more than 5 for some position&lt;br style=&quot;border-color: var(--border-color);&quot;&gt;and get first 5 - if position &#39;Name&#39; is unique&lt;br style=&quot;border-color: var(--border-color);&quot;&gt;otherwise - get as much as possible (up to 5) unique &#39;Attribute Name&#39;&lt;br style=&quot;border-color: var(--border-color);&quot;&gt;for each position with the same &#39;Name&#39; )" style="html=1;verticalAlign=bottom;endArrow=block;curved=0;rounded=0;strokeColor=#457B9D;fontColor=#1D3557;fillColor=#A8DADC;" edge="1" parent="1">
          <mxGeometry x="0.0009" width="80" relative="1" as="geometry">
            <mxPoint x="680" y="2920" as="sourcePoint" />
            <mxPoint x="1803" y="2920" as="targetPoint" />
            <mxPoint as="offset" />
          </mxGeometry>
        </mxCell>
        <mxCell id="4PH2qwDJ6IYh9CamzKsP-84" value="Form &#39;Position&#39; List&lt;br&gt;with its &#39;Attribute Name&#39;" style="html=1;verticalAlign=bottom;endArrow=block;curved=0;rounded=0;strokeColor=#457B9D;fontColor=#1D3557;fillColor=#A8DADC;" edge="1" parent="1">
          <mxGeometry x="0.0833" width="80" relative="1" as="geometry">
            <mxPoint x="1803" y="2960" as="sourcePoint" />
            <mxPoint x="1803" y="3040" as="targetPoint" />
            <Array as="points">
              <mxPoint x="1883" y="2960" />
              <mxPoint x="1883" y="3040" />
            </Array>
            <mxPoint as="offset" />
          </mxGeometry>
        </mxCell>
        <mxCell id="4PH2qwDJ6IYh9CamzKsP-85" value="Get &#39;Position&#39; List with its &lt;br&gt;&#39;Attribute Name&#39;, from &#39;Global DB&#39;&lt;br&gt;(Get 5 attributes if there is more than 5 for some position&lt;br&gt;and get first 5 - if position &#39;Name&#39; is unique&lt;br&gt;otherwise - get as much as possible (up to 5) unique &#39;Attribute Name&#39;&lt;br&gt;for each position with the same &#39;Name&#39; )" style="html=1;verticalAlign=bottom;endArrow=block;curved=0;rounded=0;strokeColor=#457B9D;fontColor=#1D3557;fillColor=#A8DADC;" edge="1" parent="1">
          <mxGeometry width="80" relative="1" as="geometry">
            <mxPoint x="1803" y="3080" as="sourcePoint" />
            <mxPoint x="680" y="3080" as="targetPoint" />
          </mxGeometry>
        </mxCell>
        <mxCell id="4PH2qwDJ6IYh9CamzKsP-86" value="Send &#39;Global Position&#39; List&lt;br&gt;with its &#39;Attribute Name&#39;" style="html=1;verticalAlign=bottom;endArrow=block;curved=0;rounded=0;strokeColor=#457B9D;fontColor=#1D3557;fillColor=#A8DADC;" edge="1" parent="1">
          <mxGeometry width="80" relative="1" as="geometry">
            <mxPoint x="680" y="3120" as="sourcePoint" />
            <mxPoint x="400" y="3120" as="targetPoint" />
          </mxGeometry>
        </mxCell>
        <mxCell id="4PH2qwDJ6IYh9CamzKsP-87" value="Show &#39;Global Position&#39; List&lt;br&gt;with its &#39;Attribute Name&#39;" style="html=1;verticalAlign=bottom;endArrow=block;curved=0;rounded=0;strokeColor=#457B9D;fontColor=#1D3557;fillColor=#A8DADC;" edge="1" parent="1">
          <mxGeometry width="80" relative="1" as="geometry">
            <mxPoint x="400" y="3160" as="sourcePoint" />
            <mxPoint x="120" y="3160" as="targetPoint" />
          </mxGeometry>
        </mxCell>
        <mxCell id="4PH2qwDJ6IYh9CamzKsP-88" value="One of the List items selected" style="html=1;verticalAlign=bottom;endArrow=block;curved=0;rounded=0;strokeColor=#457B9D;fontColor=#1D3557;fillColor=#A8DADC;" edge="1" parent="1">
          <mxGeometry width="80" relative="1" as="geometry">
            <mxPoint x="120" y="3200" as="sourcePoint" />
            <mxPoint x="400" y="3200" as="targetPoint" />
          </mxGeometry>
        </mxCell>
        <mxCell id="4PH2qwDJ6IYh9CamzKsP-89" value="Send Request for full &#39;Attribute Name&#39; List&lt;br&gt;and &#39;Limits List&#39; for selected &#39;Position&#39;" style="html=1;verticalAlign=bottom;endArrow=block;curved=0;rounded=0;strokeColor=#457B9D;fontColor=#1D3557;fillColor=#A8DADC;" edge="1" parent="1">
          <mxGeometry width="80" relative="1" as="geometry">
            <mxPoint x="400" y="3240" as="sourcePoint" />
            <mxPoint x="680" y="3240" as="targetPoint" />
          </mxGeometry>
        </mxCell>
        <mxCell id="4PH2qwDJ6IYh9CamzKsP-90" value="Get full &#39;Attribute Name&#39; List;&lt;br&gt;&#39;Limits&#39; List with its &#39;Avg_Min&#39;,&amp;nbsp;&lt;br&gt;&#39;Avg_Max&#39;, &#39;Start_Date&#39;, &#39;End Date&#39;&lt;br&gt;for selected &#39;Position&#39;" style="html=1;verticalAlign=bottom;endArrow=block;curved=0;rounded=0;strokeColor=#457B9D;fontColor=#1D3557;fillColor=#A8DADC;" edge="1" parent="1">
          <mxGeometry width="80" relative="1" as="geometry">
            <mxPoint x="680" y="3280" as="sourcePoint" />
            <mxPoint x="1802" y="3280" as="targetPoint" />
          </mxGeometry>
        </mxCell>
        <mxCell id="4PH2qwDJ6IYh9CamzKsP-91" value="Send full &#39;Attribute Name&#39; List;&lt;br&gt;&#39;Limits&#39; List with its &#39;Avg_Min&#39;,&amp;nbsp;&lt;br&gt;&#39;Avg_Max&#39;, &#39;Start_Date&#39;, &#39;End Date&#39;&lt;br&gt;for selected &#39;Position&#39;" style="html=1;verticalAlign=bottom;endArrow=block;curved=0;rounded=0;strokeColor=#457B9D;fontColor=#1D3557;fillColor=#A8DADC;" edge="1" parent="1">
          <mxGeometry width="80" relative="1" as="geometry">
            <mxPoint x="1800" y="3440" as="sourcePoint" />
            <mxPoint x="680" y="3440" as="targetPoint" />
          </mxGeometry>
        </mxCell>
        <mxCell id="4PH2qwDJ6IYh9CamzKsP-92" value="Form &#39;Attribute Name&#39; List&lt;br&gt;and &#39;Limits&#39; List" style="html=1;verticalAlign=bottom;endArrow=block;curved=0;rounded=0;strokeColor=#457B9D;fontColor=#1D3557;fillColor=#A8DADC;" edge="1" parent="1">
          <mxGeometry x="0.0833" width="80" relative="1" as="geometry">
            <mxPoint x="1800" y="3320" as="sourcePoint" />
            <mxPoint x="1800" y="3400" as="targetPoint" />
            <Array as="points">
              <mxPoint x="1880" y="3320" />
              <mxPoint x="1880" y="3400" />
            </Array>
            <mxPoint as="offset" />
          </mxGeometry>
        </mxCell>
        <mxCell id="4PH2qwDJ6IYh9CamzKsP-93" value="Send &#39;Attribute Name&#39; List and&lt;br&gt;&#39;Limit&#39; list for selected &#39;Position&#39;" style="html=1;verticalAlign=bottom;endArrow=block;curved=0;rounded=0;strokeColor=#457B9D;fontColor=#1D3557;fillColor=#A8DADC;" edge="1" parent="1">
          <mxGeometry width="80" relative="1" as="geometry">
            <mxPoint x="679" y="3480" as="sourcePoint" />
            <mxPoint x="400" y="3480" as="targetPoint" />
          </mxGeometry>
        </mxCell>
        <mxCell id="4PH2qwDJ6IYh9CamzKsP-94" value="Show &#39;Attribute&#39; List with it &#39;Name&#39;;&lt;br&gt;&#39;Limits&#39; List&amp;nbsp;with its &#39;Avg_Min&#39;, Avg_&#39;Max&#39;,&lt;br&gt;&amp;nbsp;&#39;Start Date&#39;, &#39;End Date&#39;;&lt;br&gt;&#39;Edit Limits&#39; and &#39;Edit Attributes&#39;, &#39;Look Stat&#39; Buttons" style="html=1;verticalAlign=bottom;endArrow=block;curved=0;rounded=0;strokeColor=#457B9D;fontColor=#1D3557;fillColor=#A8DADC;" edge="1" parent="1">
          <mxGeometry width="80" relative="1" as="geometry">
            <mxPoint x="399" y="3520" as="sourcePoint" />
            <mxPoint x="120" y="3520" as="targetPoint" />
          </mxGeometry>
        </mxCell>
        <mxCell id="4PH2qwDJ6IYh9CamzKsP-95" value="Make &#39;Attribute&#39; List Editable, add&lt;br&gt;&#39;Done&#39; Button to the Current View&lt;br&gt;and make all other buttons - disabled&lt;br&gt;(except &#39;return&#39; Button)" style="html=1;verticalAlign=bottom;endArrow=block;curved=0;rounded=0;strokeColor=#457B9D;fontColor=#1D3557;fillColor=#A8DADC;" edge="1" parent="1">
          <mxGeometry width="80" relative="1" as="geometry">
            <mxPoint x="400" y="3840" as="sourcePoint" />
            <mxPoint x="120" y="3840" as="targetPoint" />
            <mxPoint as="offset" />
          </mxGeometry>
        </mxCell>
        <mxCell id="4PH2qwDJ6IYh9CamzKsP-96" value="Any kind of Changes was done&amp;nbsp;" style="html=1;verticalAlign=bottom;endArrow=block;curved=0;rounded=0;strokeColor=#457B9D;fontColor=#1D3557;fillColor=#A8DADC;" edge="1" parent="1">
          <mxGeometry width="80" relative="1" as="geometry">
            <mxPoint x="120" y="3880" as="sourcePoint" />
            <mxPoint x="400" y="3880" as="targetPoint" />
            <mxPoint as="offset" />
          </mxGeometry>
        </mxCell>
        <mxCell id="4PH2qwDJ6IYh9CamzKsP-97" value="&#39;Done&#39; Button Pressed" style="html=1;verticalAlign=bottom;endArrow=block;curved=0;rounded=0;strokeColor=#457B9D;fontColor=#1D3557;fillColor=#A8DADC;" edge="1" parent="1">
          <mxGeometry width="80" relative="1" as="geometry">
            <mxPoint x="120" y="3920" as="sourcePoint" />
            <mxPoint x="400" y="3920" as="targetPoint" />
            <mxPoint as="offset" />
          </mxGeometry>
        </mxCell>
        <mxCell id="4PH2qwDJ6IYh9CamzKsP-98" value="Send &#39;Modified Attributes&#39; List" style="html=1;verticalAlign=bottom;endArrow=block;curved=0;rounded=0;strokeColor=#457B9D;fontColor=#1D3557;fillColor=#A8DADC;" edge="1" parent="1">
          <mxGeometry width="80" relative="1" as="geometry">
            <mxPoint x="400" y="3960" as="sourcePoint" />
            <mxPoint x="680" y="3960" as="targetPoint" />
            <mxPoint as="offset" />
          </mxGeometry>
        </mxCell>
        <mxCell id="4PH2qwDJ6IYh9CamzKsP-99" value="Replace &#39;Attribute&#39; List&lt;br&gt;with a &#39;Modified Attributes&#39; List" style="html=1;verticalAlign=bottom;endArrow=block;curved=0;rounded=0;strokeColor=#457B9D;fontColor=#1D3557;fillColor=#A8DADC;" edge="1" parent="1">
          <mxGeometry x="0.1667" width="80" relative="1" as="geometry">
            <mxPoint x="680" y="4000" as="sourcePoint" />
            <mxPoint x="680" y="4080" as="targetPoint" />
            <mxPoint as="offset" />
            <Array as="points">
              <mxPoint x="760" y="4000" />
              <mxPoint x="760" y="4080" />
            </Array>
          </mxGeometry>
        </mxCell>
        <mxCell id="4PH2qwDJ6IYh9CamzKsP-100" value="Make &#39;Attribute&#39; List - disabled&lt;br&gt;add &#39;Save Changes&#39; Button to&lt;br&gt;current Menu and make all&lt;br&gt;Buttons - Enabled" style="html=1;verticalAlign=bottom;endArrow=block;curved=0;rounded=0;strokeColor=#457B9D;fontColor=#1D3557;fillColor=#A8DADC;" edge="1" parent="1">
          <mxGeometry width="80" relative="1" as="geometry">
            <mxPoint x="400" y="4120" as="sourcePoint" />
            <mxPoint x="120" y="4120" as="targetPoint" />
            <mxPoint as="offset" />
          </mxGeometry>
        </mxCell>
        <mxCell id="4PH2qwDJ6IYh9CamzKsP-101" value="&#39;Edit Limits&#39; Button Pressed" style="html=1;verticalAlign=bottom;endArrow=block;curved=0;rounded=0;strokeColor=#457B9D;fontColor=#1D3557;fillColor=#A8DADC;" edge="1" parent="1">
          <mxGeometry width="80" relative="1" as="geometry">
            <mxPoint x="120" y="4320" as="sourcePoint" />
            <mxPoint x="400" y="4320" as="targetPoint" />
            <mxPoint as="offset" />
          </mxGeometry>
        </mxCell>
        <mxCell id="4PH2qwDJ6IYh9CamzKsP-102" value="Make &#39;Limits&#39; List Editable, add&lt;br&gt;&#39;Done&#39; Button to the Current View&lt;br&gt;and make all other buttons - disabled&lt;br&gt;(except &#39;return&#39; Button)" style="html=1;verticalAlign=bottom;endArrow=block;curved=0;rounded=0;strokeColor=#457B9D;fontColor=#1D3557;fillColor=#A8DADC;" edge="1" parent="1">
          <mxGeometry width="80" relative="1" as="geometry">
            <mxPoint x="400" y="4400" as="sourcePoint" />
            <mxPoint x="120" y="4400" as="targetPoint" />
            <mxPoint as="offset" />
          </mxGeometry>
        </mxCell>
        <mxCell id="4PH2qwDJ6IYh9CamzKsP-103" value="Any kind of Changes was done&amp;nbsp;" style="html=1;verticalAlign=bottom;endArrow=block;curved=0;rounded=0;strokeColor=#457B9D;fontColor=#1D3557;fillColor=#A8DADC;" edge="1" parent="1">
          <mxGeometry width="80" relative="1" as="geometry">
            <mxPoint x="120" y="4440" as="sourcePoint" />
            <mxPoint x="400" y="4440" as="targetPoint" />
            <mxPoint as="offset" />
          </mxGeometry>
        </mxCell>
        <mxCell id="4PH2qwDJ6IYh9CamzKsP-104" value="&#39;Done&#39; Button Pressed" style="html=1;verticalAlign=bottom;endArrow=block;curved=0;rounded=0;strokeColor=#457B9D;fontColor=#1D3557;fillColor=#A8DADC;" edge="1" parent="1">
          <mxGeometry width="80" relative="1" as="geometry">
            <mxPoint x="120" y="4480" as="sourcePoint" />
            <mxPoint x="400" y="4480" as="targetPoint" />
            <mxPoint as="offset" />
          </mxGeometry>
        </mxCell>
        <mxCell id="4PH2qwDJ6IYh9CamzKsP-105" value="Send &#39;Modified Limits&#39; List" style="html=1;verticalAlign=bottom;endArrow=block;curved=0;rounded=0;strokeColor=#457B9D;fontColor=#1D3557;fillColor=#A8DADC;" edge="1" parent="1">
          <mxGeometry width="80" relative="1" as="geometry">
            <mxPoint x="400" y="4520" as="sourcePoint" />
            <mxPoint x="680" y="4520" as="targetPoint" />
            <mxPoint as="offset" />
          </mxGeometry>
        </mxCell>
        <mxCell id="4PH2qwDJ6IYh9CamzKsP-106" value="Replace &#39;Limits&#39; List&lt;br&gt;with a &#39;Modified Limits&#39; List" style="html=1;verticalAlign=bottom;endArrow=block;curved=0;rounded=0;strokeColor=#457B9D;fontColor=#1D3557;fillColor=#A8DADC;" edge="1" parent="1">
          <mxGeometry x="0.1667" width="80" relative="1" as="geometry">
            <mxPoint x="680" y="4540" as="sourcePoint" />
            <mxPoint x="680" y="4620" as="targetPoint" />
            <mxPoint as="offset" />
            <Array as="points">
              <mxPoint x="760" y="4540" />
              <mxPoint x="760" y="4620" />
            </Array>
          </mxGeometry>
        </mxCell>
        <mxCell id="4PH2qwDJ6IYh9CamzKsP-108" value="Make &#39;Limits&#39; List - disabled&lt;br&gt;add &#39;Save Changes&#39; Button to&lt;br&gt;current Menu and make all&lt;br&gt;Buttons - Enabled" style="html=1;verticalAlign=bottom;endArrow=block;curved=0;rounded=0;strokeColor=#457B9D;fontColor=#1D3557;fillColor=#A8DADC;" edge="1" parent="1">
          <mxGeometry width="80" relative="1" as="geometry">
            <mxPoint x="400" y="4680" as="sourcePoint" />
            <mxPoint x="120" y="4680" as="targetPoint" />
            <mxPoint as="offset" />
          </mxGeometry>
        </mxCell>
        <mxCell id="4PH2qwDJ6IYh9CamzKsP-112" value="&#39;Save Changes&#39; Button Pressed" style="html=1;verticalAlign=bottom;endArrow=block;curved=0;rounded=0;strokeColor=#457B9D;fontColor=#1D3557;fillColor=#A8DADC;" edge="1" parent="1">
          <mxGeometry width="80" relative="1" as="geometry">
            <mxPoint x="120" y="5801" as="sourcePoint" />
            <mxPoint x="400" y="5801" as="targetPoint" />
            <mxPoint as="offset" />
          </mxGeometry>
        </mxCell>
        <mxCell id="4PH2qwDJ6IYh9CamzKsP-113" value="Send Request for Save Changes" style="html=1;verticalAlign=bottom;endArrow=block;curved=0;rounded=0;strokeColor=#457B9D;fontColor=#1D3557;fillColor=#A8DADC;" edge="1" parent="1">
          <mxGeometry width="80" relative="1" as="geometry">
            <mxPoint x="400" y="5841" as="sourcePoint" />
            <mxPoint x="680" y="5841" as="targetPoint" />
            <mxPoint as="offset" />
          </mxGeometry>
        </mxCell>
        <mxCell id="4PH2qwDJ6IYh9CamzKsP-114" value="Save &#39;Limits&#39; and &#39;Attribute&#39; Lists&lt;br&gt;for selected &#39;Position&#39; from selected &#39;Department&#39;" style="html=1;verticalAlign=bottom;endArrow=block;curved=0;rounded=0;strokeColor=#457B9D;fontColor=#1D3557;fillColor=#A8DADC;" edge="1" parent="1">
          <mxGeometry width="80" relative="1" as="geometry">
            <mxPoint x="680" y="6021" as="sourcePoint" />
            <mxPoint x="1520" y="6021" as="targetPoint" />
            <mxPoint as="offset" />
          </mxGeometry>
        </mxCell>
        <mxCell id="4PH2qwDJ6IYh9CamzKsP-115" value="Apply Changes to Attributes &#39;Name&#39;, &#39;Value&#39;;&lt;br&gt;Limits &#39;Max&#39;, &#39;Min&#39;, &#39;Start_Date&#39;, &#39;End_Date&#39;&lt;br&gt;" style="html=1;verticalAlign=bottom;endArrow=block;curved=0;rounded=0;strokeColor=#457B9D;fontColor=#1D3557;fillColor=#A8DADC;" edge="1" parent="1">
          <mxGeometry width="80" relative="1" as="geometry">
            <mxPoint x="1520" y="6081" as="sourcePoint" />
            <mxPoint x="1240" y="6081" as="targetPoint" />
            <mxPoint as="offset" />
          </mxGeometry>
        </mxCell>
        <mxCell id="4PH2qwDJ6IYh9CamzKsP-116" value="Send Transaction Result" style="html=1;verticalAlign=bottom;endArrow=block;curved=0;rounded=0;strokeColor=#457B9D;fontColor=#1D3557;fillColor=#A8DADC;" edge="1" parent="1">
          <mxGeometry width="80" relative="1" as="geometry">
            <mxPoint x="1520" y="6121" as="sourcePoint" />
            <mxPoint x="680" y="6121" as="targetPoint" />
            <mxPoint as="offset" />
          </mxGeometry>
        </mxCell>
        <mxCell id="4PH2qwDJ6IYh9CamzKsP-119" value="Create Triggers" style="html=1;verticalAlign=bottom;endArrow=block;curved=0;rounded=0;strokeColor=#457B9D;fontColor=#1D3557;fillColor=#A8DADC;" edge="1" parent="1">
          <mxGeometry width="80" relative="1" as="geometry">
            <mxPoint x="1520" y="6301" as="sourcePoint" />
            <mxPoint x="1240" y="6301" as="targetPoint" />
            <mxPoint as="offset" />
          </mxGeometry>
        </mxCell>
        <mxCell id="4PH2qwDJ6IYh9CamzKsP-120" value="Add Triggers for Added Limits" style="html=1;verticalAlign=bottom;endArrow=block;curved=0;rounded=0;strokeColor=#457B9D;fontColor=#1D3557;fillColor=#A8DADC;" edge="1" parent="1">
          <mxGeometry width="80" relative="1" as="geometry">
            <mxPoint x="680" y="6251" as="sourcePoint" />
            <mxPoint x="1520" y="6251" as="targetPoint" />
            <mxPoint as="offset" />
          </mxGeometry>
        </mxCell>
        <mxCell id="4PH2qwDJ6IYh9CamzKsP-121" value="Send Transaction Result" style="html=1;verticalAlign=bottom;endArrow=block;curved=0;rounded=0;strokeColor=#457B9D;fontColor=#1D3557;fillColor=#A8DADC;" edge="1" parent="1">
          <mxGeometry width="80" relative="1" as="geometry">
            <mxPoint x="1520" y="6341" as="sourcePoint" />
            <mxPoint x="680" y="6341" as="targetPoint" />
            <mxPoint as="offset" />
          </mxGeometry>
        </mxCell>
        <mxCell id="4PH2qwDJ6IYh9CamzKsP-136" value="Delete Triggers" style="html=1;verticalAlign=bottom;endArrow=block;curved=0;rounded=0;strokeColor=#457B9D;fontColor=#1D3557;fillColor=#A8DADC;" edge="1" parent="1">
          <mxGeometry width="80" relative="1" as="geometry">
            <mxPoint x="1520" y="6531" as="sourcePoint" />
            <mxPoint x="1240" y="6531" as="targetPoint" />
            <mxPoint as="offset" />
          </mxGeometry>
        </mxCell>
        <mxCell id="4PH2qwDJ6IYh9CamzKsP-137" value="Delete Triggers for Removed Limits" style="html=1;verticalAlign=bottom;endArrow=block;curved=0;rounded=0;strokeColor=#457B9D;fontColor=#1D3557;fillColor=#A8DADC;" edge="1" parent="1">
          <mxGeometry width="80" relative="1" as="geometry">
            <mxPoint x="680" y="6481" as="sourcePoint" />
            <mxPoint x="1520" y="6481" as="targetPoint" />
            <mxPoint as="offset" />
          </mxGeometry>
        </mxCell>
        <mxCell id="4PH2qwDJ6IYh9CamzKsP-138" value="Send Transaction Result" style="html=1;verticalAlign=bottom;endArrow=block;curved=0;rounded=0;strokeColor=#457B9D;fontColor=#1D3557;fillColor=#A8DADC;" edge="1" parent="1">
          <mxGeometry width="80" relative="1" as="geometry">
            <mxPoint x="1520" y="6571" as="sourcePoint" />
            <mxPoint x="680" y="6571" as="targetPoint" />
            <mxPoint as="offset" />
          </mxGeometry>
        </mxCell>
        <mxCell id="4PH2qwDJ6IYh9CamzKsP-143" value="Update Triggers" style="html=1;verticalAlign=bottom;endArrow=block;curved=0;rounded=0;strokeColor=#457B9D;fontColor=#1D3557;fillColor=#A8DADC;" edge="1" parent="1">
          <mxGeometry width="80" relative="1" as="geometry">
            <mxPoint x="1520" y="6751" as="sourcePoint" />
            <mxPoint x="1240" y="6751" as="targetPoint" />
            <mxPoint as="offset" />
          </mxGeometry>
        </mxCell>
        <mxCell id="4PH2qwDJ6IYh9CamzKsP-144" value="Update Triggers for Changed Limits" style="html=1;verticalAlign=bottom;endArrow=block;curved=0;rounded=0;strokeColor=#457B9D;fontColor=#1D3557;fillColor=#A8DADC;" edge="1" parent="1">
          <mxGeometry width="80" relative="1" as="geometry">
            <mxPoint x="680" y="6701" as="sourcePoint" />
            <mxPoint x="1520" y="6701" as="targetPoint" />
            <mxPoint as="offset" />
          </mxGeometry>
        </mxCell>
        <mxCell id="4PH2qwDJ6IYh9CamzKsP-145" value="Send Transaction Result" style="html=1;verticalAlign=bottom;endArrow=block;curved=0;rounded=0;strokeColor=#457B9D;fontColor=#1D3557;fillColor=#A8DADC;" edge="1" parent="1">
          <mxGeometry width="80" relative="1" as="geometry">
            <mxPoint x="1520" y="6791" as="sourcePoint" />
            <mxPoint x="680" y="6791" as="targetPoint" />
            <mxPoint as="offset" />
          </mxGeometry>
        </mxCell>
        <mxCell id="4PH2qwDJ6IYh9CamzKsP-151" value="Send Notification to Task Manager to &lt;br&gt;Update Pages of Each Editor that can&lt;br&gt;possibly work with &#39;Department&#39; where&lt;br&gt;changes were Applied" style="html=1;verticalAlign=bottom;endArrow=block;curved=0;rounded=0;strokeColor=#457B9D;fontColor=#1D3557;fillColor=#A8DADC;" edge="1" parent="1">
          <mxGeometry width="80" relative="1" as="geometry">
            <mxPoint x="680" y="6901" as="sourcePoint" />
            <mxPoint x="2360" y="6901" as="targetPoint" />
            <mxPoint as="offset" />
          </mxGeometry>
        </mxCell>
        <mxCell id="4PH2qwDJ6IYh9CamzKsP-156" value="Save &#39;Limits&#39; and &#39;Attribute&#39; Lists&lt;br&gt;for selected &#39;Position&#39; from &#39;Global DB&#39;" style="html=1;verticalAlign=bottom;endArrow=block;curved=0;rounded=0;strokeColor=#457B9D;fontColor=#1D3557;fillColor=#A8DADC;" edge="1" parent="1">
          <mxGeometry width="80" relative="1" as="geometry">
            <mxPoint x="680" y="7121" as="sourcePoint" />
            <mxPoint x="2080" y="7121" as="targetPoint" />
            <mxPoint as="offset" />
          </mxGeometry>
        </mxCell>
        <mxCell id="4PH2qwDJ6IYh9CamzKsP-157" value="Apply Changes to Attributes &#39;Name&#39;;&lt;br&gt;Limits &#39;Max&#39;, &#39;Min&#39;, &#39;Start_Date&#39;, &#39;End_Date&#39;" style="html=1;verticalAlign=bottom;endArrow=block;curved=0;rounded=0;strokeColor=#457B9D;fontColor=#1D3557;fillColor=#A8DADC;" edge="1" parent="1">
          <mxGeometry width="80" relative="1" as="geometry">
            <mxPoint x="2080" y="7161" as="sourcePoint" />
            <mxPoint x="1800" y="7161" as="targetPoint" />
            <mxPoint as="offset" />
          </mxGeometry>
        </mxCell>
        <mxCell id="4PH2qwDJ6IYh9CamzKsP-158" value="Send Transaction Result" style="html=1;verticalAlign=bottom;endArrow=block;curved=0;rounded=0;strokeColor=#457B9D;fontColor=#1D3557;fillColor=#A8DADC;" edge="1" parent="1">
          <mxGeometry width="80" relative="1" as="geometry">
            <mxPoint x="2080" y="7201" as="sourcePoint" />
            <mxPoint x="680" y="7199" as="targetPoint" />
            <mxPoint as="offset" />
          </mxGeometry>
        </mxCell>
        <mxCell id="4PH2qwDJ6IYh9CamzKsP-161" value="Create Triggers" style="html=1;verticalAlign=bottom;endArrow=block;curved=0;rounded=0;strokeColor=#457B9D;fontColor=#1D3557;fillColor=#A8DADC;" edge="1" parent="1">
          <mxGeometry width="80" relative="1" as="geometry">
            <mxPoint x="2080" y="7391" as="sourcePoint" />
            <mxPoint x="1800" y="7391" as="targetPoint" />
            <mxPoint as="offset" />
          </mxGeometry>
        </mxCell>
        <mxCell id="4PH2qwDJ6IYh9CamzKsP-162" value="Add Triggers for Added Limits" style="html=1;verticalAlign=bottom;endArrow=block;curved=0;rounded=0;strokeColor=#457B9D;fontColor=#1D3557;fillColor=#A8DADC;" edge="1" parent="1">
          <mxGeometry width="80" relative="1" as="geometry">
            <mxPoint x="680" y="7341" as="sourcePoint" />
            <mxPoint x="2082" y="7341" as="targetPoint" />
            <mxPoint as="offset" />
          </mxGeometry>
        </mxCell>
        <mxCell id="4PH2qwDJ6IYh9CamzKsP-163" value="Send Transaction Result" style="html=1;verticalAlign=bottom;endArrow=block;curved=0;rounded=0;strokeColor=#457B9D;fontColor=#1D3557;fillColor=#A8DADC;" edge="1" parent="1">
          <mxGeometry width="80" relative="1" as="geometry">
            <mxPoint x="2080" y="7431" as="sourcePoint" />
            <mxPoint x="680" y="7431" as="targetPoint" />
            <mxPoint as="offset" />
          </mxGeometry>
        </mxCell>
        <mxCell id="4PH2qwDJ6IYh9CamzKsP-168" value="Delete Triggers" style="html=1;verticalAlign=bottom;endArrow=block;curved=0;rounded=0;strokeColor=#457B9D;fontColor=#1D3557;fillColor=#A8DADC;" edge="1" parent="1">
          <mxGeometry width="80" relative="1" as="geometry">
            <mxPoint x="2080" y="7621" as="sourcePoint" />
            <mxPoint x="1800" y="7621" as="targetPoint" />
            <mxPoint as="offset" />
          </mxGeometry>
        </mxCell>
        <mxCell id="4PH2qwDJ6IYh9CamzKsP-169" value="Delete Triggers for Removed Limits" style="html=1;verticalAlign=bottom;endArrow=block;curved=0;rounded=0;strokeColor=#457B9D;fontColor=#1D3557;fillColor=#A8DADC;" edge="1" parent="1">
          <mxGeometry width="80" relative="1" as="geometry">
            <mxPoint x="680" y="7571" as="sourcePoint" />
            <mxPoint x="2080" y="7571" as="targetPoint" />
            <mxPoint as="offset" />
          </mxGeometry>
        </mxCell>
        <mxCell id="4PH2qwDJ6IYh9CamzKsP-170" value="Send Transaction Result" style="html=1;verticalAlign=bottom;endArrow=block;curved=0;rounded=0;strokeColor=#457B9D;fontColor=#1D3557;fillColor=#A8DADC;" edge="1" parent="1">
          <mxGeometry width="80" relative="1" as="geometry">
            <mxPoint x="2080" y="7661" as="sourcePoint" />
            <mxPoint x="680" y="7661" as="targetPoint" />
            <mxPoint as="offset" />
          </mxGeometry>
        </mxCell>
        <mxCell id="4PH2qwDJ6IYh9CamzKsP-175" value="Update Triggers" style="html=1;verticalAlign=bottom;endArrow=block;curved=0;rounded=0;strokeColor=#457B9D;fontColor=#1D3557;fillColor=#A8DADC;" edge="1" parent="1">
          <mxGeometry width="80" relative="1" as="geometry">
            <mxPoint x="2080" y="7841" as="sourcePoint" />
            <mxPoint x="1800" y="7841" as="targetPoint" />
            <mxPoint as="offset" />
          </mxGeometry>
        </mxCell>
        <mxCell id="4PH2qwDJ6IYh9CamzKsP-176" value="Update Triggers for Changed Limits" style="html=1;verticalAlign=bottom;endArrow=block;curved=0;rounded=0;strokeColor=#457B9D;fontColor=#1D3557;fillColor=#A8DADC;" edge="1" parent="1">
          <mxGeometry width="80" relative="1" as="geometry">
            <mxPoint x="680" y="7791" as="sourcePoint" />
            <mxPoint x="2080" y="7791" as="targetPoint" />
            <mxPoint as="offset" />
          </mxGeometry>
        </mxCell>
        <mxCell id="4PH2qwDJ6IYh9CamzKsP-177" value="Send Transaction Result" style="html=1;verticalAlign=bottom;endArrow=block;curved=0;rounded=0;strokeColor=#457B9D;fontColor=#1D3557;fillColor=#A8DADC;" edge="1" parent="1">
          <mxGeometry width="80" relative="1" as="geometry">
            <mxPoint x="2080" y="7881" as="sourcePoint" />
            <mxPoint x="680" y="7881" as="targetPoint" />
            <mxPoint as="offset" />
          </mxGeometry>
        </mxCell>
        <mxCell id="4PH2qwDJ6IYh9CamzKsP-185" value="" style="html=1;verticalAlign=bottom;endArrow=block;curved=0;rounded=0;strokeColor=#457B9D;fontColor=#1D3557;fillColor=#A8DADC;" edge="1" parent="1" target="4PH2qwDJ6IYh9CamzKsP-184">
          <mxGeometry width="80" relative="1" as="geometry">
            <mxPoint x="120" y="200" as="sourcePoint" />
            <mxPoint x="400" y="200" as="targetPoint" />
          </mxGeometry>
        </mxCell>
        <mxCell id="4PH2qwDJ6IYh9CamzKsP-184" value="" style="html=1;points=[[0,0,0,0,5],[0,1,0,0,-5],[1,0,0,0,5],[1,1,0,0,-5]];perimeter=orthogonalPerimeter;outlineConnect=0;targetShapes=umlLifeline;portConstraint=eastwest;newEdgeStyle={&quot;curved&quot;:0,&quot;rounded&quot;:0};strokeColor=#457B9D;fontColor=#1D3557;fillColor=#A8DADC;" vertex="1" parent="1">
          <mxGeometry x="115" y="169" width="10" height="34" as="geometry" />
        </mxCell>
        <mxCell id="4PH2qwDJ6IYh9CamzKsP-187" value="" style="endArrow=none;dashed=1;html=1;dashPattern=1 3;strokeWidth=2;rounded=0;strokeColor=#457B9D;fontColor=#1D3557;fillColor=#A8DADC;entryX=0.571;entryY=1.033;entryDx=0;entryDy=0;entryPerimeter=0;" edge="1" parent="1" source="4PH2qwDJ6IYh9CamzKsP-194" target="4PH2qwDJ6IYh9CamzKsP-186">
          <mxGeometry width="50" height="50" relative="1" as="geometry">
            <mxPoint x="400" y="7041" as="sourcePoint" />
            <mxPoint x="400" y="142" as="targetPoint" />
          </mxGeometry>
        </mxCell>
        <mxCell id="4PH2qwDJ6IYh9CamzKsP-186" value="" style="html=1;points=[[0,0,0,0,5],[0,1,0,0,-5],[1,0,0,0,5],[1,1,0,0,-5]];perimeter=orthogonalPerimeter;outlineConnect=0;targetShapes=umlLifeline;portConstraint=eastwest;newEdgeStyle={&quot;curved&quot;:0,&quot;rounded&quot;:0};strokeColor=#457B9D;fontColor=#1D3557;fillColor=#A8DADC;" vertex="1" parent="1">
          <mxGeometry x="395" y="200" width="10" height="39" as="geometry" />
        </mxCell>
        <mxCell id="4PH2qwDJ6IYh9CamzKsP-189" value="" style="endArrow=none;dashed=1;html=1;dashPattern=1 3;strokeWidth=2;rounded=0;strokeColor=#457B9D;fontColor=#1D3557;fillColor=#A8DADC;entryX=0.483;entryY=1.029;entryDx=0;entryDy=0;entryPerimeter=0;" edge="1" parent="1" source="4PH2qwDJ6IYh9CamzKsP-192" target="4PH2qwDJ6IYh9CamzKsP-188">
          <mxGeometry width="50" height="50" relative="1" as="geometry">
            <mxPoint x="679" y="7040" as="sourcePoint" />
            <mxPoint x="679" y="142" as="targetPoint" />
          </mxGeometry>
        </mxCell>
        <mxCell id="4PH2qwDJ6IYh9CamzKsP-188" value="" style="html=1;points=[[0,0,0,0,5],[0,1,0,0,-5],[1,0,0,0,5],[1,1,0,0,-5]];perimeter=orthogonalPerimeter;outlineConnect=0;targetShapes=umlLifeline;portConstraint=eastwest;newEdgeStyle={&quot;curved&quot;:0,&quot;rounded&quot;:0};strokeColor=#457B9D;fontColor=#1D3557;fillColor=#A8DADC;" vertex="1" parent="1">
          <mxGeometry x="675" y="239" width="10" height="39" as="geometry" />
        </mxCell>
        <mxCell id="4PH2qwDJ6IYh9CamzKsP-191" value="" style="endArrow=none;dashed=1;html=1;dashPattern=1 3;strokeWidth=2;rounded=0;strokeColor=#457B9D;fontColor=#1D3557;fillColor=#A8DADC;entryX=0.5;entryY=1;entryDx=0;entryDy=0;" edge="1" parent="1" target="4PH2qwDJ6IYh9CamzKsP-190">
          <mxGeometry width="50" height="50" relative="1" as="geometry">
            <mxPoint x="960" y="7041" as="sourcePoint" />
            <mxPoint x="960" y="140" as="targetPoint" />
          </mxGeometry>
        </mxCell>
        <mxCell id="4PH2qwDJ6IYh9CamzKsP-190" value="" style="html=1;points=[[0,0,0,0,5],[0,1,0,0,-5],[1,0,0,0,5],[1,1,0,0,-5]];perimeter=orthogonalPerimeter;outlineConnect=0;targetShapes=umlLifeline;portConstraint=eastwest;newEdgeStyle={&quot;curved&quot;:0,&quot;rounded&quot;:0};strokeColor=#457B9D;fontColor=#1D3557;fillColor=#A8DADC;" vertex="1" parent="1">
          <mxGeometry x="955" y="319" width="10" height="77" as="geometry" />
        </mxCell>
        <mxCell id="4PH2qwDJ6IYh9CamzKsP-27" value="Form &#39;Department&#39; List for Current User" style="html=1;verticalAlign=bottom;endArrow=block;curved=0;rounded=0;strokeColor=#457B9D;fontColor=#1D3557;fillColor=#A8DADC;" edge="1" parent="1">
          <mxGeometry width="80" relative="1" as="geometry">
            <mxPoint x="960" y="320" as="sourcePoint" />
            <mxPoint x="960" y="400" as="targetPoint" />
            <Array as="points">
              <mxPoint x="1040" y="320" />
              <mxPoint x="1040" y="400" />
            </Array>
          </mxGeometry>
        </mxCell>
        <mxCell id="4PH2qwDJ6IYh9CamzKsP-193" value="" style="endArrow=none;dashed=1;html=1;dashPattern=1 3;strokeWidth=2;rounded=0;strokeColor=#457B9D;fontColor=#1D3557;fillColor=#A8DADC;entryX=0.483;entryY=1.029;entryDx=0;entryDy=0;entryPerimeter=0;" edge="1" parent="1" source="4PH2qwDJ6IYh9CamzKsP-200" target="4PH2qwDJ6IYh9CamzKsP-192">
          <mxGeometry width="50" height="50" relative="1" as="geometry">
            <mxPoint x="679" y="7040" as="sourcePoint" />
            <mxPoint x="680" y="279" as="targetPoint" />
          </mxGeometry>
        </mxCell>
        <mxCell id="4PH2qwDJ6IYh9CamzKsP-192" value="" style="html=1;points=[[0,0,0,0,5],[0,1,0,0,-5],[1,0,0,0,5],[1,1,0,0,-5]];perimeter=orthogonalPerimeter;outlineConnect=0;targetShapes=umlLifeline;portConstraint=eastwest;newEdgeStyle={&quot;curved&quot;:0,&quot;rounded&quot;:0};strokeColor=#457B9D;fontColor=#1D3557;fillColor=#A8DADC;" vertex="1" parent="1">
          <mxGeometry x="675" y="442" width="10" height="39" as="geometry" />
        </mxCell>
        <mxCell id="4PH2qwDJ6IYh9CamzKsP-195" value="" style="endArrow=none;dashed=1;html=1;dashPattern=1 3;strokeWidth=2;rounded=0;strokeColor=#457B9D;fontColor=#1D3557;fillColor=#A8DADC;entryX=0.571;entryY=1.033;entryDx=0;entryDy=0;entryPerimeter=0;" edge="1" parent="1" source="4PH2qwDJ6IYh9CamzKsP-198" target="4PH2qwDJ6IYh9CamzKsP-194">
          <mxGeometry width="50" height="50" relative="1" as="geometry">
            <mxPoint x="400" y="7041" as="sourcePoint" />
            <mxPoint x="401" y="240" as="targetPoint" />
          </mxGeometry>
        </mxCell>
        <mxCell id="4PH2qwDJ6IYh9CamzKsP-194" value="" style="html=1;points=[[0,0,0,0,5],[0,1,0,0,-5],[1,0,0,0,5],[1,1,0,0,-5]];perimeter=orthogonalPerimeter;outlineConnect=0;targetShapes=umlLifeline;portConstraint=eastwest;newEdgeStyle={&quot;curved&quot;:0,&quot;rounded&quot;:0};strokeColor=#457B9D;fontColor=#1D3557;fillColor=#A8DADC;" vertex="1" parent="1">
          <mxGeometry x="395" y="481" width="10" height="39" as="geometry" />
        </mxCell>
        <mxCell id="4PH2qwDJ6IYh9CamzKsP-197" value="" style="endArrow=none;dashed=1;html=1;dashPattern=1 3;strokeWidth=2;rounded=0;strokeColor=#457B9D;fontColor=#1D3557;fillColor=#A8DADC;entryX=0.5;entryY=0.5;entryDx=0;entryDy=0;entryPerimeter=0;" edge="1" parent="1" source="4PH2qwDJ6IYh9CamzKsP-207" target="4PH2qwDJ6IYh9CamzKsP-196">
          <mxGeometry width="50" height="50" relative="1" as="geometry">
            <mxPoint x="120" y="7040" as="sourcePoint" />
            <mxPoint x="120" y="110" as="targetPoint" />
          </mxGeometry>
        </mxCell>
        <mxCell id="4PH2qwDJ6IYh9CamzKsP-196" value="" style="html=1;points=[[0,0,0,0,5],[0,1,0,0,-5],[1,0,0,0,5],[1,1,0,0,-5]];perimeter=orthogonalPerimeter;outlineConnect=0;targetShapes=umlLifeline;portConstraint=eastwest;newEdgeStyle={&quot;curved&quot;:0,&quot;rounded&quot;:0};strokeColor=#457B9D;fontColor=#1D3557;fillColor=#A8DADC;" vertex="1" parent="1">
          <mxGeometry x="115" y="520" width="10" height="156" as="geometry" />
        </mxCell>
        <mxCell id="4PH2qwDJ6IYh9CamzKsP-199" value="" style="endArrow=none;dashed=1;html=1;dashPattern=1 3;strokeWidth=2;rounded=0;strokeColor=#457B9D;fontColor=#1D3557;fillColor=#A8DADC;entryX=0.571;entryY=1.033;entryDx=0;entryDy=0;entryPerimeter=0;" edge="1" parent="1" source="4PH2qwDJ6IYh9CamzKsP-205" target="4PH2qwDJ6IYh9CamzKsP-198">
          <mxGeometry width="50" height="50" relative="1" as="geometry">
            <mxPoint x="400" y="7041" as="sourcePoint" />
            <mxPoint x="401" y="521" as="targetPoint" />
          </mxGeometry>
        </mxCell>
        <mxCell id="4PH2qwDJ6IYh9CamzKsP-198" value="" style="html=1;points=[[0,0,0,0,5],[0,1,0,0,-5],[1,0,0,0,5],[1,1,0,0,-5]];perimeter=orthogonalPerimeter;outlineConnect=0;targetShapes=umlLifeline;portConstraint=eastwest;newEdgeStyle={&quot;curved&quot;:0,&quot;rounded&quot;:0};strokeColor=#457B9D;fontColor=#1D3557;fillColor=#A8DADC;" vertex="1" parent="1">
          <mxGeometry x="395" y="680" width="10" height="39" as="geometry" />
        </mxCell>
        <mxCell id="4PH2qwDJ6IYh9CamzKsP-201" value="" style="endArrow=none;dashed=1;html=1;dashPattern=1 3;strokeWidth=2;rounded=0;strokeColor=#457B9D;fontColor=#1D3557;fillColor=#A8DADC;entryX=0.483;entryY=1.029;entryDx=0;entryDy=0;entryPerimeter=0;" edge="1" parent="1" source="4PH2qwDJ6IYh9CamzKsP-203" target="4PH2qwDJ6IYh9CamzKsP-200">
          <mxGeometry width="50" height="50" relative="1" as="geometry">
            <mxPoint x="679" y="7040" as="sourcePoint" />
            <mxPoint x="680" y="482" as="targetPoint" />
          </mxGeometry>
        </mxCell>
        <mxCell id="4PH2qwDJ6IYh9CamzKsP-200" value="" style="html=1;points=[[0,0,0,0,5],[0,1,0,0,-5],[1,0,0,0,5],[1,1,0,0,-5]];perimeter=orthogonalPerimeter;outlineConnect=0;targetShapes=umlLifeline;portConstraint=eastwest;newEdgeStyle={&quot;curved&quot;:0,&quot;rounded&quot;:0};strokeColor=#457B9D;fontColor=#1D3557;fillColor=#A8DADC;" vertex="1" parent="1">
          <mxGeometry x="675" y="721" width="10" height="39" as="geometry" />
        </mxCell>
        <mxCell id="4PH2qwDJ6IYh9CamzKsP-202" value="" style="html=1;points=[[0,0,0,0,5],[0,1,0,0,-5],[1,0,0,0,5],[1,1,0,0,-5]];perimeter=orthogonalPerimeter;outlineConnect=0;targetShapes=umlLifeline;portConstraint=eastwest;newEdgeStyle={&quot;curved&quot;:0,&quot;rounded&quot;:0};strokeColor=#457B9D;fontColor=#1D3557;fillColor=#A8DADC;" vertex="1" parent="1">
          <mxGeometry x="1235" y="782" width="10" height="94" as="geometry" />
        </mxCell>
        <mxCell id="4PH2qwDJ6IYh9CamzKsP-37" value="Form &#39;Position&#39; List&amp;nbsp;with its &#39;Name&#39;,&lt;br&gt;&amp;nbsp;&#39;Count&#39; and &#39;Position_Attributes.Attribute_Name&#39;&lt;br&gt;(if Position have more than 5 Attributes&lt;br&gt;then Get first 5)" style="html=1;verticalAlign=bottom;endArrow=block;curved=0;rounded=0;strokeColor=#457B9D;fontColor=#1D3557;fillColor=#A8DADC;" edge="1" parent="1">
          <mxGeometry x="0.2308" width="80" relative="1" as="geometry">
            <mxPoint x="1240" y="780" as="sourcePoint" />
            <mxPoint x="1240" y="880" as="targetPoint" />
            <Array as="points">
              <mxPoint x="1320" y="780" />
              <mxPoint x="1320" y="880" />
            </Array>
            <mxPoint as="offset" />
          </mxGeometry>
        </mxCell>
        <mxCell id="4PH2qwDJ6IYh9CamzKsP-204" value="" style="endArrow=none;dashed=1;html=1;dashPattern=1 3;strokeWidth=2;rounded=0;strokeColor=#457B9D;fontColor=#1D3557;fillColor=#A8DADC;entryX=0.483;entryY=1.029;entryDx=0;entryDy=0;entryPerimeter=0;" edge="1" parent="1" source="4PH2qwDJ6IYh9CamzKsP-211" target="4PH2qwDJ6IYh9CamzKsP-203">
          <mxGeometry width="50" height="50" relative="1" as="geometry">
            <mxPoint x="679" y="7040" as="sourcePoint" />
            <mxPoint x="680" y="761" as="targetPoint" />
          </mxGeometry>
        </mxCell>
        <mxCell id="4PH2qwDJ6IYh9CamzKsP-203" value="" style="html=1;points=[[0,0,0,0,5],[0,1,0,0,-5],[1,0,0,0,5],[1,1,0,0,-5]];perimeter=orthogonalPerimeter;outlineConnect=0;targetShapes=umlLifeline;portConstraint=eastwest;newEdgeStyle={&quot;curved&quot;:0,&quot;rounded&quot;:0};strokeColor=#457B9D;fontColor=#1D3557;fillColor=#A8DADC;" vertex="1" parent="1">
          <mxGeometry x="675" y="920" width="10" height="39" as="geometry" />
        </mxCell>
        <mxCell id="4PH2qwDJ6IYh9CamzKsP-206" value="" style="endArrow=none;dashed=1;html=1;dashPattern=1 3;strokeWidth=2;rounded=0;strokeColor=#457B9D;fontColor=#1D3557;fillColor=#A8DADC;entryX=0.571;entryY=1.033;entryDx=0;entryDy=0;entryPerimeter=0;" edge="1" parent="1" source="4PH2qwDJ6IYh9CamzKsP-209" target="4PH2qwDJ6IYh9CamzKsP-205">
          <mxGeometry width="50" height="50" relative="1" as="geometry">
            <mxPoint x="400" y="7041" as="sourcePoint" />
            <mxPoint x="401" y="720" as="targetPoint" />
          </mxGeometry>
        </mxCell>
        <mxCell id="4PH2qwDJ6IYh9CamzKsP-205" value="" style="html=1;points=[[0,0,0,0,5],[0,1,0,0,-5],[1,0,0,0,5],[1,1,0,0,-5]];perimeter=orthogonalPerimeter;outlineConnect=0;targetShapes=umlLifeline;portConstraint=eastwest;newEdgeStyle={&quot;curved&quot;:0,&quot;rounded&quot;:0};strokeColor=#457B9D;fontColor=#1D3557;fillColor=#A8DADC;" vertex="1" parent="1">
          <mxGeometry x="397" y="962" width="10" height="39" as="geometry" />
        </mxCell>
        <mxCell id="4PH2qwDJ6IYh9CamzKsP-208" value="" style="endArrow=none;dashed=1;html=1;dashPattern=1 3;strokeWidth=2;rounded=0;strokeColor=#457B9D;fontColor=#1D3557;fillColor=#A8DADC;entryX=0.5;entryY=0.5;entryDx=0;entryDy=0;entryPerimeter=0;" edge="1" parent="1" source="4PH2qwDJ6IYh9CamzKsP-218" target="4PH2qwDJ6IYh9CamzKsP-207">
          <mxGeometry width="50" height="50" relative="1" as="geometry">
            <mxPoint x="120" y="7040" as="sourcePoint" />
            <mxPoint x="120" y="598" as="targetPoint" />
          </mxGeometry>
        </mxCell>
        <mxCell id="4PH2qwDJ6IYh9CamzKsP-207" value="" style="html=1;points=[[0,0,0,0,5],[0,1,0,0,-5],[1,0,0,0,5],[1,1,0,0,-5]];perimeter=orthogonalPerimeter;outlineConnect=0;targetShapes=umlLifeline;portConstraint=eastwest;newEdgeStyle={&quot;curved&quot;:0,&quot;rounded&quot;:0};strokeColor=#457B9D;fontColor=#1D3557;fillColor=#A8DADC;" vertex="1" parent="1">
          <mxGeometry x="117" y="1001" width="10" height="39" as="geometry" />
        </mxCell>
        <mxCell id="4PH2qwDJ6IYh9CamzKsP-210" value="" style="endArrow=none;dashed=1;html=1;dashPattern=1 3;strokeWidth=2;rounded=0;strokeColor=#457B9D;fontColor=#1D3557;fillColor=#A8DADC;entryX=0.571;entryY=1.033;entryDx=0;entryDy=0;entryPerimeter=0;" edge="1" parent="1" source="4PH2qwDJ6IYh9CamzKsP-216" target="4PH2qwDJ6IYh9CamzKsP-209">
          <mxGeometry width="50" height="50" relative="1" as="geometry">
            <mxPoint x="400" y="7041" as="sourcePoint" />
            <mxPoint x="403" y="1002" as="targetPoint" />
          </mxGeometry>
        </mxCell>
        <mxCell id="4PH2qwDJ6IYh9CamzKsP-209" value="" style="html=1;points=[[0,0,0,0,5],[0,1,0,0,-5],[1,0,0,0,5],[1,1,0,0,-5]];perimeter=orthogonalPerimeter;outlineConnect=0;targetShapes=umlLifeline;portConstraint=eastwest;newEdgeStyle={&quot;curved&quot;:0,&quot;rounded&quot;:0};strokeColor=#457B9D;fontColor=#1D3557;fillColor=#A8DADC;" vertex="1" parent="1">
          <mxGeometry x="397" y="1040" width="10" height="39" as="geometry" />
        </mxCell>
        <mxCell id="4PH2qwDJ6IYh9CamzKsP-212" value="" style="endArrow=none;dashed=1;html=1;dashPattern=1 3;strokeWidth=2;rounded=0;strokeColor=#457B9D;fontColor=#1D3557;fillColor=#A8DADC;entryX=0.483;entryY=1.029;entryDx=0;entryDy=0;entryPerimeter=0;" edge="1" parent="1" source="4PH2qwDJ6IYh9CamzKsP-214" target="4PH2qwDJ6IYh9CamzKsP-211">
          <mxGeometry width="50" height="50" relative="1" as="geometry">
            <mxPoint x="679" y="7040" as="sourcePoint" />
            <mxPoint x="680" y="960" as="targetPoint" />
          </mxGeometry>
        </mxCell>
        <mxCell id="4PH2qwDJ6IYh9CamzKsP-211" value="" style="html=1;points=[[0,0,0,0,5],[0,1,0,0,-5],[1,0,0,0,5],[1,1,0,0,-5]];perimeter=orthogonalPerimeter;outlineConnect=0;targetShapes=umlLifeline;portConstraint=eastwest;newEdgeStyle={&quot;curved&quot;:0,&quot;rounded&quot;:0};strokeColor=#457B9D;fontColor=#1D3557;fillColor=#A8DADC;" vertex="1" parent="1">
          <mxGeometry x="675" y="1081" width="10" height="39" as="geometry" />
        </mxCell>
        <mxCell id="4PH2qwDJ6IYh9CamzKsP-213" value="" style="html=1;points=[[0,0,0,0,5],[0,1,0,0,-5],[1,0,0,0,5],[1,1,0,0,-5]];perimeter=orthogonalPerimeter;outlineConnect=0;targetShapes=umlLifeline;portConstraint=eastwest;newEdgeStyle={&quot;curved&quot;:0,&quot;rounded&quot;:0};strokeColor=#457B9D;fontColor=#1D3557;fillColor=#A8DADC;" vertex="1" parent="1">
          <mxGeometry x="1235" y="1161" width="10" height="74" as="geometry" />
        </mxCell>
        <mxCell id="4PH2qwDJ6IYh9CamzKsP-44" value="Form &#39;Attribute&#39; List with &#39;Attribute_Name&#39;,&lt;br&gt;&amp;nbsp;&#39;Position_Attributes.Value&#39;&amp;nbsp;and &#39;Limits&#39; List with &#39;Max&#39;,&lt;br&gt;&amp;nbsp;&#39;Min&#39;, &#39;Start Date&#39;,&#39;End Date&#39; for selected &lt;br&gt;&#39;Position&#39; from selected &#39;Department&#39;" style="html=1;verticalAlign=bottom;endArrow=block;curved=0;rounded=0;strokeColor=#457B9D;fontColor=#1D3557;fillColor=#A8DADC;" edge="1" parent="1">
          <mxGeometry x="0.25" width="80" relative="1" as="geometry">
            <mxPoint x="1240" y="1160" as="sourcePoint" />
            <mxPoint x="1240" y="1240" as="targetPoint" />
            <Array as="points">
              <mxPoint x="1320" y="1160" />
              <mxPoint x="1320" y="1240" />
            </Array>
            <mxPoint as="offset" />
          </mxGeometry>
        </mxCell>
        <mxCell id="4PH2qwDJ6IYh9CamzKsP-215" value="" style="endArrow=none;dashed=1;html=1;dashPattern=1 3;strokeWidth=2;rounded=0;strokeColor=#457B9D;fontColor=#1D3557;fillColor=#A8DADC;entryX=0.483;entryY=1.029;entryDx=0;entryDy=0;entryPerimeter=0;" edge="1" parent="1" source="4PH2qwDJ6IYh9CamzKsP-222" target="4PH2qwDJ6IYh9CamzKsP-214">
          <mxGeometry width="50" height="50" relative="1" as="geometry">
            <mxPoint x="679" y="7040" as="sourcePoint" />
            <mxPoint x="680" y="1121" as="targetPoint" />
          </mxGeometry>
        </mxCell>
        <mxCell id="4PH2qwDJ6IYh9CamzKsP-214" value="" style="html=1;points=[[0,0,0,0,5],[0,1,0,0,-5],[1,0,0,0,5],[1,1,0,0,-5]];perimeter=orthogonalPerimeter;outlineConnect=0;targetShapes=umlLifeline;portConstraint=eastwest;newEdgeStyle={&quot;curved&quot;:0,&quot;rounded&quot;:0};strokeColor=#457B9D;fontColor=#1D3557;fillColor=#A8DADC;" vertex="1" parent="1">
          <mxGeometry x="675" y="1280" width="10" height="39" as="geometry" />
        </mxCell>
        <mxCell id="4PH2qwDJ6IYh9CamzKsP-217" value="" style="endArrow=none;dashed=1;html=1;dashPattern=1 3;strokeWidth=2;rounded=0;strokeColor=#457B9D;fontColor=#1D3557;fillColor=#A8DADC;entryX=0.571;entryY=1.033;entryDx=0;entryDy=0;entryPerimeter=0;" edge="1" parent="1" source="4PH2qwDJ6IYh9CamzKsP-220" target="4PH2qwDJ6IYh9CamzKsP-216">
          <mxGeometry width="50" height="50" relative="1" as="geometry">
            <mxPoint x="400" y="7041" as="sourcePoint" />
            <mxPoint x="403" y="1080" as="targetPoint" />
          </mxGeometry>
        </mxCell>
        <mxCell id="4PH2qwDJ6IYh9CamzKsP-216" value="" style="html=1;points=[[0,0,0,0,5],[0,1,0,0,-5],[1,0,0,0,5],[1,1,0,0,-5]];perimeter=orthogonalPerimeter;outlineConnect=0;targetShapes=umlLifeline;portConstraint=eastwest;newEdgeStyle={&quot;curved&quot;:0,&quot;rounded&quot;:0};strokeColor=#457B9D;fontColor=#1D3557;fillColor=#A8DADC;" vertex="1" parent="1">
          <mxGeometry x="397" y="1321" width="10" height="39" as="geometry" />
        </mxCell>
        <mxCell id="4PH2qwDJ6IYh9CamzKsP-219" value="" style="endArrow=none;dashed=1;html=1;dashPattern=1 3;strokeWidth=2;rounded=0;strokeColor=#457B9D;fontColor=#1D3557;fillColor=#A8DADC;entryX=0.5;entryY=0.5;entryDx=0;entryDy=0;entryPerimeter=0;" edge="1" parent="1" source="4PH2qwDJ6IYh9CamzKsP-230" target="4PH2qwDJ6IYh9CamzKsP-218">
          <mxGeometry width="50" height="50" relative="1" as="geometry">
            <mxPoint x="120" y="7040" as="sourcePoint" />
            <mxPoint x="122" y="1021" as="targetPoint" />
          </mxGeometry>
        </mxCell>
        <mxCell id="4PH2qwDJ6IYh9CamzKsP-218" value="" style="html=1;points=[[0,0,0,0,5],[0,1,0,0,-5],[1,0,0,0,5],[1,1,0,0,-5]];perimeter=orthogonalPerimeter;outlineConnect=0;targetShapes=umlLifeline;portConstraint=eastwest;newEdgeStyle={&quot;curved&quot;:0,&quot;rounded&quot;:0};strokeColor=#457B9D;fontColor=#1D3557;fillColor=#A8DADC;" vertex="1" parent="1">
          <mxGeometry x="117" y="1362" width="10" height="153" as="geometry" />
        </mxCell>
        <mxCell id="4PH2qwDJ6IYh9CamzKsP-221" value="" style="endArrow=none;dashed=1;html=1;dashPattern=1 3;strokeWidth=2;rounded=0;strokeColor=#457B9D;fontColor=#1D3557;fillColor=#A8DADC;entryX=0.571;entryY=1.033;entryDx=0;entryDy=0;entryPerimeter=0;" edge="1" parent="1" source="4PH2qwDJ6IYh9CamzKsP-228" target="4PH2qwDJ6IYh9CamzKsP-220">
          <mxGeometry width="50" height="50" relative="1" as="geometry">
            <mxPoint x="400" y="7041" as="sourcePoint" />
            <mxPoint x="403" y="1361" as="targetPoint" />
          </mxGeometry>
        </mxCell>
        <mxCell id="4PH2qwDJ6IYh9CamzKsP-220" value="" style="html=1;points=[[0,0,0,0,5],[0,1,0,0,-5],[1,0,0,0,5],[1,1,0,0,-5]];perimeter=orthogonalPerimeter;outlineConnect=0;targetShapes=umlLifeline;portConstraint=eastwest;newEdgeStyle={&quot;curved&quot;:0,&quot;rounded&quot;:0};strokeColor=#457B9D;fontColor=#1D3557;fillColor=#A8DADC;" vertex="1" parent="1">
          <mxGeometry x="397" y="1520" width="10" height="38" as="geometry" />
        </mxCell>
        <mxCell id="4PH2qwDJ6IYh9CamzKsP-223" value="" style="endArrow=none;dashed=1;html=1;dashPattern=1 3;strokeWidth=2;rounded=0;strokeColor=#457B9D;fontColor=#1D3557;fillColor=#A8DADC;entryX=0.483;entryY=1.029;entryDx=0;entryDy=0;entryPerimeter=0;" edge="1" parent="1" source="4PH2qwDJ6IYh9CamzKsP-226" target="4PH2qwDJ6IYh9CamzKsP-222">
          <mxGeometry width="50" height="50" relative="1" as="geometry">
            <mxPoint x="679" y="7040" as="sourcePoint" />
            <mxPoint x="680" y="1320" as="targetPoint" />
          </mxGeometry>
        </mxCell>
        <mxCell id="4PH2qwDJ6IYh9CamzKsP-222" value="" style="html=1;points=[[0,0,0,0,5],[0,1,0,0,-5],[1,0,0,0,5],[1,1,0,0,-5]];perimeter=orthogonalPerimeter;outlineConnect=0;targetShapes=umlLifeline;portConstraint=eastwest;newEdgeStyle={&quot;curved&quot;:0,&quot;rounded&quot;:0};strokeColor=#457B9D;fontColor=#1D3557;fillColor=#A8DADC;" vertex="1" parent="1">
          <mxGeometry x="675" y="1560" width="10" height="38" as="geometry" />
        </mxCell>
        <mxCell id="4PH2qwDJ6IYh9CamzKsP-225" value="" style="endArrow=none;dashed=1;html=1;dashPattern=1 3;strokeWidth=2;rounded=0;strokeColor=#457B9D;fontColor=#1D3557;fillColor=#A8DADC;entryX=0.5;entryY=1;entryDx=0;entryDy=0;" edge="1" parent="1" source="4PH2qwDJ6IYh9CamzKsP-261" target="4PH2qwDJ6IYh9CamzKsP-224">
          <mxGeometry width="50" height="50" relative="1" as="geometry">
            <mxPoint x="1800" y="7041" as="sourcePoint" />
            <mxPoint x="1800" y="140" as="targetPoint" />
          </mxGeometry>
        </mxCell>
        <mxCell id="4PH2qwDJ6IYh9CamzKsP-224" value="" style="html=1;points=[[0,0,0,0,5],[0,1,0,0,-5],[1,0,0,0,5],[1,1,0,0,-5]];perimeter=orthogonalPerimeter;outlineConnect=0;targetShapes=umlLifeline;portConstraint=eastwest;newEdgeStyle={&quot;curved&quot;:0,&quot;rounded&quot;:0};strokeColor=#457B9D;fontColor=#1D3557;fillColor=#A8DADC;" vertex="1" parent="1">
          <mxGeometry x="1797" y="1642" width="10" height="72" as="geometry" />
        </mxCell>
        <mxCell id="4PH2qwDJ6IYh9CamzKsP-227" value="" style="endArrow=none;dashed=1;html=1;dashPattern=1 3;strokeWidth=2;rounded=0;strokeColor=#457B9D;fontColor=#1D3557;fillColor=#A8DADC;entryX=0.483;entryY=1.029;entryDx=0;entryDy=0;entryPerimeter=0;" edge="1" parent="1" source="4PH2qwDJ6IYh9CamzKsP-234" target="4PH2qwDJ6IYh9CamzKsP-226">
          <mxGeometry width="50" height="50" relative="1" as="geometry">
            <mxPoint x="679" y="7040" as="sourcePoint" />
            <mxPoint x="680" y="1599" as="targetPoint" />
          </mxGeometry>
        </mxCell>
        <mxCell id="4PH2qwDJ6IYh9CamzKsP-226" value="" style="html=1;points=[[0,0,0,0,5],[0,1,0,0,-5],[1,0,0,0,5],[1,1,0,0,-5]];perimeter=orthogonalPerimeter;outlineConnect=0;targetShapes=umlLifeline;portConstraint=eastwest;newEdgeStyle={&quot;curved&quot;:0,&quot;rounded&quot;:0};strokeColor=#457B9D;fontColor=#1D3557;fillColor=#A8DADC;" vertex="1" parent="1">
          <mxGeometry x="673" y="1761" width="10" height="40" as="geometry" />
        </mxCell>
        <mxCell id="4PH2qwDJ6IYh9CamzKsP-229" value="" style="endArrow=none;dashed=1;html=1;dashPattern=1 3;strokeWidth=2;rounded=0;strokeColor=#457B9D;fontColor=#1D3557;fillColor=#A8DADC;entryX=0.571;entryY=1.033;entryDx=0;entryDy=0;entryPerimeter=0;" edge="1" parent="1" source="4PH2qwDJ6IYh9CamzKsP-232" target="4PH2qwDJ6IYh9CamzKsP-228">
          <mxGeometry width="50" height="50" relative="1" as="geometry">
            <mxPoint x="400" y="7041" as="sourcePoint" />
            <mxPoint x="403" y="1559" as="targetPoint" />
          </mxGeometry>
        </mxCell>
        <mxCell id="4PH2qwDJ6IYh9CamzKsP-228" value="" style="html=1;points=[[0,0,0,0,5],[0,1,0,0,-5],[1,0,0,0,5],[1,1,0,0,-5]];perimeter=orthogonalPerimeter;outlineConnect=0;targetShapes=umlLifeline;portConstraint=eastwest;newEdgeStyle={&quot;curved&quot;:0,&quot;rounded&quot;:0};strokeColor=#457B9D;fontColor=#1D3557;fillColor=#A8DADC;" vertex="1" parent="1">
          <mxGeometry x="397" y="1801" width="10" height="40" as="geometry" />
        </mxCell>
        <mxCell id="4PH2qwDJ6IYh9CamzKsP-231" value="" style="endArrow=none;dashed=1;html=1;dashPattern=1 3;strokeWidth=2;rounded=0;strokeColor=#457B9D;fontColor=#1D3557;fillColor=#A8DADC;entryX=0.5;entryY=0.5;entryDx=0;entryDy=0;entryPerimeter=0;" edge="1" parent="1" source="4PH2qwDJ6IYh9CamzKsP-244" target="4PH2qwDJ6IYh9CamzKsP-230">
          <mxGeometry width="50" height="50" relative="1" as="geometry">
            <mxPoint x="120" y="7040" as="sourcePoint" />
            <mxPoint x="122" y="1439" as="targetPoint" />
          </mxGeometry>
        </mxCell>
        <mxCell id="4PH2qwDJ6IYh9CamzKsP-230" value="" style="html=1;points=[[0,0,0,0,5],[0,1,0,0,-5],[1,0,0,0,5],[1,1,0,0,-5]];perimeter=orthogonalPerimeter;outlineConnect=0;targetShapes=umlLifeline;portConstraint=eastwest;newEdgeStyle={&quot;curved&quot;:0,&quot;rounded&quot;:0};strokeColor=#457B9D;fontColor=#1D3557;fillColor=#A8DADC;" vertex="1" parent="1">
          <mxGeometry x="117" y="1841" width="10" height="40" as="geometry" />
        </mxCell>
        <mxCell id="4PH2qwDJ6IYh9CamzKsP-233" value="" style="endArrow=none;dashed=1;html=1;dashPattern=1 3;strokeWidth=2;rounded=0;strokeColor=#457B9D;fontColor=#1D3557;fillColor=#A8DADC;entryX=0.571;entryY=1.033;entryDx=0;entryDy=0;entryPerimeter=0;" edge="1" parent="1" source="4PH2qwDJ6IYh9CamzKsP-242" target="4PH2qwDJ6IYh9CamzKsP-232">
          <mxGeometry width="50" height="50" relative="1" as="geometry">
            <mxPoint x="400" y="7041" as="sourcePoint" />
            <mxPoint x="403" y="1842" as="targetPoint" />
          </mxGeometry>
        </mxCell>
        <mxCell id="4PH2qwDJ6IYh9CamzKsP-232" value="" style="html=1;points=[[0,0,0,0,5],[0,1,0,0,-5],[1,0,0,0,5],[1,1,0,0,-5]];perimeter=orthogonalPerimeter;outlineConnect=0;targetShapes=umlLifeline;portConstraint=eastwest;newEdgeStyle={&quot;curved&quot;:0,&quot;rounded&quot;:0};strokeColor=#457B9D;fontColor=#1D3557;fillColor=#A8DADC;" vertex="1" parent="1">
          <mxGeometry x="397" y="1879" width="10" height="40" as="geometry" />
        </mxCell>
        <mxCell id="4PH2qwDJ6IYh9CamzKsP-235" value="" style="endArrow=none;dashed=1;html=1;dashPattern=1 3;strokeWidth=2;rounded=0;strokeColor=#457B9D;fontColor=#1D3557;fillColor=#A8DADC;entryX=0.483;entryY=1.029;entryDx=0;entryDy=0;entryPerimeter=0;" edge="1" parent="1" source="4PH2qwDJ6IYh9CamzKsP-240" target="4PH2qwDJ6IYh9CamzKsP-234">
          <mxGeometry width="50" height="50" relative="1" as="geometry">
            <mxPoint x="679" y="7040" as="sourcePoint" />
            <mxPoint x="678" y="1802" as="targetPoint" />
          </mxGeometry>
        </mxCell>
        <mxCell id="4PH2qwDJ6IYh9CamzKsP-234" value="" style="html=1;points=[[0,0,0,0,5],[0,1,0,0,-5],[1,0,0,0,5],[1,1,0,0,-5]];perimeter=orthogonalPerimeter;outlineConnect=0;targetShapes=umlLifeline;portConstraint=eastwest;newEdgeStyle={&quot;curved&quot;:0,&quot;rounded&quot;:0};strokeColor=#457B9D;fontColor=#1D3557;fillColor=#A8DADC;" vertex="1" parent="1">
          <mxGeometry x="673" y="1919" width="10" height="40" as="geometry" />
        </mxCell>
        <mxCell id="4PH2qwDJ6IYh9CamzKsP-237" value="" style="endArrow=none;dashed=1;html=1;dashPattern=1 3;strokeWidth=2;rounded=0;strokeColor=#457B9D;fontColor=#1D3557;fillColor=#A8DADC;entryX=0.5;entryY=1;entryDx=0;entryDy=0;" edge="1" parent="1" source="4PH2qwDJ6IYh9CamzKsP-238" target="4PH2qwDJ6IYh9CamzKsP-236">
          <mxGeometry width="50" height="50" relative="1" as="geometry">
            <mxPoint x="1240" y="7040" as="sourcePoint" />
            <mxPoint x="1240" y="140" as="targetPoint" />
          </mxGeometry>
        </mxCell>
        <mxCell id="4PH2qwDJ6IYh9CamzKsP-236" value="" style="html=1;points=[[0,0,0,0,5],[0,1,0,0,-5],[1,0,0,0,5],[1,1,0,0,-5]];perimeter=orthogonalPerimeter;outlineConnect=0;targetShapes=umlLifeline;portConstraint=eastwest;newEdgeStyle={&quot;curved&quot;:0,&quot;rounded&quot;:0};strokeColor=#457B9D;fontColor=#1D3557;fillColor=#A8DADC;" vertex="1" parent="1">
          <mxGeometry x="1235" y="2000" width="10" height="77" as="geometry" />
        </mxCell>
        <mxCell id="4PH2qwDJ6IYh9CamzKsP-239" value="" style="endArrow=none;dashed=1;html=1;dashPattern=1 3;strokeWidth=2;rounded=0;strokeColor=#457B9D;fontColor=#1D3557;fillColor=#A8DADC;entryX=0.5;entryY=1;entryDx=0;entryDy=0;" edge="1" parent="1" source="4PH2qwDJ6IYh9CamzKsP-250" target="4PH2qwDJ6IYh9CamzKsP-238">
          <mxGeometry width="50" height="50" relative="1" as="geometry">
            <mxPoint x="1240" y="7040" as="sourcePoint" />
            <mxPoint x="1240" y="2077" as="targetPoint" />
          </mxGeometry>
        </mxCell>
        <mxCell id="4PH2qwDJ6IYh9CamzKsP-238" value="" style="html=1;points=[[0,0,0,0,5],[0,1,0,0,-5],[1,0,0,0,5],[1,1,0,0,-5]];perimeter=orthogonalPerimeter;outlineConnect=0;targetShapes=umlLifeline;portConstraint=eastwest;newEdgeStyle={&quot;curved&quot;:0,&quot;rounded&quot;:0};strokeColor=#457B9D;fontColor=#1D3557;fillColor=#A8DADC;" vertex="1" parent="1">
          <mxGeometry x="1235" y="2120" width="10" height="77" as="geometry" />
        </mxCell>
        <mxCell id="4PH2qwDJ6IYh9CamzKsP-241" value="" style="endArrow=none;dashed=1;html=1;dashPattern=1 3;strokeWidth=2;rounded=0;strokeColor=#457B9D;fontColor=#1D3557;fillColor=#A8DADC;entryX=0.483;entryY=1.029;entryDx=0;entryDy=0;entryPerimeter=0;" edge="1" parent="1" source="4PH2qwDJ6IYh9CamzKsP-248" target="4PH2qwDJ6IYh9CamzKsP-240">
          <mxGeometry width="50" height="50" relative="1" as="geometry">
            <mxPoint x="679" y="7040" as="sourcePoint" />
            <mxPoint x="678" y="1960" as="targetPoint" />
          </mxGeometry>
        </mxCell>
        <mxCell id="4PH2qwDJ6IYh9CamzKsP-240" value="" style="html=1;points=[[0,0,0,0,5],[0,1,0,0,-5],[1,0,0,0,5],[1,1,0,0,-5]];perimeter=orthogonalPerimeter;outlineConnect=0;targetShapes=umlLifeline;portConstraint=eastwest;newEdgeStyle={&quot;curved&quot;:0,&quot;rounded&quot;:0};strokeColor=#457B9D;fontColor=#1D3557;fillColor=#A8DADC;" vertex="1" parent="1">
          <mxGeometry x="673" y="2242" width="10" height="34" as="geometry" />
        </mxCell>
        <mxCell id="4PH2qwDJ6IYh9CamzKsP-243" value="" style="endArrow=none;dashed=1;html=1;dashPattern=1 3;strokeWidth=2;rounded=0;strokeColor=#457B9D;fontColor=#1D3557;fillColor=#A8DADC;entryX=0.571;entryY=1.033;entryDx=0;entryDy=0;entryPerimeter=0;" edge="1" parent="1" source="4PH2qwDJ6IYh9CamzKsP-246" target="4PH2qwDJ6IYh9CamzKsP-242">
          <mxGeometry width="50" height="50" relative="1" as="geometry">
            <mxPoint x="400" y="7041" as="sourcePoint" />
            <mxPoint x="403" y="1920" as="targetPoint" />
          </mxGeometry>
        </mxCell>
        <mxCell id="4PH2qwDJ6IYh9CamzKsP-242" value="" style="html=1;points=[[0,0,0,0,5],[0,1,0,0,-5],[1,0,0,0,5],[1,1,0,0,-5]];perimeter=orthogonalPerimeter;outlineConnect=0;targetShapes=umlLifeline;portConstraint=eastwest;newEdgeStyle={&quot;curved&quot;:0,&quot;rounded&quot;:0};strokeColor=#457B9D;fontColor=#1D3557;fillColor=#A8DADC;" vertex="1" parent="1">
          <mxGeometry x="397" y="2283" width="10" height="34" as="geometry" />
        </mxCell>
        <mxCell id="4PH2qwDJ6IYh9CamzKsP-245" value="" style="endArrow=none;dashed=1;html=1;dashPattern=1 3;strokeWidth=2;rounded=0;strokeColor=#457B9D;fontColor=#1D3557;fillColor=#A8DADC;entryX=0.5;entryY=0.5;entryDx=0;entryDy=0;entryPerimeter=0;" edge="1" parent="1" source="4PH2qwDJ6IYh9CamzKsP-256" target="4PH2qwDJ6IYh9CamzKsP-244">
          <mxGeometry width="50" height="50" relative="1" as="geometry">
            <mxPoint x="120" y="7040" as="sourcePoint" />
            <mxPoint x="122" y="1861" as="targetPoint" />
          </mxGeometry>
        </mxCell>
        <mxCell id="4PH2qwDJ6IYh9CamzKsP-244" value="" style="html=1;points=[[0,0,0,0,5],[0,1,0,0,-5],[1,0,0,0,5],[1,1,0,0,-5]];perimeter=orthogonalPerimeter;outlineConnect=0;targetShapes=umlLifeline;portConstraint=eastwest;newEdgeStyle={&quot;curved&quot;:0,&quot;rounded&quot;:0};strokeColor=#457B9D;fontColor=#1D3557;fillColor=#A8DADC;" vertex="1" parent="1">
          <mxGeometry x="117" y="2324" width="10" height="34" as="geometry" />
        </mxCell>
        <mxCell id="4PH2qwDJ6IYh9CamzKsP-247" value="" style="endArrow=none;dashed=1;html=1;dashPattern=1 3;strokeWidth=2;rounded=0;strokeColor=#457B9D;fontColor=#1D3557;fillColor=#A8DADC;entryX=0.571;entryY=1.033;entryDx=0;entryDy=0;entryPerimeter=0;" edge="1" parent="1" source="4PH2qwDJ6IYh9CamzKsP-254" target="4PH2qwDJ6IYh9CamzKsP-246">
          <mxGeometry width="50" height="50" relative="1" as="geometry">
            <mxPoint x="400" y="7041" as="sourcePoint" />
            <mxPoint x="403" y="2318" as="targetPoint" />
          </mxGeometry>
        </mxCell>
        <mxCell id="4PH2qwDJ6IYh9CamzKsP-246" value="" style="html=1;points=[[0,0,0,0,5],[0,1,0,0,-5],[1,0,0,0,5],[1,1,0,0,-5]];perimeter=orthogonalPerimeter;outlineConnect=0;targetShapes=umlLifeline;portConstraint=eastwest;newEdgeStyle={&quot;curved&quot;:0,&quot;rounded&quot;:0};strokeColor=#457B9D;fontColor=#1D3557;fillColor=#A8DADC;" vertex="1" parent="1">
          <mxGeometry x="397" y="2362" width="10" height="34" as="geometry" />
        </mxCell>
        <mxCell id="4PH2qwDJ6IYh9CamzKsP-249" value="" style="endArrow=none;dashed=1;html=1;dashPattern=1 3;strokeWidth=2;rounded=0;strokeColor=#457B9D;fontColor=#1D3557;fillColor=#A8DADC;entryX=0.483;entryY=1.029;entryDx=0;entryDy=0;entryPerimeter=0;" edge="1" parent="1" source="4PH2qwDJ6IYh9CamzKsP-252" target="4PH2qwDJ6IYh9CamzKsP-248">
          <mxGeometry width="50" height="50" relative="1" as="geometry">
            <mxPoint x="679" y="7040" as="sourcePoint" />
            <mxPoint x="678" y="2277" as="targetPoint" />
          </mxGeometry>
        </mxCell>
        <mxCell id="4PH2qwDJ6IYh9CamzKsP-248" value="" style="html=1;points=[[0,0,0,0,5],[0,1,0,0,-5],[1,0,0,0,5],[1,1,0,0,-5]];perimeter=orthogonalPerimeter;outlineConnect=0;targetShapes=umlLifeline;portConstraint=eastwest;newEdgeStyle={&quot;curved&quot;:0,&quot;rounded&quot;:0};strokeColor=#457B9D;fontColor=#1D3557;fillColor=#A8DADC;" vertex="1" parent="1">
          <mxGeometry x="673" y="2403" width="10" height="34" as="geometry" />
        </mxCell>
        <mxCell id="4PH2qwDJ6IYh9CamzKsP-251" value="" style="endArrow=none;dashed=1;html=1;dashPattern=1 3;strokeWidth=2;rounded=0;strokeColor=#457B9D;fontColor=#1D3557;fillColor=#A8DADC;entryX=0.5;entryY=1;entryDx=0;entryDy=0;" edge="1" parent="1" source="4PH2qwDJ6IYh9CamzKsP-307" target="4PH2qwDJ6IYh9CamzKsP-250">
          <mxGeometry width="50" height="50" relative="1" as="geometry">
            <mxPoint x="1240" y="7040" as="sourcePoint" />
            <mxPoint x="1240" y="2197" as="targetPoint" />
          </mxGeometry>
        </mxCell>
        <mxCell id="4PH2qwDJ6IYh9CamzKsP-250" value="" style="html=1;points=[[0,0,0,0,5],[0,1,0,0,-5],[1,0,0,0,5],[1,1,0,0,-5]];perimeter=orthogonalPerimeter;outlineConnect=0;targetShapes=umlLifeline;portConstraint=eastwest;newEdgeStyle={&quot;curved&quot;:0,&quot;rounded&quot;:0};strokeColor=#457B9D;fontColor=#1D3557;fillColor=#A8DADC;" vertex="1" parent="1">
          <mxGeometry x="1237" y="2481" width="10" height="75" as="geometry" />
        </mxCell>
        <mxCell id="4PH2qwDJ6IYh9CamzKsP-74" value="Complete &#39;Attribute&#39; List with&amp;nbsp;and&lt;br&gt;Form &#39;Limits&#39; List with &#39;Max&#39;,&lt;br&gt;&amp;nbsp;&#39;Min&#39;, &#39;Start Date&#39;,&#39;End Date&#39; for selected &lt;br&gt;&#39;Position&#39; from selected &#39;Department&#39;" style="html=1;verticalAlign=bottom;endArrow=block;curved=0;rounded=0;strokeColor=#457B9D;fontColor=#1D3557;fillColor=#A8DADC;" edge="1" parent="1">
          <mxGeometry x="0.25" width="80" relative="1" as="geometry">
            <mxPoint x="1240" y="2480" as="sourcePoint" />
            <mxPoint x="1240" y="2560" as="targetPoint" />
            <Array as="points">
              <mxPoint x="1320" y="2480" />
              <mxPoint x="1320" y="2560" />
            </Array>
            <mxPoint as="offset" />
          </mxGeometry>
        </mxCell>
        <mxCell id="4PH2qwDJ6IYh9CamzKsP-253" value="" style="endArrow=none;dashed=1;html=1;dashPattern=1 3;strokeWidth=2;rounded=0;strokeColor=#457B9D;fontColor=#1D3557;fillColor=#A8DADC;entryX=0.483;entryY=1.029;entryDx=0;entryDy=0;entryPerimeter=0;" edge="1" parent="1" source="4PH2qwDJ6IYh9CamzKsP-259" target="4PH2qwDJ6IYh9CamzKsP-252">
          <mxGeometry width="50" height="50" relative="1" as="geometry">
            <mxPoint x="679" y="7040" as="sourcePoint" />
            <mxPoint x="678" y="2438" as="targetPoint" />
          </mxGeometry>
        </mxCell>
        <mxCell id="4PH2qwDJ6IYh9CamzKsP-252" value="" style="html=1;points=[[0,0,0,0,5],[0,1,0,0,-5],[1,0,0,0,5],[1,1,0,0,-5]];perimeter=orthogonalPerimeter;outlineConnect=0;targetShapes=umlLifeline;portConstraint=eastwest;newEdgeStyle={&quot;curved&quot;:0,&quot;rounded&quot;:0};strokeColor=#457B9D;fontColor=#1D3557;fillColor=#A8DADC;" vertex="1" parent="1">
          <mxGeometry x="673" y="2602" width="10" height="34" as="geometry" />
        </mxCell>
        <mxCell id="4PH2qwDJ6IYh9CamzKsP-255" value="" style="endArrow=none;dashed=1;html=1;dashPattern=1 3;strokeWidth=2;rounded=0;strokeColor=#457B9D;fontColor=#1D3557;fillColor=#A8DADC;entryX=0.571;entryY=1.033;entryDx=0;entryDy=0;entryPerimeter=0;" edge="1" parent="1" source="4PH2qwDJ6IYh9CamzKsP-265" target="4PH2qwDJ6IYh9CamzKsP-254">
          <mxGeometry width="50" height="50" relative="1" as="geometry">
            <mxPoint x="400" y="7041" as="sourcePoint" />
            <mxPoint x="403" y="2397" as="targetPoint" />
          </mxGeometry>
        </mxCell>
        <mxCell id="4PH2qwDJ6IYh9CamzKsP-254" value="" style="html=1;points=[[0,0,0,0,5],[0,1,0,0,-5],[1,0,0,0,5],[1,1,0,0,-5]];perimeter=orthogonalPerimeter;outlineConnect=0;targetShapes=umlLifeline;portConstraint=eastwest;newEdgeStyle={&quot;curved&quot;:0,&quot;rounded&quot;:0};strokeColor=#457B9D;fontColor=#1D3557;fillColor=#A8DADC;" vertex="1" parent="1">
          <mxGeometry x="397" y="2642" width="10" height="54" as="geometry" />
        </mxCell>
        <mxCell id="4PH2qwDJ6IYh9CamzKsP-257" value="" style="endArrow=none;dashed=1;html=1;dashPattern=1 3;strokeWidth=2;rounded=0;strokeColor=#457B9D;fontColor=#1D3557;fillColor=#A8DADC;entryX=0.5;entryY=0.5;entryDx=0;entryDy=0;entryPerimeter=0;" edge="1" parent="1" source="4PH2qwDJ6IYh9CamzKsP-267" target="4PH2qwDJ6IYh9CamzKsP-256">
          <mxGeometry width="50" height="50" relative="1" as="geometry">
            <mxPoint x="120" y="7040" as="sourcePoint" />
            <mxPoint x="122" y="2341" as="targetPoint" />
          </mxGeometry>
        </mxCell>
        <mxCell id="4PH2qwDJ6IYh9CamzKsP-256" value="" style="html=1;points=[[0,0,0,0,5],[0,1,0,0,-5],[1,0,0,0,5],[1,1,0,0,-5]];perimeter=orthogonalPerimeter;outlineConnect=0;targetShapes=umlLifeline;portConstraint=eastwest;newEdgeStyle={&quot;curved&quot;:0,&quot;rounded&quot;:0};strokeColor=#457B9D;fontColor=#1D3557;fillColor=#A8DADC;" vertex="1" parent="1">
          <mxGeometry x="115" y="2701" width="10" height="134" as="geometry" />
        </mxCell>
        <mxCell id="4PH2qwDJ6IYh9CamzKsP-258" value="" style="html=1;points=[[0,0,0,0,5],[0,1,0,0,-5],[1,0,0,0,5],[1,1,0,0,-5]];perimeter=orthogonalPerimeter;outlineConnect=0;targetShapes=umlLifeline;portConstraint=eastwest;newEdgeStyle={&quot;curved&quot;:0,&quot;rounded&quot;:0};strokeColor=#457B9D;fontColor=#1D3557;fillColor=#A8DADC;" vertex="1" parent="1">
          <mxGeometry x="397" y="2838" width="10" height="44" as="geometry" />
        </mxCell>
        <mxCell id="4PH2qwDJ6IYh9CamzKsP-260" value="" style="endArrow=none;dashed=1;html=1;dashPattern=1 3;strokeWidth=2;rounded=0;strokeColor=#457B9D;fontColor=#1D3557;fillColor=#A8DADC;entryX=0.483;entryY=1.029;entryDx=0;entryDy=0;entryPerimeter=0;" edge="1" parent="1" source="4PH2qwDJ6IYh9CamzKsP-263" target="4PH2qwDJ6IYh9CamzKsP-259">
          <mxGeometry width="50" height="50" relative="1" as="geometry">
            <mxPoint x="679" y="7040" as="sourcePoint" />
            <mxPoint x="678" y="2637" as="targetPoint" />
          </mxGeometry>
        </mxCell>
        <mxCell id="4PH2qwDJ6IYh9CamzKsP-259" value="" style="html=1;points=[[0,0,0,0,5],[0,1,0,0,-5],[1,0,0,0,5],[1,1,0,0,-5]];perimeter=orthogonalPerimeter;outlineConnect=0;targetShapes=umlLifeline;portConstraint=eastwest;newEdgeStyle={&quot;curved&quot;:0,&quot;rounded&quot;:0};strokeColor=#457B9D;fontColor=#1D3557;fillColor=#A8DADC;" vertex="1" parent="1">
          <mxGeometry x="675" y="2879" width="10" height="44" as="geometry" />
        </mxCell>
        <mxCell id="4PH2qwDJ6IYh9CamzKsP-262" value="" style="endArrow=none;dashed=1;html=1;dashPattern=1 3;strokeWidth=2;rounded=0;strokeColor=#457B9D;fontColor=#1D3557;fillColor=#A8DADC;entryX=0.5;entryY=1;entryDx=0;entryDy=0;" edge="1" parent="1" source="4PH2qwDJ6IYh9CamzKsP-273" target="4PH2qwDJ6IYh9CamzKsP-261">
          <mxGeometry width="50" height="50" relative="1" as="geometry">
            <mxPoint x="1800" y="7041" as="sourcePoint" />
            <mxPoint x="1802" y="1714" as="targetPoint" />
          </mxGeometry>
        </mxCell>
        <mxCell id="4PH2qwDJ6IYh9CamzKsP-261" value="" style="html=1;points=[[0,0,0,0,5],[0,1,0,0,-5],[1,0,0,0,5],[1,1,0,0,-5]];perimeter=orthogonalPerimeter;outlineConnect=0;targetShapes=umlLifeline;portConstraint=eastwest;newEdgeStyle={&quot;curved&quot;:0,&quot;rounded&quot;:0};strokeColor=#457B9D;fontColor=#1D3557;fillColor=#A8DADC;" vertex="1" parent="1">
          <mxGeometry x="1795" y="2962" width="10" height="75" as="geometry" />
        </mxCell>
        <mxCell id="4PH2qwDJ6IYh9CamzKsP-264" value="" style="endArrow=none;dashed=1;html=1;dashPattern=1 3;strokeWidth=2;rounded=0;strokeColor=#457B9D;fontColor=#1D3557;fillColor=#A8DADC;entryX=0.483;entryY=1.029;entryDx=0;entryDy=0;entryPerimeter=0;" edge="1" parent="1" source="4PH2qwDJ6IYh9CamzKsP-271" target="4PH2qwDJ6IYh9CamzKsP-263">
          <mxGeometry width="50" height="50" relative="1" as="geometry">
            <mxPoint x="679" y="7040" as="sourcePoint" />
            <mxPoint x="680" y="2924" as="targetPoint" />
          </mxGeometry>
        </mxCell>
        <mxCell id="4PH2qwDJ6IYh9CamzKsP-263" value="" style="html=1;points=[[0,0,0,0,5],[0,1,0,0,-5],[1,0,0,0,5],[1,1,0,0,-5]];perimeter=orthogonalPerimeter;outlineConnect=0;targetShapes=umlLifeline;portConstraint=eastwest;newEdgeStyle={&quot;curved&quot;:0,&quot;rounded&quot;:0};strokeColor=#457B9D;fontColor=#1D3557;fillColor=#A8DADC;" vertex="1" parent="1">
          <mxGeometry x="675" y="3081" width="10" height="36" as="geometry" />
        </mxCell>
        <mxCell id="4PH2qwDJ6IYh9CamzKsP-266" value="" style="endArrow=none;dashed=1;html=1;dashPattern=1 3;strokeWidth=2;rounded=0;strokeColor=#457B9D;fontColor=#1D3557;fillColor=#A8DADC;entryX=0.571;entryY=1.033;entryDx=0;entryDy=0;entryPerimeter=0;" edge="1" parent="1" source="4PH2qwDJ6IYh9CamzKsP-269" target="4PH2qwDJ6IYh9CamzKsP-265">
          <mxGeometry width="50" height="50" relative="1" as="geometry">
            <mxPoint x="400" y="7041" as="sourcePoint" />
            <mxPoint x="403" y="2698" as="targetPoint" />
          </mxGeometry>
        </mxCell>
        <mxCell id="4PH2qwDJ6IYh9CamzKsP-265" value="" style="html=1;points=[[0,0,0,0,5],[0,1,0,0,-5],[1,0,0,0,5],[1,1,0,0,-5]];perimeter=orthogonalPerimeter;outlineConnect=0;targetShapes=umlLifeline;portConstraint=eastwest;newEdgeStyle={&quot;curved&quot;:0,&quot;rounded&quot;:0};strokeColor=#457B9D;fontColor=#1D3557;fillColor=#A8DADC;" vertex="1" parent="1">
          <mxGeometry x="397" y="3122" width="10" height="36" as="geometry" />
        </mxCell>
        <mxCell id="4PH2qwDJ6IYh9CamzKsP-268" value="" style="endArrow=none;dashed=1;html=1;dashPattern=1 3;strokeWidth=2;rounded=0;strokeColor=#457B9D;fontColor=#1D3557;fillColor=#A8DADC;entryX=0.5;entryY=0.5;entryDx=0;entryDy=0;entryPerimeter=0;" edge="1" parent="1" source="4PH2qwDJ6IYh9CamzKsP-279" target="4PH2qwDJ6IYh9CamzKsP-267">
          <mxGeometry width="50" height="50" relative="1" as="geometry">
            <mxPoint x="120" y="7040" as="sourcePoint" />
            <mxPoint x="120" y="2768" as="targetPoint" />
          </mxGeometry>
        </mxCell>
        <mxCell id="4PH2qwDJ6IYh9CamzKsP-267" value="" style="html=1;points=[[0,0,0,0,5],[0,1,0,0,-5],[1,0,0,0,5],[1,1,0,0,-5]];perimeter=orthogonalPerimeter;outlineConnect=0;targetShapes=umlLifeline;portConstraint=eastwest;newEdgeStyle={&quot;curved&quot;:0,&quot;rounded&quot;:0};strokeColor=#457B9D;fontColor=#1D3557;fillColor=#A8DADC;" vertex="1" parent="1">
          <mxGeometry x="115" y="3162" width="10" height="36" as="geometry" />
        </mxCell>
        <mxCell id="4PH2qwDJ6IYh9CamzKsP-270" value="" style="endArrow=none;dashed=1;html=1;dashPattern=1 3;strokeWidth=2;rounded=0;strokeColor=#457B9D;fontColor=#1D3557;fillColor=#A8DADC;entryX=0.571;entryY=1.033;entryDx=0;entryDy=0;entryPerimeter=0;" edge="1" parent="1" source="4PH2qwDJ6IYh9CamzKsP-277" target="4PH2qwDJ6IYh9CamzKsP-269">
          <mxGeometry width="50" height="50" relative="1" as="geometry">
            <mxPoint x="400" y="7041" as="sourcePoint" />
            <mxPoint x="403" y="3159" as="targetPoint" />
          </mxGeometry>
        </mxCell>
        <mxCell id="4PH2qwDJ6IYh9CamzKsP-269" value="" style="html=1;points=[[0,0,0,0,5],[0,1,0,0,-5],[1,0,0,0,5],[1,1,0,0,-5]];perimeter=orthogonalPerimeter;outlineConnect=0;targetShapes=umlLifeline;portConstraint=eastwest;newEdgeStyle={&quot;curved&quot;:0,&quot;rounded&quot;:0};strokeColor=#457B9D;fontColor=#1D3557;fillColor=#A8DADC;" vertex="1" parent="1">
          <mxGeometry x="397" y="3201" width="10" height="37" as="geometry" />
        </mxCell>
        <mxCell id="4PH2qwDJ6IYh9CamzKsP-272" value="" style="endArrow=none;dashed=1;html=1;dashPattern=1 3;strokeWidth=2;rounded=0;strokeColor=#457B9D;fontColor=#1D3557;fillColor=#A8DADC;entryX=0.483;entryY=1.029;entryDx=0;entryDy=0;entryPerimeter=0;" edge="1" parent="1" source="4PH2qwDJ6IYh9CamzKsP-275" target="4PH2qwDJ6IYh9CamzKsP-271">
          <mxGeometry width="50" height="50" relative="1" as="geometry">
            <mxPoint x="679" y="7040" as="sourcePoint" />
            <mxPoint x="680" y="3118" as="targetPoint" />
          </mxGeometry>
        </mxCell>
        <mxCell id="4PH2qwDJ6IYh9CamzKsP-271" value="" style="html=1;points=[[0,0,0,0,5],[0,1,0,0,-5],[1,0,0,0,5],[1,1,0,0,-5]];perimeter=orthogonalPerimeter;outlineConnect=0;targetShapes=umlLifeline;portConstraint=eastwest;newEdgeStyle={&quot;curved&quot;:0,&quot;rounded&quot;:0};strokeColor=#457B9D;fontColor=#1D3557;fillColor=#A8DADC;" vertex="1" parent="1">
          <mxGeometry x="675" y="3241" width="10" height="37" as="geometry" />
        </mxCell>
        <mxCell id="4PH2qwDJ6IYh9CamzKsP-274" value="" style="endArrow=none;dashed=1;html=1;dashPattern=1 3;strokeWidth=2;rounded=0;strokeColor=#457B9D;fontColor=#1D3557;fillColor=#A8DADC;entryX=0.5;entryY=1;entryDx=0;entryDy=0;" edge="1" parent="1" source="4PH2qwDJ6IYh9CamzKsP-352" target="4PH2qwDJ6IYh9CamzKsP-273">
          <mxGeometry width="50" height="50" relative="1" as="geometry">
            <mxPoint x="1800" y="7041" as="sourcePoint" />
            <mxPoint x="1800" y="3037" as="targetPoint" />
          </mxGeometry>
        </mxCell>
        <mxCell id="4PH2qwDJ6IYh9CamzKsP-273" value="" style="html=1;points=[[0,0,0,0,5],[0,1,0,0,-5],[1,0,0,0,5],[1,1,0,0,-5]];perimeter=orthogonalPerimeter;outlineConnect=0;targetShapes=umlLifeline;portConstraint=eastwest;newEdgeStyle={&quot;curved&quot;:0,&quot;rounded&quot;:0};strokeColor=#457B9D;fontColor=#1D3557;fillColor=#A8DADC;" vertex="1" parent="1">
          <mxGeometry x="1795" y="3320" width="10" height="77" as="geometry" />
        </mxCell>
        <mxCell id="4PH2qwDJ6IYh9CamzKsP-276" value="" style="endArrow=none;dashed=1;html=1;dashPattern=1 3;strokeWidth=2;rounded=0;strokeColor=#457B9D;fontColor=#1D3557;fillColor=#A8DADC;entryX=0.483;entryY=1.029;entryDx=0;entryDy=0;entryPerimeter=0;" edge="1" parent="1" source="4PH2qwDJ6IYh9CamzKsP-286" target="4PH2qwDJ6IYh9CamzKsP-275">
          <mxGeometry width="50" height="50" relative="1" as="geometry">
            <mxPoint x="679" y="7040" as="sourcePoint" />
            <mxPoint x="680" y="3279" as="targetPoint" />
          </mxGeometry>
        </mxCell>
        <mxCell id="4PH2qwDJ6IYh9CamzKsP-275" value="" style="html=1;points=[[0,0,0,0,5],[0,1,0,0,-5],[1,0,0,0,5],[1,1,0,0,-5]];perimeter=orthogonalPerimeter;outlineConnect=0;targetShapes=umlLifeline;portConstraint=eastwest;newEdgeStyle={&quot;curved&quot;:0,&quot;rounded&quot;:0};strokeColor=#457B9D;fontColor=#1D3557;fillColor=#A8DADC;" vertex="1" parent="1">
          <mxGeometry x="675" y="3441" width="10" height="38" as="geometry" />
        </mxCell>
        <mxCell id="4PH2qwDJ6IYh9CamzKsP-278" value="" style="endArrow=none;dashed=1;html=1;dashPattern=1 3;strokeWidth=2;rounded=0;strokeColor=#457B9D;fontColor=#1D3557;fillColor=#A8DADC;entryX=0.571;entryY=1.033;entryDx=0;entryDy=0;entryPerimeter=0;" edge="1" parent="1" source="4PH2qwDJ6IYh9CamzKsP-281" target="4PH2qwDJ6IYh9CamzKsP-277">
          <mxGeometry width="50" height="50" relative="1" as="geometry">
            <mxPoint x="400" y="7041" as="sourcePoint" />
            <mxPoint x="403" y="3239" as="targetPoint" />
          </mxGeometry>
        </mxCell>
        <mxCell id="4PH2qwDJ6IYh9CamzKsP-277" value="" style="html=1;points=[[0,0,0,0,5],[0,1,0,0,-5],[1,0,0,0,5],[1,1,0,0,-5]];perimeter=orthogonalPerimeter;outlineConnect=0;targetShapes=umlLifeline;portConstraint=eastwest;newEdgeStyle={&quot;curved&quot;:0,&quot;rounded&quot;:0};strokeColor=#457B9D;fontColor=#1D3557;fillColor=#A8DADC;" vertex="1" parent="1">
          <mxGeometry x="397" y="3481" width="10" height="38" as="geometry" />
        </mxCell>
        <mxCell id="4PH2qwDJ6IYh9CamzKsP-280" value="" style="endArrow=none;dashed=1;html=1;dashPattern=1 3;strokeWidth=2;rounded=0;strokeColor=#457B9D;fontColor=#1D3557;fillColor=#A8DADC;entryX=0.5;entryY=0.5;entryDx=0;entryDy=0;entryPerimeter=0;" edge="1" parent="1" source="4PH2qwDJ6IYh9CamzKsP-288" target="4PH2qwDJ6IYh9CamzKsP-279">
          <mxGeometry width="50" height="50" relative="1" as="geometry">
            <mxPoint x="120" y="7040" as="sourcePoint" />
            <mxPoint x="120" y="3180" as="targetPoint" />
          </mxGeometry>
        </mxCell>
        <mxCell id="4PH2qwDJ6IYh9CamzKsP-279" value="" style="html=1;points=[[0,0,0,0,5],[0,1,0,0,-5],[1,0,0,0,5],[1,1,0,0,-5]];perimeter=orthogonalPerimeter;outlineConnect=0;targetShapes=umlLifeline;portConstraint=eastwest;newEdgeStyle={&quot;curved&quot;:0,&quot;rounded&quot;:0};strokeColor=#457B9D;fontColor=#1D3557;fillColor=#A8DADC;" vertex="1" parent="1">
          <mxGeometry x="115" y="3519" width="10" height="237" as="geometry" />
        </mxCell>
        <mxCell id="4PH2qwDJ6IYh9CamzKsP-282" value="" style="endArrow=none;dashed=1;html=1;dashPattern=1 3;strokeWidth=2;rounded=0;strokeColor=#457B9D;fontColor=#1D3557;fillColor=#A8DADC;entryX=0.571;entryY=1.033;entryDx=0;entryDy=0;entryPerimeter=0;" edge="1" parent="1" source="4PH2qwDJ6IYh9CamzKsP-284" target="4PH2qwDJ6IYh9CamzKsP-281">
          <mxGeometry width="50" height="50" relative="1" as="geometry">
            <mxPoint x="400" y="7041" as="sourcePoint" />
            <mxPoint x="403" y="3520" as="targetPoint" />
          </mxGeometry>
        </mxCell>
        <mxCell id="4PH2qwDJ6IYh9CamzKsP-281" value="" style="html=1;points=[[0,0,0,0,5],[0,1,0,0,-5],[1,0,0,0,5],[1,1,0,0,-5]];perimeter=orthogonalPerimeter;outlineConnect=0;targetShapes=umlLifeline;portConstraint=eastwest;newEdgeStyle={&quot;curved&quot;:0,&quot;rounded&quot;:0};strokeColor=#457B9D;fontColor=#1D3557;fillColor=#A8DADC;" vertex="1" parent="1">
          <mxGeometry x="397" y="3760" width="10" height="78" as="geometry" />
        </mxCell>
        <mxCell id="4PH2qwDJ6IYh9CamzKsP-283" value="" style="html=1;points=[[0,0,0,0,5],[0,1,0,0,-5],[1,0,0,0,5],[1,1,0,0,-5]];perimeter=orthogonalPerimeter;outlineConnect=0;targetShapes=umlLifeline;portConstraint=eastwest;newEdgeStyle={&quot;curved&quot;:0,&quot;rounded&quot;:0};strokeColor=#457B9D;fontColor=#1D3557;fillColor=#A8DADC;" vertex="1" parent="1">
          <mxGeometry x="117" y="3842" width="10" height="78" as="geometry" />
        </mxCell>
        <mxCell id="4PH2qwDJ6IYh9CamzKsP-285" value="" style="endArrow=none;dashed=1;html=1;dashPattern=1 3;strokeWidth=2;rounded=0;strokeColor=#457B9D;fontColor=#1D3557;fillColor=#A8DADC;entryX=0.571;entryY=1.033;entryDx=0;entryDy=0;entryPerimeter=0;" edge="1" parent="1" source="4PH2qwDJ6IYh9CamzKsP-290" target="4PH2qwDJ6IYh9CamzKsP-284">
          <mxGeometry width="50" height="50" relative="1" as="geometry">
            <mxPoint x="400" y="7041" as="sourcePoint" />
            <mxPoint x="403" y="3841" as="targetPoint" />
          </mxGeometry>
        </mxCell>
        <mxCell id="4PH2qwDJ6IYh9CamzKsP-284" value="" style="html=1;points=[[0,0,0,0,5],[0,1,0,0,-5],[1,0,0,0,5],[1,1,0,0,-5]];perimeter=orthogonalPerimeter;outlineConnect=0;targetShapes=umlLifeline;portConstraint=eastwest;newEdgeStyle={&quot;curved&quot;:0,&quot;rounded&quot;:0};strokeColor=#457B9D;fontColor=#1D3557;fillColor=#A8DADC;" vertex="1" parent="1">
          <mxGeometry x="397" y="3920" width="10" height="38" as="geometry" />
        </mxCell>
        <mxCell id="4PH2qwDJ6IYh9CamzKsP-287" value="" style="endArrow=none;dashed=1;html=1;dashPattern=1 3;strokeWidth=2;rounded=0;strokeColor=#457B9D;fontColor=#1D3557;fillColor=#A8DADC;entryX=0.483;entryY=1.029;entryDx=0;entryDy=0;entryPerimeter=0;" edge="1" parent="1" source="4PH2qwDJ6IYh9CamzKsP-295" target="4PH2qwDJ6IYh9CamzKsP-286">
          <mxGeometry width="50" height="50" relative="1" as="geometry">
            <mxPoint x="679" y="7040" as="sourcePoint" />
            <mxPoint x="680" y="3480" as="targetPoint" />
          </mxGeometry>
        </mxCell>
        <mxCell id="4PH2qwDJ6IYh9CamzKsP-286" value="" style="html=1;points=[[0,0,0,0,5],[0,1,0,0,-5],[1,0,0,0,5],[1,1,0,0,-5]];perimeter=orthogonalPerimeter;outlineConnect=0;targetShapes=umlLifeline;portConstraint=eastwest;newEdgeStyle={&quot;curved&quot;:0,&quot;rounded&quot;:0};strokeColor=#457B9D;fontColor=#1D3557;fillColor=#A8DADC;" vertex="1" parent="1">
          <mxGeometry x="673" y="4000" width="10" height="74" as="geometry" />
        </mxCell>
        <mxCell id="4PH2qwDJ6IYh9CamzKsP-289" value="" style="endArrow=none;dashed=1;html=1;dashPattern=1 3;strokeWidth=2;rounded=0;strokeColor=#457B9D;fontColor=#1D3557;fillColor=#A8DADC;entryX=0.5;entryY=0.5;entryDx=0;entryDy=0;entryPerimeter=0;" edge="1" parent="1" source="4PH2qwDJ6IYh9CamzKsP-292" target="4PH2qwDJ6IYh9CamzKsP-288">
          <mxGeometry width="50" height="50" relative="1" as="geometry">
            <mxPoint x="120" y="7040" as="sourcePoint" />
            <mxPoint x="120" y="3638" as="targetPoint" />
          </mxGeometry>
        </mxCell>
        <mxCell id="4PH2qwDJ6IYh9CamzKsP-288" value="" style="html=1;points=[[0,0,0,0,5],[0,1,0,0,-5],[1,0,0,0,5],[1,1,0,0,-5]];perimeter=orthogonalPerimeter;outlineConnect=0;targetShapes=umlLifeline;portConstraint=eastwest;newEdgeStyle={&quot;curved&quot;:0,&quot;rounded&quot;:0};strokeColor=#457B9D;fontColor=#1D3557;fillColor=#A8DADC;" vertex="1" parent="1">
          <mxGeometry x="115" y="4119" width="10" height="41" as="geometry" />
        </mxCell>
        <mxCell id="4PH2qwDJ6IYh9CamzKsP-291" value="" style="endArrow=none;dashed=1;html=1;dashPattern=1 3;strokeWidth=2;rounded=0;strokeColor=#457B9D;fontColor=#1D3557;fillColor=#A8DADC;entryX=0.571;entryY=1.033;entryDx=0;entryDy=0;entryPerimeter=0;" edge="1" parent="1" source="4PH2qwDJ6IYh9CamzKsP-297" target="4PH2qwDJ6IYh9CamzKsP-290">
          <mxGeometry width="50" height="50" relative="1" as="geometry">
            <mxPoint x="400" y="7041" as="sourcePoint" />
            <mxPoint x="403" y="3959" as="targetPoint" />
          </mxGeometry>
        </mxCell>
        <mxCell id="4PH2qwDJ6IYh9CamzKsP-290" value="" style="html=1;points=[[0,0,0,0,5],[0,1,0,0,-5],[1,0,0,0,5],[1,1,0,0,-5]];perimeter=orthogonalPerimeter;outlineConnect=0;targetShapes=umlLifeline;portConstraint=eastwest;newEdgeStyle={&quot;curved&quot;:0,&quot;rounded&quot;:0};strokeColor=#457B9D;fontColor=#1D3557;fillColor=#A8DADC;" vertex="1" parent="1">
          <mxGeometry x="397" y="4320" width="10" height="76" as="geometry" />
        </mxCell>
        <mxCell id="4PH2qwDJ6IYh9CamzKsP-293" value="" style="endArrow=none;dashed=1;html=1;dashPattern=1 3;strokeWidth=2;rounded=0;strokeColor=#457B9D;fontColor=#1D3557;fillColor=#A8DADC;entryX=0.5;entryY=0.5;entryDx=0;entryDy=0;entryPerimeter=0;" edge="1" parent="1" source="4PH2qwDJ6IYh9CamzKsP-299" target="4PH2qwDJ6IYh9CamzKsP-292">
          <mxGeometry width="50" height="50" relative="1" as="geometry">
            <mxPoint x="120" y="7040" as="sourcePoint" />
            <mxPoint x="120" y="4140" as="targetPoint" />
          </mxGeometry>
        </mxCell>
        <mxCell id="4PH2qwDJ6IYh9CamzKsP-292" value="" style="html=1;points=[[0,0,0,0,5],[0,1,0,0,-5],[1,0,0,0,5],[1,1,0,0,-5]];perimeter=orthogonalPerimeter;outlineConnect=0;targetShapes=umlLifeline;portConstraint=eastwest;newEdgeStyle={&quot;curved&quot;:0,&quot;rounded&quot;:0};strokeColor=#457B9D;fontColor=#1D3557;fillColor=#A8DADC;" vertex="1" parent="1">
          <mxGeometry x="117" y="4402" width="10" height="76" as="geometry" />
        </mxCell>
        <mxCell id="4PH2qwDJ6IYh9CamzKsP-294" value="" style="html=1;points=[[0,0,0,0,5],[0,1,0,0,-5],[1,0,0,0,5],[1,1,0,0,-5]];perimeter=orthogonalPerimeter;outlineConnect=0;targetShapes=umlLifeline;portConstraint=eastwest;newEdgeStyle={&quot;curved&quot;:0,&quot;rounded&quot;:0};strokeColor=#457B9D;fontColor=#1D3557;fillColor=#A8DADC;" vertex="1" parent="1">
          <mxGeometry x="395" y="4481" width="10" height="37" as="geometry" />
        </mxCell>
        <mxCell id="4PH2qwDJ6IYh9CamzKsP-296" value="" style="endArrow=none;dashed=1;html=1;dashPattern=1 3;strokeWidth=2;rounded=0;strokeColor=#457B9D;fontColor=#1D3557;fillColor=#A8DADC;entryX=0.483;entryY=1.029;entryDx=0;entryDy=0;entryPerimeter=0;" edge="1" parent="1" source="4PH2qwDJ6IYh9CamzKsP-303" target="4PH2qwDJ6IYh9CamzKsP-295">
          <mxGeometry width="50" height="50" relative="1" as="geometry">
            <mxPoint x="679" y="7040" as="sourcePoint" />
            <mxPoint x="678" y="4076" as="targetPoint" />
          </mxGeometry>
        </mxCell>
        <mxCell id="4PH2qwDJ6IYh9CamzKsP-295" value="" style="html=1;points=[[0,0,0,0,5],[0,1,0,0,-5],[1,0,0,0,5],[1,1,0,0,-5]];perimeter=orthogonalPerimeter;outlineConnect=0;targetShapes=umlLifeline;portConstraint=eastwest;newEdgeStyle={&quot;curved&quot;:0,&quot;rounded&quot;:0};strokeColor=#457B9D;fontColor=#1D3557;fillColor=#A8DADC;" vertex="1" parent="1">
          <mxGeometry x="673" y="4541" width="10" height="77" as="geometry" />
        </mxCell>
        <mxCell id="4PH2qwDJ6IYh9CamzKsP-298" value="" style="endArrow=none;dashed=1;html=1;dashPattern=1 3;strokeWidth=2;rounded=0;strokeColor=#457B9D;fontColor=#1D3557;fillColor=#A8DADC;entryX=0.571;entryY=1.033;entryDx=0;entryDy=0;entryPerimeter=0;" edge="1" parent="1" source="4PH2qwDJ6IYh9CamzKsP-301" target="4PH2qwDJ6IYh9CamzKsP-297">
          <mxGeometry width="50" height="50" relative="1" as="geometry">
            <mxPoint x="400" y="7041" as="sourcePoint" />
            <mxPoint x="403" y="4399" as="targetPoint" />
          </mxGeometry>
        </mxCell>
        <mxCell id="4PH2qwDJ6IYh9CamzKsP-297" value="" style="html=1;points=[[0,0,0,0,5],[0,1,0,0,-5],[1,0,0,0,5],[1,1,0,0,-5]];perimeter=orthogonalPerimeter;outlineConnect=0;targetShapes=umlLifeline;portConstraint=eastwest;newEdgeStyle={&quot;curved&quot;:0,&quot;rounded&quot;:0};strokeColor=#457B9D;fontColor=#1D3557;fillColor=#A8DADC;" vertex="1" parent="1">
          <mxGeometry x="397" y="4628" width="10" height="50" as="geometry" />
        </mxCell>
        <mxCell id="4PH2qwDJ6IYh9CamzKsP-300" value="" style="endArrow=none;dashed=1;html=1;dashPattern=1 3;strokeWidth=2;rounded=0;strokeColor=#457B9D;fontColor=#1D3557;fillColor=#A8DADC;entryX=0.5;entryY=0.5;entryDx=0;entryDy=0;entryPerimeter=0;" edge="1" parent="1" target="4PH2qwDJ6IYh9CamzKsP-299">
          <mxGeometry width="50" height="50" relative="1" as="geometry">
            <mxPoint x="120" y="8001" as="sourcePoint" />
            <mxPoint x="122" y="4440" as="targetPoint" />
          </mxGeometry>
        </mxCell>
        <mxCell id="4PH2qwDJ6IYh9CamzKsP-299" value="" style="html=1;points=[[0,0,0,0,5],[0,1,0,0,-5],[1,0,0,0,5],[1,1,0,0,-5]];perimeter=orthogonalPerimeter;outlineConnect=0;targetShapes=umlLifeline;portConstraint=eastwest;newEdgeStyle={&quot;curved&quot;:0,&quot;rounded&quot;:0};strokeColor=#457B9D;fontColor=#1D3557;fillColor=#A8DADC;" vertex="1" parent="1">
          <mxGeometry x="117" y="4681" width="10" height="38" as="geometry" />
        </mxCell>
        <mxCell id="4PH2qwDJ6IYh9CamzKsP-302" value="" style="endArrow=none;dashed=1;html=1;dashPattern=1 3;strokeWidth=2;rounded=0;strokeColor=#457B9D;fontColor=#1D3557;fillColor=#A8DADC;entryX=0.571;entryY=1.033;entryDx=0;entryDy=0;entryPerimeter=0;" edge="1" parent="1" target="4PH2qwDJ6IYh9CamzKsP-301">
          <mxGeometry width="50" height="50" relative="1" as="geometry">
            <mxPoint x="400" y="8002" as="sourcePoint" />
            <mxPoint x="403" y="5641" as="targetPoint" />
          </mxGeometry>
        </mxCell>
        <mxCell id="4PH2qwDJ6IYh9CamzKsP-301" value="" style="html=1;points=[[0,0,0,0,5],[0,1,0,0,-5],[1,0,0,0,5],[1,1,0,0,-5]];perimeter=orthogonalPerimeter;outlineConnect=0;targetShapes=umlLifeline;portConstraint=eastwest;newEdgeStyle={&quot;curved&quot;:0,&quot;rounded&quot;:0};strokeColor=#457B9D;fontColor=#1D3557;fillColor=#A8DADC;" vertex="1" parent="1">
          <mxGeometry x="397" y="5802" width="10" height="38" as="geometry" />
        </mxCell>
        <mxCell id="4PH2qwDJ6IYh9CamzKsP-304" value="" style="endArrow=none;dashed=1;html=1;dashPattern=1 3;strokeWidth=2;rounded=0;strokeColor=#457B9D;fontColor=#1D3557;fillColor=#A8DADC;entryX=0.483;entryY=1.029;entryDx=0;entryDy=0;entryPerimeter=0;" edge="1" parent="1" source="4PH2qwDJ6IYh9CamzKsP-311" target="4PH2qwDJ6IYh9CamzKsP-303">
          <mxGeometry width="50" height="50" relative="1" as="geometry">
            <mxPoint x="679" y="8001" as="sourcePoint" />
            <mxPoint x="678" y="5581" as="targetPoint" />
          </mxGeometry>
        </mxCell>
        <mxCell id="4PH2qwDJ6IYh9CamzKsP-303" value="" style="html=1;points=[[0,0,0,0,5],[0,1,0,0,-5],[1,0,0,0,5],[1,1,0,0,-5]];perimeter=orthogonalPerimeter;outlineConnect=0;targetShapes=umlLifeline;portConstraint=eastwest;newEdgeStyle={&quot;curved&quot;:0,&quot;rounded&quot;:0};strokeColor=#457B9D;fontColor=#1D3557;fillColor=#A8DADC;" vertex="1" parent="1">
          <mxGeometry x="675" y="5843" width="10" height="177" as="geometry" />
        </mxCell>
        <mxCell id="4PH2qwDJ6IYh9CamzKsP-306" value="" style="endArrow=none;dashed=1;html=1;dashPattern=1 3;strokeWidth=2;rounded=0;strokeColor=#457B9D;fontColor=#1D3557;fillColor=#A8DADC;entryX=0.488;entryY=0.99;entryDx=0;entryDy=0;entryPerimeter=0;" edge="1" parent="1" source="4PH2qwDJ6IYh9CamzKsP-309" target="4PH2qwDJ6IYh9CamzKsP-305">
          <mxGeometry width="50" height="50" relative="1" as="geometry">
            <mxPoint x="1519" y="8001" as="sourcePoint" />
            <mxPoint x="1519" y="1115" as="targetPoint" />
          </mxGeometry>
        </mxCell>
        <mxCell id="4PH2qwDJ6IYh9CamzKsP-305" value="" style="html=1;points=[[0,0,0,0,5],[0,1,0,0,-5],[1,0,0,0,5],[1,1,0,0,-5]];perimeter=orthogonalPerimeter;outlineConnect=0;targetShapes=umlLifeline;portConstraint=eastwest;newEdgeStyle={&quot;curved&quot;:0,&quot;rounded&quot;:0};strokeColor=#457B9D;fontColor=#1D3557;fillColor=#A8DADC;" vertex="1" parent="1">
          <mxGeometry x="1515" y="6023" width="10" height="55" as="geometry" />
        </mxCell>
        <mxCell id="4PH2qwDJ6IYh9CamzKsP-308" value="" style="endArrow=none;dashed=1;html=1;dashPattern=1 3;strokeWidth=2;rounded=0;strokeColor=#457B9D;fontColor=#1D3557;fillColor=#A8DADC;entryX=0.5;entryY=1;entryDx=0;entryDy=0;" edge="1" parent="1" source="4PH2qwDJ6IYh9CamzKsP-317" target="4PH2qwDJ6IYh9CamzKsP-307">
          <mxGeometry width="50" height="50" relative="1" as="geometry">
            <mxPoint x="1240" y="8001" as="sourcePoint" />
            <mxPoint x="1242" y="3517" as="targetPoint" />
          </mxGeometry>
        </mxCell>
        <mxCell id="4PH2qwDJ6IYh9CamzKsP-307" value="" style="html=1;points=[[0,0,0,0,5],[0,1,0,0,-5],[1,0,0,0,5],[1,1,0,0,-5]];perimeter=orthogonalPerimeter;outlineConnect=0;targetShapes=umlLifeline;portConstraint=eastwest;newEdgeStyle={&quot;curved&quot;:0,&quot;rounded&quot;:0};strokeColor=#457B9D;fontColor=#1D3557;fillColor=#A8DADC;" vertex="1" parent="1">
          <mxGeometry x="1235" y="6080" width="10" height="24" as="geometry" />
        </mxCell>
        <mxCell id="4PH2qwDJ6IYh9CamzKsP-310" value="" style="endArrow=none;dashed=1;html=1;dashPattern=1 3;strokeWidth=2;rounded=0;strokeColor=#457B9D;fontColor=#1D3557;fillColor=#A8DADC;entryX=0.488;entryY=0.99;entryDx=0;entryDy=0;entryPerimeter=0;" edge="1" parent="1" source="4PH2qwDJ6IYh9CamzKsP-315" target="4PH2qwDJ6IYh9CamzKsP-309">
          <mxGeometry width="50" height="50" relative="1" as="geometry">
            <mxPoint x="1519" y="8001" as="sourcePoint" />
            <mxPoint x="1520" y="6077" as="targetPoint" />
          </mxGeometry>
        </mxCell>
        <mxCell id="4PH2qwDJ6IYh9CamzKsP-309" value="" style="html=1;points=[[0,0,0,0,5],[0,1,0,0,-5],[1,0,0,0,5],[1,1,0,0,-5]];perimeter=orthogonalPerimeter;outlineConnect=0;targetShapes=umlLifeline;portConstraint=eastwest;newEdgeStyle={&quot;curved&quot;:0,&quot;rounded&quot;:0};strokeColor=#457B9D;fontColor=#1D3557;fillColor=#A8DADC;" vertex="1" parent="1">
          <mxGeometry x="1515" y="6098" width="10" height="24" as="geometry" />
        </mxCell>
        <mxCell id="4PH2qwDJ6IYh9CamzKsP-312" value="" style="endArrow=none;dashed=1;html=1;dashPattern=1 3;strokeWidth=2;rounded=0;strokeColor=#457B9D;fontColor=#1D3557;fillColor=#A8DADC;entryX=0.483;entryY=1.029;entryDx=0;entryDy=0;entryPerimeter=0;" edge="1" parent="1" source="4PH2qwDJ6IYh9CamzKsP-313" target="4PH2qwDJ6IYh9CamzKsP-311">
          <mxGeometry width="50" height="50" relative="1" as="geometry">
            <mxPoint x="679" y="8001" as="sourcePoint" />
            <mxPoint x="680" y="6025" as="targetPoint" />
          </mxGeometry>
        </mxCell>
        <mxCell id="4PH2qwDJ6IYh9CamzKsP-311" value="" style="html=1;points=[[0,0,0,0,5],[0,1,0,0,-5],[1,0,0,0,5],[1,1,0,0,-5]];perimeter=orthogonalPerimeter;outlineConnect=0;targetShapes=umlLifeline;portConstraint=eastwest;newEdgeStyle={&quot;curved&quot;:0,&quot;rounded&quot;:0};strokeColor=#457B9D;fontColor=#1D3557;fillColor=#A8DADC;" vertex="1" parent="1">
          <mxGeometry x="675" y="6122" width="10" height="19" as="geometry" />
        </mxCell>
        <mxCell id="4PH2qwDJ6IYh9CamzKsP-314" value="" style="endArrow=none;dashed=1;html=1;dashPattern=1 3;strokeWidth=2;rounded=0;strokeColor=#457B9D;fontColor=#1D3557;fillColor=#A8DADC;entryX=0.483;entryY=1.029;entryDx=0;entryDy=0;entryPerimeter=0;" edge="1" parent="1" source="4PH2qwDJ6IYh9CamzKsP-324" target="4PH2qwDJ6IYh9CamzKsP-313">
          <mxGeometry width="50" height="50" relative="1" as="geometry">
            <mxPoint x="679" y="8001" as="sourcePoint" />
            <mxPoint x="680" y="6142" as="targetPoint" />
          </mxGeometry>
        </mxCell>
        <mxCell id="4PH2qwDJ6IYh9CamzKsP-313" value="" style="html=1;points=[[0,0,0,0,5],[0,1,0,0,-5],[1,0,0,0,5],[1,1,0,0,-5]];perimeter=orthogonalPerimeter;outlineConnect=0;targetShapes=umlLifeline;portConstraint=eastwest;newEdgeStyle={&quot;curved&quot;:0,&quot;rounded&quot;:0};strokeColor=#457B9D;fontColor=#1D3557;fillColor=#A8DADC;" vertex="1" parent="1">
          <mxGeometry x="675" y="6211" width="10" height="39" as="geometry" />
        </mxCell>
        <mxCell id="4PH2qwDJ6IYh9CamzKsP-316" value="" style="endArrow=none;dashed=1;html=1;dashPattern=1 3;strokeWidth=2;rounded=0;strokeColor=#457B9D;fontColor=#1D3557;fillColor=#A8DADC;entryX=0.488;entryY=0.99;entryDx=0;entryDy=0;entryPerimeter=0;" edge="1" parent="1" source="4PH2qwDJ6IYh9CamzKsP-319" target="4PH2qwDJ6IYh9CamzKsP-315">
          <mxGeometry width="50" height="50" relative="1" as="geometry">
            <mxPoint x="1519" y="8001" as="sourcePoint" />
            <mxPoint x="1520" y="6122" as="targetPoint" />
          </mxGeometry>
        </mxCell>
        <mxCell id="4PH2qwDJ6IYh9CamzKsP-315" value="" style="html=1;points=[[0,0,0,0,5],[0,1,0,0,-5],[1,0,0,0,5],[1,1,0,0,-5]];perimeter=orthogonalPerimeter;outlineConnect=0;targetShapes=umlLifeline;portConstraint=eastwest;newEdgeStyle={&quot;curved&quot;:0,&quot;rounded&quot;:0};strokeColor=#457B9D;fontColor=#1D3557;fillColor=#A8DADC;" vertex="1" parent="1">
          <mxGeometry x="1515" y="6251.5" width="10" height="47.5" as="geometry" />
        </mxCell>
        <mxCell id="4PH2qwDJ6IYh9CamzKsP-318" value="" style="endArrow=none;dashed=1;html=1;dashPattern=1 3;strokeWidth=2;rounded=0;strokeColor=#457B9D;fontColor=#1D3557;fillColor=#A8DADC;entryX=0.5;entryY=1;entryDx=0;entryDy=0;" edge="1" parent="1" source="4PH2qwDJ6IYh9CamzKsP-330" target="4PH2qwDJ6IYh9CamzKsP-317">
          <mxGeometry width="50" height="50" relative="1" as="geometry">
            <mxPoint x="1240" y="8001" as="sourcePoint" />
            <mxPoint x="1240" y="6104" as="targetPoint" />
          </mxGeometry>
        </mxCell>
        <mxCell id="4PH2qwDJ6IYh9CamzKsP-317" value="" style="html=1;points=[[0,0,0,0,5],[0,1,0,0,-5],[1,0,0,0,5],[1,1,0,0,-5]];perimeter=orthogonalPerimeter;outlineConnect=0;targetShapes=umlLifeline;portConstraint=eastwest;newEdgeStyle={&quot;curved&quot;:0,&quot;rounded&quot;:0};strokeColor=#457B9D;fontColor=#1D3557;fillColor=#A8DADC;" vertex="1" parent="1">
          <mxGeometry x="1235" y="6299" width="10" height="21" as="geometry" />
        </mxCell>
        <mxCell id="4PH2qwDJ6IYh9CamzKsP-320" value="" style="endArrow=none;dashed=1;html=1;dashPattern=1 3;strokeWidth=2;rounded=0;strokeColor=#457B9D;fontColor=#1D3557;fillColor=#A8DADC;entryX=0.488;entryY=0.99;entryDx=0;entryDy=0;entryPerimeter=0;" edge="1" parent="1" source="4PH2qwDJ6IYh9CamzKsP-328" target="4PH2qwDJ6IYh9CamzKsP-319">
          <mxGeometry width="50" height="50" relative="1" as="geometry">
            <mxPoint x="1519" y="8001" as="sourcePoint" />
            <mxPoint x="1520" y="6299" as="targetPoint" />
          </mxGeometry>
        </mxCell>
        <mxCell id="4PH2qwDJ6IYh9CamzKsP-319" value="" style="html=1;points=[[0,0,0,0,5],[0,1,0,0,-5],[1,0,0,0,5],[1,1,0,0,-5]];perimeter=orthogonalPerimeter;outlineConnect=0;targetShapes=umlLifeline;portConstraint=eastwest;newEdgeStyle={&quot;curved&quot;:0,&quot;rounded&quot;:0};strokeColor=#457B9D;fontColor=#1D3557;fillColor=#A8DADC;" vertex="1" parent="1">
          <mxGeometry x="1515" y="6320" width="10" height="21" as="geometry" />
        </mxCell>
        <mxCell id="4PH2qwDJ6IYh9CamzKsP-325" value="" style="endArrow=none;dashed=1;html=1;dashPattern=1 3;strokeWidth=2;rounded=0;strokeColor=#457B9D;fontColor=#1D3557;fillColor=#A8DADC;entryX=0.483;entryY=1.029;entryDx=0;entryDy=0;entryPerimeter=0;" edge="1" parent="1" source="4PH2qwDJ6IYh9CamzKsP-326" target="4PH2qwDJ6IYh9CamzKsP-324">
          <mxGeometry width="50" height="50" relative="1" as="geometry">
            <mxPoint x="679" y="8001" as="sourcePoint" />
            <mxPoint x="680" y="6251" as="targetPoint" />
          </mxGeometry>
        </mxCell>
        <mxCell id="4PH2qwDJ6IYh9CamzKsP-324" value="" style="html=1;points=[[0,0,0,0,5],[0,1,0,0,-5],[1,0,0,0,5],[1,1,0,0,-5]];perimeter=orthogonalPerimeter;outlineConnect=0;targetShapes=umlLifeline;portConstraint=eastwest;newEdgeStyle={&quot;curved&quot;:0,&quot;rounded&quot;:0};strokeColor=#457B9D;fontColor=#1D3557;fillColor=#A8DADC;" vertex="1" parent="1">
          <mxGeometry x="673" y="6341" width="10" height="28" as="geometry" />
        </mxCell>
        <mxCell id="4PH2qwDJ6IYh9CamzKsP-327" value="" style="endArrow=none;dashed=1;html=1;dashPattern=1 3;strokeWidth=2;rounded=0;strokeColor=#457B9D;fontColor=#1D3557;fillColor=#A8DADC;entryX=0.483;entryY=1.029;entryDx=0;entryDy=0;entryPerimeter=0;" edge="1" parent="1" source="4PH2qwDJ6IYh9CamzKsP-334" target="4PH2qwDJ6IYh9CamzKsP-326">
          <mxGeometry width="50" height="50" relative="1" as="geometry">
            <mxPoint x="679" y="8001" as="sourcePoint" />
            <mxPoint x="678" y="6370" as="targetPoint" />
          </mxGeometry>
        </mxCell>
        <mxCell id="4PH2qwDJ6IYh9CamzKsP-326" value="" style="html=1;points=[[0,0,0,0,5],[0,1,0,0,-5],[1,0,0,0,5],[1,1,0,0,-5]];perimeter=orthogonalPerimeter;outlineConnect=0;targetShapes=umlLifeline;portConstraint=eastwest;newEdgeStyle={&quot;curved&quot;:0,&quot;rounded&quot;:0};strokeColor=#457B9D;fontColor=#1D3557;fillColor=#A8DADC;" vertex="1" parent="1">
          <mxGeometry x="673" y="6441" width="10" height="37" as="geometry" />
        </mxCell>
        <mxCell id="4PH2qwDJ6IYh9CamzKsP-329" value="" style="endArrow=none;dashed=1;html=1;dashPattern=1 3;strokeWidth=2;rounded=0;strokeColor=#457B9D;fontColor=#1D3557;fillColor=#A8DADC;entryX=0.488;entryY=0.99;entryDx=0;entryDy=0;entryPerimeter=0;" edge="1" parent="1" source="4PH2qwDJ6IYh9CamzKsP-332" target="4PH2qwDJ6IYh9CamzKsP-328">
          <mxGeometry width="50" height="50" relative="1" as="geometry">
            <mxPoint x="1519" y="8001" as="sourcePoint" />
            <mxPoint x="1520" y="6341" as="targetPoint" />
          </mxGeometry>
        </mxCell>
        <mxCell id="4PH2qwDJ6IYh9CamzKsP-328" value="" style="html=1;points=[[0,0,0,0,5],[0,1,0,0,-5],[1,0,0,0,5],[1,1,0,0,-5]];perimeter=orthogonalPerimeter;outlineConnect=0;targetShapes=umlLifeline;portConstraint=eastwest;newEdgeStyle={&quot;curved&quot;:0,&quot;rounded&quot;:0};strokeColor=#457B9D;fontColor=#1D3557;fillColor=#A8DADC;" vertex="1" parent="1">
          <mxGeometry x="1513" y="6482.5" width="10" height="47.5" as="geometry" />
        </mxCell>
        <mxCell id="4PH2qwDJ6IYh9CamzKsP-331" value="" style="endArrow=none;dashed=1;html=1;dashPattern=1 3;strokeWidth=2;rounded=0;strokeColor=#457B9D;fontColor=#1D3557;fillColor=#A8DADC;entryX=0.5;entryY=1;entryDx=0;entryDy=0;" edge="1" parent="1" source="4PH2qwDJ6IYh9CamzKsP-340" target="4PH2qwDJ6IYh9CamzKsP-330">
          <mxGeometry width="50" height="50" relative="1" as="geometry">
            <mxPoint x="1240" y="8001" as="sourcePoint" />
            <mxPoint x="1240" y="6320" as="targetPoint" />
          </mxGeometry>
        </mxCell>
        <mxCell id="4PH2qwDJ6IYh9CamzKsP-330" value="" style="html=1;points=[[0,0,0,0,5],[0,1,0,0,-5],[1,0,0,0,5],[1,1,0,0,-5]];perimeter=orthogonalPerimeter;outlineConnect=0;targetShapes=umlLifeline;portConstraint=eastwest;newEdgeStyle={&quot;curved&quot;:0,&quot;rounded&quot;:0};strokeColor=#457B9D;fontColor=#1D3557;fillColor=#A8DADC;" vertex="1" parent="1">
          <mxGeometry x="1235" y="6530" width="10" height="20" as="geometry" />
        </mxCell>
        <mxCell id="4PH2qwDJ6IYh9CamzKsP-333" value="" style="endArrow=none;dashed=1;html=1;dashPattern=1 3;strokeWidth=2;rounded=0;strokeColor=#457B9D;fontColor=#1D3557;fillColor=#A8DADC;entryX=0.488;entryY=0.99;entryDx=0;entryDy=0;entryPerimeter=0;" edge="1" parent="1" source="4PH2qwDJ6IYh9CamzKsP-338" target="4PH2qwDJ6IYh9CamzKsP-332">
          <mxGeometry width="50" height="50" relative="1" as="geometry">
            <mxPoint x="1519" y="8001" as="sourcePoint" />
            <mxPoint x="1518" y="6530" as="targetPoint" />
          </mxGeometry>
        </mxCell>
        <mxCell id="4PH2qwDJ6IYh9CamzKsP-332" value="" style="html=1;points=[[0,0,0,0,5],[0,1,0,0,-5],[1,0,0,0,5],[1,1,0,0,-5]];perimeter=orthogonalPerimeter;outlineConnect=0;targetShapes=umlLifeline;portConstraint=eastwest;newEdgeStyle={&quot;curved&quot;:0,&quot;rounded&quot;:0};strokeColor=#457B9D;fontColor=#1D3557;fillColor=#A8DADC;" vertex="1" parent="1">
          <mxGeometry x="1513" y="6550" width="10" height="20" as="geometry" />
        </mxCell>
        <mxCell id="4PH2qwDJ6IYh9CamzKsP-335" value="" style="endArrow=none;dashed=1;html=1;dashPattern=1 3;strokeWidth=2;rounded=0;strokeColor=#457B9D;fontColor=#1D3557;fillColor=#A8DADC;entryX=0.483;entryY=1.029;entryDx=0;entryDy=0;entryPerimeter=0;" edge="1" parent="1" source="4PH2qwDJ6IYh9CamzKsP-336" target="4PH2qwDJ6IYh9CamzKsP-334">
          <mxGeometry width="50" height="50" relative="1" as="geometry">
            <mxPoint x="679" y="8001" as="sourcePoint" />
            <mxPoint x="678" y="6479" as="targetPoint" />
          </mxGeometry>
        </mxCell>
        <mxCell id="4PH2qwDJ6IYh9CamzKsP-334" value="" style="html=1;points=[[0,0,0,0,5],[0,1,0,0,-5],[1,0,0,0,5],[1,1,0,0,-5]];perimeter=orthogonalPerimeter;outlineConnect=0;targetShapes=umlLifeline;portConstraint=eastwest;newEdgeStyle={&quot;curved&quot;:0,&quot;rounded&quot;:0};strokeColor=#457B9D;fontColor=#1D3557;fillColor=#A8DADC;" vertex="1" parent="1">
          <mxGeometry x="673" y="6570" width="10" height="29" as="geometry" />
        </mxCell>
        <mxCell id="4PH2qwDJ6IYh9CamzKsP-337" value="" style="endArrow=none;dashed=1;html=1;dashPattern=1 3;strokeWidth=2;rounded=0;strokeColor=#457B9D;fontColor=#1D3557;fillColor=#A8DADC;entryX=0.483;entryY=1.029;entryDx=0;entryDy=0;entryPerimeter=0;" edge="1" parent="1" source="4PH2qwDJ6IYh9CamzKsP-344" target="4PH2qwDJ6IYh9CamzKsP-336">
          <mxGeometry width="50" height="50" relative="1" as="geometry">
            <mxPoint x="679" y="8001" as="sourcePoint" />
            <mxPoint x="678" y="6600" as="targetPoint" />
          </mxGeometry>
        </mxCell>
        <mxCell id="4PH2qwDJ6IYh9CamzKsP-336" value="" style="html=1;points=[[0,0,0,0,5],[0,1,0,0,-5],[1,0,0,0,5],[1,1,0,0,-5]];perimeter=orthogonalPerimeter;outlineConnect=0;targetShapes=umlLifeline;portConstraint=eastwest;newEdgeStyle={&quot;curved&quot;:0,&quot;rounded&quot;:0};strokeColor=#457B9D;fontColor=#1D3557;fillColor=#A8DADC;" vertex="1" parent="1">
          <mxGeometry x="673" y="6661" width="10" height="39" as="geometry" />
        </mxCell>
        <mxCell id="4PH2qwDJ6IYh9CamzKsP-339" value="" style="endArrow=none;dashed=1;html=1;dashPattern=1 3;strokeWidth=2;rounded=0;strokeColor=#457B9D;fontColor=#1D3557;fillColor=#A8DADC;entryX=0.488;entryY=0.99;entryDx=0;entryDy=0;entryPerimeter=0;" edge="1" parent="1" source="4PH2qwDJ6IYh9CamzKsP-342" target="4PH2qwDJ6IYh9CamzKsP-338">
          <mxGeometry width="50" height="50" relative="1" as="geometry">
            <mxPoint x="1519" y="8001" as="sourcePoint" />
            <mxPoint x="1518" y="6570" as="targetPoint" />
          </mxGeometry>
        </mxCell>
        <mxCell id="4PH2qwDJ6IYh9CamzKsP-338" value="" style="html=1;points=[[0,0,0,0,5],[0,1,0,0,-5],[1,0,0,0,5],[1,1,0,0,-5]];perimeter=orthogonalPerimeter;outlineConnect=0;targetShapes=umlLifeline;portConstraint=eastwest;newEdgeStyle={&quot;curved&quot;:0,&quot;rounded&quot;:0};strokeColor=#457B9D;fontColor=#1D3557;fillColor=#A8DADC;" vertex="1" parent="1">
          <mxGeometry x="1513" y="6701.5" width="10" height="47.5" as="geometry" />
        </mxCell>
        <mxCell id="4PH2qwDJ6IYh9CamzKsP-341" value="" style="endArrow=none;dashed=1;html=1;dashPattern=1 3;strokeWidth=2;rounded=0;strokeColor=#457B9D;fontColor=#1D3557;fillColor=#A8DADC;entryX=0.5;entryY=1;entryDx=0;entryDy=0;" edge="1" parent="1" target="4PH2qwDJ6IYh9CamzKsP-340">
          <mxGeometry width="50" height="50" relative="1" as="geometry">
            <mxPoint x="1242" y="7205" as="sourcePoint" />
            <mxPoint x="1240" y="6550" as="targetPoint" />
          </mxGeometry>
        </mxCell>
        <mxCell id="4PH2qwDJ6IYh9CamzKsP-340" value="" style="html=1;points=[[0,0,0,0,5],[0,1,0,0,-5],[1,0,0,0,5],[1,1,0,0,-5]];perimeter=orthogonalPerimeter;outlineConnect=0;targetShapes=umlLifeline;portConstraint=eastwest;newEdgeStyle={&quot;curved&quot;:0,&quot;rounded&quot;:0};strokeColor=#457B9D;fontColor=#1D3557;fillColor=#A8DADC;" vertex="1" parent="1">
          <mxGeometry x="1237" y="6749" width="10" height="23" as="geometry" />
        </mxCell>
        <mxCell id="4PH2qwDJ6IYh9CamzKsP-343" value="" style="endArrow=none;dashed=1;html=1;dashPattern=1 3;strokeWidth=2;rounded=0;strokeColor=#457B9D;fontColor=#1D3557;fillColor=#A8DADC;entryX=0.488;entryY=0.99;entryDx=0;entryDy=0;entryPerimeter=0;" edge="1" parent="1" target="4PH2qwDJ6IYh9CamzKsP-342">
          <mxGeometry width="50" height="50" relative="1" as="geometry">
            <mxPoint x="1519" y="8001" as="sourcePoint" />
            <mxPoint x="1518" y="6749" as="targetPoint" />
          </mxGeometry>
        </mxCell>
        <mxCell id="4PH2qwDJ6IYh9CamzKsP-342" value="" style="html=1;points=[[0,0,0,0,5],[0,1,0,0,-5],[1,0,0,0,5],[1,1,0,0,-5]];perimeter=orthogonalPerimeter;outlineConnect=0;targetShapes=umlLifeline;portConstraint=eastwest;newEdgeStyle={&quot;curved&quot;:0,&quot;rounded&quot;:0};strokeColor=#457B9D;fontColor=#1D3557;fillColor=#A8DADC;" vertex="1" parent="1">
          <mxGeometry x="1513" y="6769" width="10" height="23" as="geometry" />
        </mxCell>
        <mxCell id="4PH2qwDJ6IYh9CamzKsP-345" value="" style="endArrow=none;dashed=1;html=1;dashPattern=1 3;strokeWidth=2;rounded=0;strokeColor=#457B9D;fontColor=#1D3557;fillColor=#A8DADC;entryX=0.483;entryY=1.029;entryDx=0;entryDy=0;entryPerimeter=0;" edge="1" parent="1" source="4PH2qwDJ6IYh9CamzKsP-348" target="4PH2qwDJ6IYh9CamzKsP-344">
          <mxGeometry width="50" height="50" relative="1" as="geometry">
            <mxPoint x="679" y="8001" as="sourcePoint" />
            <mxPoint x="678" y="6701" as="targetPoint" />
          </mxGeometry>
        </mxCell>
        <mxCell id="4PH2qwDJ6IYh9CamzKsP-344" value="" style="html=1;points=[[0,0,0,0,5],[0,1,0,0,-5],[1,0,0,0,5],[1,1,0,0,-5]];perimeter=orthogonalPerimeter;outlineConnect=0;targetShapes=umlLifeline;portConstraint=eastwest;newEdgeStyle={&quot;curved&quot;:0,&quot;rounded&quot;:0};strokeColor=#457B9D;fontColor=#1D3557;fillColor=#A8DADC;" vertex="1" parent="1">
          <mxGeometry x="675" y="6792" width="10" height="107" as="geometry" />
        </mxCell>
        <mxCell id="4PH2qwDJ6IYh9CamzKsP-347" value="" style="endArrow=none;dashed=1;html=1;dashPattern=1 3;strokeWidth=2;rounded=0;strokeColor=#457B9D;fontColor=#1D3557;fillColor=#A8DADC;entryX=0.5;entryY=1;entryDx=0;entryDy=0;" edge="1" parent="1" target="4PH2qwDJ6IYh9CamzKsP-346">
          <mxGeometry width="50" height="50" relative="1" as="geometry">
            <mxPoint x="2360" y="8003" as="sourcePoint" />
            <mxPoint x="2360" y="1101" as="targetPoint" />
          </mxGeometry>
        </mxCell>
        <mxCell id="4PH2qwDJ6IYh9CamzKsP-346" value="" style="html=1;points=[[0,0,0,0,5],[0,1,0,0,-5],[1,0,0,0,5],[1,1,0,0,-5]];perimeter=orthogonalPerimeter;outlineConnect=0;targetShapes=umlLifeline;portConstraint=eastwest;newEdgeStyle={&quot;curved&quot;:0,&quot;rounded&quot;:0};strokeColor=#457B9D;fontColor=#1D3557;fillColor=#A8DADC;" vertex="1" parent="1">
          <mxGeometry x="2355" y="6902" width="10" height="28" as="geometry" />
        </mxCell>
        <mxCell id="4PH2qwDJ6IYh9CamzKsP-349" value="" style="endArrow=none;dashed=1;html=1;dashPattern=1 3;strokeWidth=2;rounded=0;strokeColor=#457B9D;fontColor=#1D3557;fillColor=#A8DADC;entryX=0.483;entryY=1.029;entryDx=0;entryDy=0;entryPerimeter=0;" edge="1" parent="1" source="4PH2qwDJ6IYh9CamzKsP-369" target="4PH2qwDJ6IYh9CamzKsP-348">
          <mxGeometry width="50" height="50" relative="1" as="geometry">
            <mxPoint x="679" y="8001" as="sourcePoint" />
            <mxPoint x="680" y="6902" as="targetPoint" />
          </mxGeometry>
        </mxCell>
        <mxCell id="4PH2qwDJ6IYh9CamzKsP-348" value="" style="html=1;points=[[0,0,0,0,5],[0,1,0,0,-5],[1,0,0,0,5],[1,1,0,0,-5]];perimeter=orthogonalPerimeter;outlineConnect=0;targetShapes=umlLifeline;portConstraint=eastwest;newEdgeStyle={&quot;curved&quot;:0,&quot;rounded&quot;:0};strokeColor=#457B9D;fontColor=#1D3557;fillColor=#A8DADC;" vertex="1" parent="1">
          <mxGeometry x="675" y="7041" width="10" height="78" as="geometry" />
        </mxCell>
        <mxCell id="4PH2qwDJ6IYh9CamzKsP-351" value="" style="endArrow=none;dashed=1;html=1;dashPattern=1 3;strokeWidth=2;rounded=0;strokeColor=#457B9D;fontColor=#1D3557;fillColor=#A8DADC;entryX=0.494;entryY=1.05;entryDx=0;entryDy=0;entryPerimeter=0;" edge="1" parent="1" source="4PH2qwDJ6IYh9CamzKsP-354" target="4PH2qwDJ6IYh9CamzKsP-350">
          <mxGeometry width="50" height="50" relative="1" as="geometry">
            <mxPoint x="2080" y="8002" as="sourcePoint" />
            <mxPoint x="2080" y="1121" as="targetPoint" />
          </mxGeometry>
        </mxCell>
        <mxCell id="4PH2qwDJ6IYh9CamzKsP-350" value="" style="html=1;points=[[0,0,0,0,5],[0,1,0,0,-5],[1,0,0,0,5],[1,1,0,0,-5]];perimeter=orthogonalPerimeter;outlineConnect=0;targetShapes=umlLifeline;portConstraint=eastwest;newEdgeStyle={&quot;curved&quot;:0,&quot;rounded&quot;:0};strokeColor=#457B9D;fontColor=#1D3557;fillColor=#A8DADC;" vertex="1" parent="1">
          <mxGeometry x="2075" y="7121" width="10" height="40" as="geometry" />
        </mxCell>
        <mxCell id="4PH2qwDJ6IYh9CamzKsP-353" value="" style="endArrow=none;dashed=1;html=1;dashPattern=1 3;strokeWidth=2;rounded=0;strokeColor=#457B9D;fontColor=#1D3557;fillColor=#A8DADC;entryX=0.5;entryY=1;entryDx=0;entryDy=0;" edge="1" parent="1" source="4PH2qwDJ6IYh9CamzKsP-376" target="4PH2qwDJ6IYh9CamzKsP-352">
          <mxGeometry width="50" height="50" relative="1" as="geometry">
            <mxPoint x="1800" y="8002" as="sourcePoint" />
            <mxPoint x="1800" y="4358" as="targetPoint" />
          </mxGeometry>
        </mxCell>
        <mxCell id="4PH2qwDJ6IYh9CamzKsP-352" value="" style="html=1;points=[[0,0,0,0,5],[0,1,0,0,-5],[1,0,0,0,5],[1,1,0,0,-5]];perimeter=orthogonalPerimeter;outlineConnect=0;targetShapes=umlLifeline;portConstraint=eastwest;newEdgeStyle={&quot;curved&quot;:0,&quot;rounded&quot;:0};strokeColor=#457B9D;fontColor=#1D3557;fillColor=#A8DADC;" vertex="1" parent="1">
          <mxGeometry x="1795" y="7159" width="10" height="21" as="geometry" />
        </mxCell>
        <mxCell id="4PH2qwDJ6IYh9CamzKsP-355" value="" style="endArrow=none;dashed=1;html=1;dashPattern=1 3;strokeWidth=2;rounded=0;strokeColor=#457B9D;fontColor=#1D3557;fillColor=#A8DADC;entryX=0.494;entryY=1.05;entryDx=0;entryDy=0;entryPerimeter=0;" edge="1" parent="1" source="4PH2qwDJ6IYh9CamzKsP-362" target="4PH2qwDJ6IYh9CamzKsP-354">
          <mxGeometry width="50" height="50" relative="1" as="geometry">
            <mxPoint x="2080" y="8002" as="sourcePoint" />
            <mxPoint x="2080" y="7163" as="targetPoint" />
          </mxGeometry>
        </mxCell>
        <mxCell id="4PH2qwDJ6IYh9CamzKsP-354" value="" style="html=1;points=[[0,0,0,0,5],[0,1,0,0,-5],[1,0,0,0,5],[1,1,0,0,-5]];perimeter=orthogonalPerimeter;outlineConnect=0;targetShapes=umlLifeline;portConstraint=eastwest;newEdgeStyle={&quot;curved&quot;:0,&quot;rounded&quot;:0};strokeColor=#457B9D;fontColor=#1D3557;fillColor=#A8DADC;" vertex="1" parent="1">
          <mxGeometry x="2075" y="7180" width="10" height="21" as="geometry" />
        </mxCell>
        <mxCell id="4PH2qwDJ6IYh9CamzKsP-359" value="" style="endArrow=none;dashed=1;html=1;dashPattern=1 3;strokeWidth=2;rounded=0;strokeColor=#457B9D;fontColor=#1D3557;fillColor=#A8DADC;entryX=0.5;entryY=1;entryDx=0;entryDy=0;" edge="1" parent="1">
          <mxGeometry width="50" height="50" relative="1" as="geometry">
            <mxPoint x="1240" y="8001" as="sourcePoint" />
            <mxPoint x="1242" y="7231" as="targetPoint" />
          </mxGeometry>
        </mxCell>
        <mxCell id="4PH2qwDJ6IYh9CamzKsP-361" value="" style="endArrow=none;dashed=1;html=1;dashPattern=1 3;strokeWidth=2;rounded=0;strokeColor=#457B9D;fontColor=#1D3557;fillColor=#A8DADC;entryX=0.483;entryY=1.029;entryDx=0;entryDy=0;entryPerimeter=0;" edge="1" parent="1" source="4PH2qwDJ6IYh9CamzKsP-367" target="4PH2qwDJ6IYh9CamzKsP-360">
          <mxGeometry width="50" height="50" relative="1" as="geometry">
            <mxPoint x="679" y="8001" as="sourcePoint" />
            <mxPoint x="680" y="7121" as="targetPoint" />
          </mxGeometry>
        </mxCell>
        <mxCell id="4PH2qwDJ6IYh9CamzKsP-360" value="" style="html=1;points=[[0,0,0,0,5],[0,1,0,0,-5],[1,0,0,0,5],[1,1,0,0,-5]];perimeter=orthogonalPerimeter;outlineConnect=0;targetShapes=umlLifeline;portConstraint=eastwest;newEdgeStyle={&quot;curved&quot;:0,&quot;rounded&quot;:0};strokeColor=#457B9D;fontColor=#1D3557;fillColor=#A8DADC;" vertex="1" parent="1">
          <mxGeometry x="675" y="7301" width="10" height="37" as="geometry" />
        </mxCell>
        <mxCell id="4PH2qwDJ6IYh9CamzKsP-363" value="" style="endArrow=none;dashed=1;html=1;dashPattern=1 3;strokeWidth=2;rounded=0;strokeColor=#457B9D;fontColor=#1D3557;fillColor=#A8DADC;entryX=0.494;entryY=1.05;entryDx=0;entryDy=0;entryPerimeter=0;" edge="1" parent="1" source="4PH2qwDJ6IYh9CamzKsP-365" target="4PH2qwDJ6IYh9CamzKsP-362">
          <mxGeometry width="50" height="50" relative="1" as="geometry">
            <mxPoint x="2080" y="8002" as="sourcePoint" />
            <mxPoint x="2080" y="7202" as="targetPoint" />
          </mxGeometry>
        </mxCell>
        <mxCell id="4PH2qwDJ6IYh9CamzKsP-362" value="" style="html=1;points=[[0,0,0,0,5],[0,1,0,0,-5],[1,0,0,0,5],[1,1,0,0,-5]];perimeter=orthogonalPerimeter;outlineConnect=0;targetShapes=umlLifeline;portConstraint=eastwest;newEdgeStyle={&quot;curved&quot;:0,&quot;rounded&quot;:0};strokeColor=#457B9D;fontColor=#1D3557;fillColor=#A8DADC;" vertex="1" parent="1">
          <mxGeometry x="2075" y="7342.5" width="10" height="45.5" as="geometry" />
        </mxCell>
        <mxCell id="4PH2qwDJ6IYh9CamzKsP-364" value="" style="html=1;points=[[0,0,0,0,5],[0,1,0,0,-5],[1,0,0,0,5],[1,1,0,0,-5]];perimeter=orthogonalPerimeter;outlineConnect=0;targetShapes=umlLifeline;portConstraint=eastwest;newEdgeStyle={&quot;curved&quot;:0,&quot;rounded&quot;:0};strokeColor=#457B9D;fontColor=#1D3557;fillColor=#A8DADC;" vertex="1" parent="1">
          <mxGeometry x="1797" y="7393" width="10" height="18" as="geometry" />
        </mxCell>
        <mxCell id="4PH2qwDJ6IYh9CamzKsP-366" value="" style="endArrow=none;dashed=1;html=1;dashPattern=1 3;strokeWidth=2;rounded=0;strokeColor=#457B9D;fontColor=#1D3557;fillColor=#A8DADC;entryX=0.494;entryY=1.05;entryDx=0;entryDy=0;entryPerimeter=0;" edge="1" parent="1" source="4PH2qwDJ6IYh9CamzKsP-373" target="4PH2qwDJ6IYh9CamzKsP-365">
          <mxGeometry width="50" height="50" relative="1" as="geometry">
            <mxPoint x="2080" y="8002" as="sourcePoint" />
            <mxPoint x="2080" y="7390" as="targetPoint" />
          </mxGeometry>
        </mxCell>
        <mxCell id="4PH2qwDJ6IYh9CamzKsP-365" value="" style="html=1;points=[[0,0,0,0,5],[0,1,0,0,-5],[1,0,0,0,5],[1,1,0,0,-5]];perimeter=orthogonalPerimeter;outlineConnect=0;targetShapes=umlLifeline;portConstraint=eastwest;newEdgeStyle={&quot;curved&quot;:0,&quot;rounded&quot;:0};strokeColor=#457B9D;fontColor=#1D3557;fillColor=#A8DADC;" vertex="1" parent="1">
          <mxGeometry x="2075" y="7411" width="10" height="18" as="geometry" />
        </mxCell>
        <mxCell id="4PH2qwDJ6IYh9CamzKsP-368" value="" style="endArrow=none;dashed=1;html=1;dashPattern=1 3;strokeWidth=2;rounded=0;strokeColor=#457B9D;fontColor=#1D3557;fillColor=#A8DADC;entryX=0.483;entryY=1.029;entryDx=0;entryDy=0;entryPerimeter=0;" edge="1" parent="1" source="4PH2qwDJ6IYh9CamzKsP-371" target="4PH2qwDJ6IYh9CamzKsP-367">
          <mxGeometry width="50" height="50" relative="1" as="geometry">
            <mxPoint x="679" y="8001" as="sourcePoint" />
            <mxPoint x="680" y="7339" as="targetPoint" />
          </mxGeometry>
        </mxCell>
        <mxCell id="4PH2qwDJ6IYh9CamzKsP-367" value="" style="html=1;points=[[0,0,0,0,5],[0,1,0,0,-5],[1,0,0,0,5],[1,1,0,0,-5]];perimeter=orthogonalPerimeter;outlineConnect=0;targetShapes=umlLifeline;portConstraint=eastwest;newEdgeStyle={&quot;curved&quot;:0,&quot;rounded&quot;:0};strokeColor=#457B9D;fontColor=#1D3557;fillColor=#A8DADC;" vertex="1" parent="1">
          <mxGeometry x="675" y="7431" width="10" height="28" as="geometry" />
        </mxCell>
        <mxCell id="4PH2qwDJ6IYh9CamzKsP-370" value="" style="endArrow=none;dashed=1;html=1;dashPattern=1 3;strokeWidth=2;rounded=0;strokeColor=#457B9D;fontColor=#1D3557;fillColor=#A8DADC;entryX=0.483;entryY=1.029;entryDx=0;entryDy=0;entryPerimeter=0;" edge="1" parent="1" source="4PH2qwDJ6IYh9CamzKsP-360" target="4PH2qwDJ6IYh9CamzKsP-369">
          <mxGeometry width="50" height="50" relative="1" as="geometry">
            <mxPoint x="680" y="7301" as="sourcePoint" />
            <mxPoint x="680" y="7121" as="targetPoint" />
          </mxGeometry>
        </mxCell>
        <mxCell id="4PH2qwDJ6IYh9CamzKsP-369" value="" style="html=1;points=[[0,0,0,0,5],[0,1,0,0,-5],[1,0,0,0,5],[1,1,0,0,-5]];perimeter=orthogonalPerimeter;outlineConnect=0;targetShapes=umlLifeline;portConstraint=eastwest;newEdgeStyle={&quot;curved&quot;:0,&quot;rounded&quot;:0};strokeColor=#457B9D;fontColor=#1D3557;fillColor=#A8DADC;" vertex="1" parent="1">
          <mxGeometry x="675" y="7198" width="10" height="31" as="geometry" />
        </mxCell>
        <mxCell id="4PH2qwDJ6IYh9CamzKsP-372" value="" style="endArrow=none;dashed=1;html=1;dashPattern=1 3;strokeWidth=2;rounded=0;strokeColor=#457B9D;fontColor=#1D3557;fillColor=#A8DADC;entryX=0.483;entryY=1.029;entryDx=0;entryDy=0;entryPerimeter=0;" edge="1" parent="1" source="4PH2qwDJ6IYh9CamzKsP-380" target="4PH2qwDJ6IYh9CamzKsP-371">
          <mxGeometry width="50" height="50" relative="1" as="geometry">
            <mxPoint x="679" y="8001" as="sourcePoint" />
            <mxPoint x="680" y="7460" as="targetPoint" />
          </mxGeometry>
        </mxCell>
        <mxCell id="4PH2qwDJ6IYh9CamzKsP-371" value="" style="html=1;points=[[0,0,0,0,5],[0,1,0,0,-5],[1,0,0,0,5],[1,1,0,0,-5]];perimeter=orthogonalPerimeter;outlineConnect=0;targetShapes=umlLifeline;portConstraint=eastwest;newEdgeStyle={&quot;curved&quot;:0,&quot;rounded&quot;:0};strokeColor=#457B9D;fontColor=#1D3557;fillColor=#A8DADC;" vertex="1" parent="1">
          <mxGeometry x="675" y="7531" width="10" height="38" as="geometry" />
        </mxCell>
        <mxCell id="4PH2qwDJ6IYh9CamzKsP-375" value="" style="endArrow=none;dashed=1;html=1;dashPattern=1 3;strokeWidth=2;rounded=0;strokeColor=#457B9D;fontColor=#1D3557;fillColor=#A8DADC;entryX=0.494;entryY=1.05;entryDx=0;entryDy=0;entryPerimeter=0;" edge="1" parent="1" source="4PH2qwDJ6IYh9CamzKsP-378" target="4PH2qwDJ6IYh9CamzKsP-373">
          <mxGeometry width="50" height="50" relative="1" as="geometry">
            <mxPoint x="2080" y="8002" as="sourcePoint" />
            <mxPoint x="2080" y="7430" as="targetPoint" />
          </mxGeometry>
        </mxCell>
        <mxCell id="4PH2qwDJ6IYh9CamzKsP-373" value="" style="html=1;points=[[0,0,0,0,5],[0,1,0,0,-5],[1,0,0,0,5],[1,1,0,0,-5]];perimeter=orthogonalPerimeter;outlineConnect=0;targetShapes=umlLifeline;portConstraint=eastwest;newEdgeStyle={&quot;curved&quot;:0,&quot;rounded&quot;:0};strokeColor=#457B9D;fontColor=#1D3557;fillColor=#A8DADC;" vertex="1" parent="1">
          <mxGeometry x="2075" y="7572" width="10" height="46" as="geometry" />
        </mxCell>
        <mxCell id="4PH2qwDJ6IYh9CamzKsP-377" value="" style="endArrow=none;dashed=1;html=1;dashPattern=1 3;strokeWidth=2;rounded=0;strokeColor=#457B9D;fontColor=#1D3557;fillColor=#A8DADC;entryX=0.5;entryY=1;entryDx=0;entryDy=0;" edge="1" parent="1" source="4PH2qwDJ6IYh9CamzKsP-386" target="4PH2qwDJ6IYh9CamzKsP-376">
          <mxGeometry width="50" height="50" relative="1" as="geometry">
            <mxPoint x="1800" y="8002" as="sourcePoint" />
            <mxPoint x="1800" y="7180" as="targetPoint" />
          </mxGeometry>
        </mxCell>
        <mxCell id="4PH2qwDJ6IYh9CamzKsP-376" value="" style="html=1;points=[[0,0,0,0,5],[0,1,0,0,-5],[1,0,0,0,5],[1,1,0,0,-5]];perimeter=orthogonalPerimeter;outlineConnect=0;targetShapes=umlLifeline;portConstraint=eastwest;newEdgeStyle={&quot;curved&quot;:0,&quot;rounded&quot;:0};strokeColor=#457B9D;fontColor=#1D3557;fillColor=#A8DADC;" vertex="1" parent="1">
          <mxGeometry x="1795" y="7621" width="10" height="19" as="geometry" />
        </mxCell>
        <mxCell id="4PH2qwDJ6IYh9CamzKsP-379" value="" style="endArrow=none;dashed=1;html=1;dashPattern=1 3;strokeWidth=2;rounded=0;strokeColor=#457B9D;fontColor=#1D3557;fillColor=#A8DADC;entryX=0.494;entryY=1.05;entryDx=0;entryDy=0;entryPerimeter=0;" edge="1" parent="1" source="4PH2qwDJ6IYh9CamzKsP-384" target="4PH2qwDJ6IYh9CamzKsP-378">
          <mxGeometry width="50" height="50" relative="1" as="geometry">
            <mxPoint x="2080" y="8002" as="sourcePoint" />
            <mxPoint x="2080" y="7620" as="targetPoint" />
          </mxGeometry>
        </mxCell>
        <mxCell id="4PH2qwDJ6IYh9CamzKsP-378" value="" style="html=1;points=[[0,0,0,0,5],[0,1,0,0,-5],[1,0,0,0,5],[1,1,0,0,-5]];perimeter=orthogonalPerimeter;outlineConnect=0;targetShapes=umlLifeline;portConstraint=eastwest;newEdgeStyle={&quot;curved&quot;:0,&quot;rounded&quot;:0};strokeColor=#457B9D;fontColor=#1D3557;fillColor=#A8DADC;" vertex="1" parent="1">
          <mxGeometry x="2075" y="7640" width="10" height="19" as="geometry" />
        </mxCell>
        <mxCell id="4PH2qwDJ6IYh9CamzKsP-381" value="" style="endArrow=none;dashed=1;html=1;dashPattern=1 3;strokeWidth=2;rounded=0;strokeColor=#457B9D;fontColor=#1D3557;fillColor=#A8DADC;entryX=0.483;entryY=1.029;entryDx=0;entryDy=0;entryPerimeter=0;" edge="1" parent="1" source="4PH2qwDJ6IYh9CamzKsP-382" target="4PH2qwDJ6IYh9CamzKsP-380">
          <mxGeometry width="50" height="50" relative="1" as="geometry">
            <mxPoint x="679" y="8001" as="sourcePoint" />
            <mxPoint x="680" y="7570" as="targetPoint" />
          </mxGeometry>
        </mxCell>
        <mxCell id="4PH2qwDJ6IYh9CamzKsP-380" value="" style="html=1;points=[[0,0,0,0,5],[0,1,0,0,-5],[1,0,0,0,5],[1,1,0,0,-5]];perimeter=orthogonalPerimeter;outlineConnect=0;targetShapes=umlLifeline;portConstraint=eastwest;newEdgeStyle={&quot;curved&quot;:0,&quot;rounded&quot;:0};strokeColor=#457B9D;fontColor=#1D3557;fillColor=#A8DADC;" vertex="1" parent="1">
          <mxGeometry x="675" y="7661" width="10" height="30" as="geometry" />
        </mxCell>
        <mxCell id="4PH2qwDJ6IYh9CamzKsP-383" value="" style="endArrow=none;dashed=1;html=1;dashPattern=1 3;strokeWidth=2;rounded=0;strokeColor=#457B9D;fontColor=#1D3557;fillColor=#A8DADC;entryX=0.483;entryY=1.029;entryDx=0;entryDy=0;entryPerimeter=0;" edge="1" parent="1" source="4PH2qwDJ6IYh9CamzKsP-390" target="4PH2qwDJ6IYh9CamzKsP-382">
          <mxGeometry width="50" height="50" relative="1" as="geometry">
            <mxPoint x="679" y="8001" as="sourcePoint" />
            <mxPoint x="680" y="7692" as="targetPoint" />
          </mxGeometry>
        </mxCell>
        <mxCell id="4PH2qwDJ6IYh9CamzKsP-382" value="" style="html=1;points=[[0,0,0,0,5],[0,1,0,0,-5],[1,0,0,0,5],[1,1,0,0,-5]];perimeter=orthogonalPerimeter;outlineConnect=0;targetShapes=umlLifeline;portConstraint=eastwest;newEdgeStyle={&quot;curved&quot;:0,&quot;rounded&quot;:0};strokeColor=#457B9D;fontColor=#1D3557;fillColor=#A8DADC;" vertex="1" parent="1">
          <mxGeometry x="675" y="7751" width="10" height="38" as="geometry" />
        </mxCell>
        <mxCell id="4PH2qwDJ6IYh9CamzKsP-385" value="" style="endArrow=none;dashed=1;html=1;dashPattern=1 3;strokeWidth=2;rounded=0;strokeColor=#457B9D;fontColor=#1D3557;fillColor=#A8DADC;entryX=0.494;entryY=1.05;entryDx=0;entryDy=0;entryPerimeter=0;" edge="1" parent="1" source="4PH2qwDJ6IYh9CamzKsP-388" target="4PH2qwDJ6IYh9CamzKsP-384">
          <mxGeometry width="50" height="50" relative="1" as="geometry">
            <mxPoint x="2080" y="8002" as="sourcePoint" />
            <mxPoint x="2080" y="7660" as="targetPoint" />
          </mxGeometry>
        </mxCell>
        <mxCell id="4PH2qwDJ6IYh9CamzKsP-384" value="" style="html=1;points=[[0,0,0,0,5],[0,1,0,0,-5],[1,0,0,0,5],[1,1,0,0,-5]];perimeter=orthogonalPerimeter;outlineConnect=0;targetShapes=umlLifeline;portConstraint=eastwest;newEdgeStyle={&quot;curved&quot;:0,&quot;rounded&quot;:0};strokeColor=#457B9D;fontColor=#1D3557;fillColor=#A8DADC;" vertex="1" parent="1">
          <mxGeometry x="2075" y="7791" width="10" height="48" as="geometry" />
        </mxCell>
        <mxCell id="4PH2qwDJ6IYh9CamzKsP-387" value="" style="endArrow=none;dashed=1;html=1;dashPattern=1 3;strokeWidth=2;rounded=0;strokeColor=#457B9D;fontColor=#1D3557;fillColor=#A8DADC;entryX=0.5;entryY=1;entryDx=0;entryDy=0;" edge="1" parent="1" target="4PH2qwDJ6IYh9CamzKsP-386">
          <mxGeometry width="50" height="50" relative="1" as="geometry">
            <mxPoint x="1800" y="8002" as="sourcePoint" />
            <mxPoint x="1800" y="7640" as="targetPoint" />
          </mxGeometry>
        </mxCell>
        <mxCell id="4PH2qwDJ6IYh9CamzKsP-386" value="" style="html=1;points=[[0,0,0,0,5],[0,1,0,0,-5],[1,0,0,0,5],[1,1,0,0,-5]];perimeter=orthogonalPerimeter;outlineConnect=0;targetShapes=umlLifeline;portConstraint=eastwest;newEdgeStyle={&quot;curved&quot;:0,&quot;rounded&quot;:0};strokeColor=#457B9D;fontColor=#1D3557;fillColor=#A8DADC;" vertex="1" parent="1">
          <mxGeometry x="1795" y="7841" width="10" height="21" as="geometry" />
        </mxCell>
        <mxCell id="4PH2qwDJ6IYh9CamzKsP-389" value="" style="endArrow=none;dashed=1;html=1;dashPattern=1 3;strokeWidth=2;rounded=0;strokeColor=#457B9D;fontColor=#1D3557;fillColor=#A8DADC;entryX=0.494;entryY=1.05;entryDx=0;entryDy=0;entryPerimeter=0;" edge="1" parent="1" target="4PH2qwDJ6IYh9CamzKsP-388">
          <mxGeometry width="50" height="50" relative="1" as="geometry">
            <mxPoint x="2080" y="8002" as="sourcePoint" />
            <mxPoint x="2080" y="7841" as="targetPoint" />
          </mxGeometry>
        </mxCell>
        <mxCell id="4PH2qwDJ6IYh9CamzKsP-388" value="" style="html=1;points=[[0,0,0,0,5],[0,1,0,0,-5],[1,0,0,0,5],[1,1,0,0,-5]];perimeter=orthogonalPerimeter;outlineConnect=0;targetShapes=umlLifeline;portConstraint=eastwest;newEdgeStyle={&quot;curved&quot;:0,&quot;rounded&quot;:0};strokeColor=#457B9D;fontColor=#1D3557;fillColor=#A8DADC;" vertex="1" parent="1">
          <mxGeometry x="2075" y="7859" width="10" height="21" as="geometry" />
        </mxCell>
        <mxCell id="4PH2qwDJ6IYh9CamzKsP-391" value="" style="endArrow=none;dashed=1;html=1;dashPattern=1 3;strokeWidth=2;rounded=0;strokeColor=#457B9D;fontColor=#1D3557;fillColor=#A8DADC;entryX=0.483;entryY=1.029;entryDx=0;entryDy=0;entryPerimeter=0;" edge="1" parent="1" target="4PH2qwDJ6IYh9CamzKsP-390">
          <mxGeometry width="50" height="50" relative="1" as="geometry">
            <mxPoint x="679" y="8001" as="sourcePoint" />
            <mxPoint x="680" y="7790" as="targetPoint" />
          </mxGeometry>
        </mxCell>
        <mxCell id="4PH2qwDJ6IYh9CamzKsP-390" value="" style="html=1;points=[[0,0,0,0,5],[0,1,0,0,-5],[1,0,0,0,5],[1,1,0,0,-5]];perimeter=orthogonalPerimeter;outlineConnect=0;targetShapes=umlLifeline;portConstraint=eastwest;newEdgeStyle={&quot;curved&quot;:0,&quot;rounded&quot;:0};strokeColor=#457B9D;fontColor=#1D3557;fillColor=#A8DADC;" vertex="1" parent="1">
          <mxGeometry x="675" y="7880" width="10" height="30" as="geometry" />
        </mxCell>
        <mxCell id="4PH2qwDJ6IYh9CamzKsP-49" value="Alt" style="shape=umlFrame;whiteSpace=wrap;html=1;pointerEvents=0;strokeColor=#457B9D;fontColor=#1D3557;fillColor=#A8DADC;" vertex="1" parent="1">
          <mxGeometry x="40" y="580" width="1920" height="3060" as="geometry" />
        </mxCell>
        <mxCell id="4PH2qwDJ6IYh9CamzKsP-50" value="[Open &#39;Position Data&#39; View Through &#39;Department&#39; Directly]" style="text;html=1;strokeColor=none;fillColor=none;align=center;verticalAlign=middle;whiteSpace=wrap;rounded=0;fontColor=#1D3557;" vertex="1" parent="1">
          <mxGeometry x="135" y="610" width="180" height="10" as="geometry" />
        </mxCell>
        <mxCell id="4PH2qwDJ6IYh9CamzKsP-51" value="" style="endArrow=none;dashed=1;html=1;rounded=0;strokeColor=#457B9D;fontColor=#1D3557;fillColor=#A8DADC;exitX=-0.003;exitY=0.72;exitDx=0;exitDy=0;exitPerimeter=0;" edge="1" parent="1">
          <mxGeometry width="50" height="50" relative="1" as="geometry">
            <mxPoint x="40.000000000000064" y="1400" as="sourcePoint" />
            <mxPoint x="1970" y="1400" as="targetPoint" />
          </mxGeometry>
        </mxCell>
        <mxCell id="4PH2qwDJ6IYh9CamzKsP-52" value="[Open &#39;Position Data&#39; View Through &#39;Department&#39; using &#39;Global Positions&#39; List]" style="text;html=1;strokeColor=none;fillColor=none;align=center;verticalAlign=middle;whiteSpace=wrap;rounded=0;fontColor=#1D3557;" vertex="1" parent="1">
          <mxGeometry x="135" y="1430" width="180" height="10" as="geometry" />
        </mxCell>
        <mxCell id="4PH2qwDJ6IYh9CamzKsP-78" value="" style="endArrow=none;dashed=1;html=1;rounded=0;strokeColor=#457B9D;fontColor=#1D3557;fillColor=#A8DADC;exitX=-0.003;exitY=0.72;exitDx=0;exitDy=0;exitPerimeter=0;" edge="1" parent="1">
          <mxGeometry width="50" height="50" relative="1" as="geometry">
            <mxPoint x="40.00000000000006" y="2730" as="sourcePoint" />
            <mxPoint x="1970" y="2730" as="targetPoint" />
          </mxGeometry>
        </mxCell>
        <mxCell id="4PH2qwDJ6IYh9CamzKsP-79" value="[Open &#39;Avg Position Data&#39;]" style="text;html=1;strokeColor=none;fillColor=none;align=center;verticalAlign=middle;whiteSpace=wrap;rounded=0;fontColor=#1D3557;" vertex="1" parent="1">
          <mxGeometry x="135" y="2760" width="180" height="10" as="geometry" />
        </mxCell>
        <mxCell id="4PH2qwDJ6IYh9CamzKsP-107" value="Opt" style="shape=umlFrame;whiteSpace=wrap;html=1;pointerEvents=0;strokeColor=#457B9D;fontColor=#1D3557;fillColor=#A8DADC;" vertex="1" parent="1">
          <mxGeometry x="40" y="4240" width="800" height="480" as="geometry" />
        </mxCell>
        <mxCell id="4PH2qwDJ6IYh9CamzKsP-109" value="Opt" style="shape=umlFrame;whiteSpace=wrap;html=1;pointerEvents=0;strokeColor=#457B9D;fontColor=#1D3557;fillColor=#A8DADC;" vertex="1" parent="1">
          <mxGeometry x="40" y="3680" width="800" height="480" as="geometry" />
        </mxCell>
        <mxCell id="4PH2qwDJ6IYh9CamzKsP-110" value="[Editing Attributes]" style="text;html=1;strokeColor=none;fillColor=none;align=center;verticalAlign=middle;whiteSpace=wrap;rounded=0;fontColor=#1D3557;" vertex="1" parent="1">
          <mxGeometry x="135" y="3700" width="120" height="30" as="geometry" />
        </mxCell>
        <mxCell id="4PH2qwDJ6IYh9CamzKsP-111" value="[Editing Limits]" style="text;html=1;strokeColor=none;fillColor=none;align=center;verticalAlign=middle;whiteSpace=wrap;rounded=0;fontColor=#1D3557;" vertex="1" parent="1">
          <mxGeometry x="135" y="4260" width="120" height="30" as="geometry" />
        </mxCell>
        <mxCell id="4PH2qwDJ6IYh9CamzKsP-117" value="Loop" style="shape=umlFrame;whiteSpace=wrap;html=1;pointerEvents=0;strokeColor=#457B9D;fontColor=#1D3557;fillColor=#A8DADC;" vertex="1" parent="1">
          <mxGeometry x="640" y="5961" width="920" height="180" as="geometry" />
        </mxCell>
        <mxCell id="4PH2qwDJ6IYh9CamzKsP-118" value="[While Transaction Fails]" style="text;html=1;strokeColor=none;fillColor=none;align=center;verticalAlign=middle;whiteSpace=wrap;rounded=0;fontColor=#1D3557;" vertex="1" parent="1">
          <mxGeometry x="700" y="5971" width="180" height="30" as="geometry" />
        </mxCell>
        <mxCell id="4PH2qwDJ6IYh9CamzKsP-122" value="Loop" style="shape=umlFrame;whiteSpace=wrap;html=1;pointerEvents=0;strokeColor=#457B9D;fontColor=#1D3557;fillColor=#A8DADC;" vertex="1" parent="1">
          <mxGeometry x="640" y="6211" width="920" height="160" as="geometry" />
        </mxCell>
        <mxCell id="4PH2qwDJ6IYh9CamzKsP-123" value="[While Transaction Fails]" style="text;html=1;strokeColor=none;fillColor=none;align=center;verticalAlign=middle;whiteSpace=wrap;rounded=0;fontColor=#1D3557;" vertex="1" parent="1">
          <mxGeometry x="700" y="6221" width="180" height="30" as="geometry" />
        </mxCell>
        <mxCell id="4PH2qwDJ6IYh9CamzKsP-134" value="Opt" style="shape=umlFrame;whiteSpace=wrap;html=1;pointerEvents=0;strokeColor=#457B9D;fontColor=#1D3557;fillColor=#A8DADC;" vertex="1" parent="1">
          <mxGeometry x="640" y="6171" width="960" height="200" as="geometry" />
        </mxCell>
        <mxCell id="4PH2qwDJ6IYh9CamzKsP-135" value="[If New Limits Was Added]" style="text;html=1;strokeColor=none;fillColor=none;align=center;verticalAlign=middle;whiteSpace=wrap;rounded=0;fontColor=#1D3557;" vertex="1" parent="1">
          <mxGeometry x="710" y="6171" width="180" height="30" as="geometry" />
        </mxCell>
        <mxCell id="4PH2qwDJ6IYh9CamzKsP-141" value="Opt" style="shape=umlFrame;whiteSpace=wrap;html=1;pointerEvents=0;strokeColor=#457B9D;fontColor=#1D3557;fillColor=#A8DADC;" vertex="1" parent="1">
          <mxGeometry x="640" y="6401" width="960" height="200" as="geometry" />
        </mxCell>
        <mxCell id="4PH2qwDJ6IYh9CamzKsP-142" value="[If Limits Was Deleted]" style="text;html=1;strokeColor=none;fillColor=none;align=center;verticalAlign=middle;whiteSpace=wrap;rounded=0;fontColor=#1D3557;" vertex="1" parent="1">
          <mxGeometry x="710" y="6401" width="180" height="30" as="geometry" />
        </mxCell>
        <mxCell id="4PH2qwDJ6IYh9CamzKsP-146" value="Loop" style="shape=umlFrame;whiteSpace=wrap;html=1;pointerEvents=0;strokeColor=#457B9D;fontColor=#1D3557;fillColor=#A8DADC;" vertex="1" parent="1">
          <mxGeometry x="640" y="6661" width="920" height="160" as="geometry" />
        </mxCell>
        <mxCell id="4PH2qwDJ6IYh9CamzKsP-148" value="[While Transaction Fails]" style="text;html=1;strokeColor=none;fillColor=none;align=center;verticalAlign=middle;whiteSpace=wrap;rounded=0;fontColor=#1D3557;" vertex="1" parent="1">
          <mxGeometry x="700" y="6671" width="180" height="30" as="geometry" />
        </mxCell>
        <mxCell id="4PH2qwDJ6IYh9CamzKsP-149" value="Opt" style="shape=umlFrame;whiteSpace=wrap;html=1;pointerEvents=0;strokeColor=#457B9D;fontColor=#1D3557;fillColor=#A8DADC;" vertex="1" parent="1">
          <mxGeometry x="640" y="6621" width="960" height="200" as="geometry" />
        </mxCell>
        <mxCell id="4PH2qwDJ6IYh9CamzKsP-150" value="[If Limits Was Edited]" style="text;html=1;strokeColor=none;fillColor=none;align=center;verticalAlign=middle;whiteSpace=wrap;rounded=0;fontColor=#1D3557;" vertex="1" parent="1">
          <mxGeometry x="710" y="6621" width="180" height="30" as="geometry" />
        </mxCell>
        <mxCell id="4PH2qwDJ6IYh9CamzKsP-152" value="Alt" style="shape=umlFrame;whiteSpace=wrap;html=1;pointerEvents=0;strokeColor=#457B9D;fontColor=#1D3557;fillColor=#A8DADC;" vertex="1" parent="1">
          <mxGeometry x="640" y="5881" width="1760" height="2030" as="geometry" />
        </mxCell>
        <mxCell id="4PH2qwDJ6IYh9CamzKsP-153" value="[Some Department Data Was Edited]" style="text;html=1;strokeColor=none;fillColor=none;align=center;verticalAlign=middle;whiteSpace=wrap;rounded=0;fontColor=#1D3557;" vertex="1" parent="1">
          <mxGeometry x="700" y="5901" width="180" height="30" as="geometry" />
        </mxCell>
        <mxCell id="4PH2qwDJ6IYh9CamzKsP-154" value="" style="endArrow=none;dashed=1;html=1;rounded=0;strokeColor=#457B9D;fontColor=#1D3557;fillColor=#A8DADC;exitX=0.002;exitY=0.676;exitDx=0;exitDy=0;exitPerimeter=0;entryX=1.001;entryY=0.676;entryDx=0;entryDy=0;entryPerimeter=0;" edge="1" parent="1">
          <mxGeometry width="50" height="50" relative="1" as="geometry">
            <mxPoint x="641.76" y="6961" as="sourcePoint" />
            <mxPoint x="2399.9999999999995" y="6961" as="targetPoint" />
          </mxGeometry>
        </mxCell>
        <mxCell id="4PH2qwDJ6IYh9CamzKsP-155" value="[Avg (Global DB) Data Was Edited]" style="text;html=1;strokeColor=none;fillColor=none;align=center;verticalAlign=middle;whiteSpace=wrap;rounded=0;fontColor=#1D3557;" vertex="1" parent="1">
          <mxGeometry x="700" y="6991" width="180" height="30" as="geometry" />
        </mxCell>
        <mxCell id="4PH2qwDJ6IYh9CamzKsP-159" value="Loop" style="shape=umlFrame;whiteSpace=wrap;html=1;pointerEvents=0;strokeColor=#457B9D;fontColor=#1D3557;fillColor=#A8DADC;" vertex="1" parent="1">
          <mxGeometry x="640" y="7041" width="1480" height="190" as="geometry" />
        </mxCell>
        <mxCell id="4PH2qwDJ6IYh9CamzKsP-160" value="[While Transaction Fails]" style="text;html=1;strokeColor=none;fillColor=none;align=center;verticalAlign=middle;whiteSpace=wrap;rounded=0;fontColor=#1D3557;" vertex="1" parent="1">
          <mxGeometry x="700" y="7051" width="180" height="30" as="geometry" />
        </mxCell>
        <mxCell id="4PH2qwDJ6IYh9CamzKsP-164" value="Loop" style="shape=umlFrame;whiteSpace=wrap;html=1;pointerEvents=0;strokeColor=#457B9D;fontColor=#1D3557;fillColor=#A8DADC;" vertex="1" parent="1">
          <mxGeometry x="640" y="7301" width="1480" height="160" as="geometry" />
        </mxCell>
        <mxCell id="4PH2qwDJ6IYh9CamzKsP-165" value="[While Transaction Fails]" style="text;html=1;strokeColor=none;fillColor=none;align=center;verticalAlign=middle;whiteSpace=wrap;rounded=0;fontColor=#1D3557;" vertex="1" parent="1">
          <mxGeometry x="700" y="7311" width="180" height="30" as="geometry" />
        </mxCell>
        <mxCell id="4PH2qwDJ6IYh9CamzKsP-166" value="Opt" style="shape=umlFrame;whiteSpace=wrap;html=1;pointerEvents=0;strokeColor=#457B9D;fontColor=#1D3557;fillColor=#A8DADC;" vertex="1" parent="1">
          <mxGeometry x="640" y="7261" width="1520" height="200" as="geometry" />
        </mxCell>
        <mxCell id="4PH2qwDJ6IYh9CamzKsP-167" value="[If New Limits Was Added]" style="text;html=1;strokeColor=none;fillColor=none;align=center;verticalAlign=middle;whiteSpace=wrap;rounded=0;fontColor=#1D3557;" vertex="1" parent="1">
          <mxGeometry x="710" y="7261" width="180" height="30" as="geometry" />
        </mxCell>
        <mxCell id="4PH2qwDJ6IYh9CamzKsP-171" value="Loop" style="shape=umlFrame;whiteSpace=wrap;html=1;pointerEvents=0;strokeColor=#457B9D;fontColor=#1D3557;fillColor=#A8DADC;" vertex="1" parent="1">
          <mxGeometry x="640" y="7531" width="1480" height="160" as="geometry" />
        </mxCell>
        <mxCell id="4PH2qwDJ6IYh9CamzKsP-172" value="[While Transaction Fails]" style="text;html=1;strokeColor=none;fillColor=none;align=center;verticalAlign=middle;whiteSpace=wrap;rounded=0;fontColor=#1D3557;" vertex="1" parent="1">
          <mxGeometry x="700" y="7541" width="180" height="30" as="geometry" />
        </mxCell>
        <mxCell id="4PH2qwDJ6IYh9CamzKsP-173" value="Opt" style="shape=umlFrame;whiteSpace=wrap;html=1;pointerEvents=0;strokeColor=#457B9D;fontColor=#1D3557;fillColor=#A8DADC;" vertex="1" parent="1">
          <mxGeometry x="640" y="7491" width="1520" height="200" as="geometry" />
        </mxCell>
        <mxCell id="4PH2qwDJ6IYh9CamzKsP-174" value="[If Limits Was Deleted]" style="text;html=1;strokeColor=none;fillColor=none;align=center;verticalAlign=middle;whiteSpace=wrap;rounded=0;fontColor=#1D3557;" vertex="1" parent="1">
          <mxGeometry x="710" y="7491" width="180" height="30" as="geometry" />
        </mxCell>
        <mxCell id="4PH2qwDJ6IYh9CamzKsP-178" value="Loop" style="shape=umlFrame;whiteSpace=wrap;html=1;pointerEvents=0;strokeColor=#457B9D;fontColor=#1D3557;fillColor=#A8DADC;" vertex="1" parent="1">
          <mxGeometry x="640" y="7751" width="1480" height="160" as="geometry" />
        </mxCell>
        <mxCell id="4PH2qwDJ6IYh9CamzKsP-179" value="[While Transaction Fails]" style="text;html=1;strokeColor=none;fillColor=none;align=center;verticalAlign=middle;whiteSpace=wrap;rounded=0;fontColor=#1D3557;" vertex="1" parent="1">
          <mxGeometry x="700" y="7761" width="180" height="30" as="geometry" />
        </mxCell>
        <mxCell id="4PH2qwDJ6IYh9CamzKsP-180" value="Opt" style="shape=umlFrame;whiteSpace=wrap;html=1;pointerEvents=0;strokeColor=#457B9D;fontColor=#1D3557;fillColor=#A8DADC;" vertex="1" parent="1">
          <mxGeometry x="640" y="7711" width="1520" height="200" as="geometry" />
        </mxCell>
        <mxCell id="4PH2qwDJ6IYh9CamzKsP-181" value="[If Limits Was Edited]" style="text;html=1;strokeColor=none;fillColor=none;align=center;verticalAlign=middle;whiteSpace=wrap;rounded=0;fontColor=#1D3557;" vertex="1" parent="1">
          <mxGeometry x="710" y="7711" width="180" height="30" as="geometry" />
        </mxCell>
        <mxCell id="4PH2qwDJ6IYh9CamzKsP-182" value="Opt" style="shape=umlFrame;whiteSpace=wrap;html=1;pointerEvents=0;strokeColor=#457B9D;fontColor=#1D3557;fillColor=#A8DADC;" vertex="1" parent="1">
          <mxGeometry x="40" y="5721" width="2400" height="2190" as="geometry" />
        </mxCell>
        <mxCell id="4PH2qwDJ6IYh9CamzKsP-183" value="[Save Applied Changes]" style="text;html=1;strokeColor=none;fillColor=none;align=center;verticalAlign=middle;whiteSpace=wrap;rounded=0;fontColor=#1D3557;" vertex="1" parent="1">
          <mxGeometry x="135" y="5741" width="150" height="20" as="geometry" />
        </mxCell>
        <mxCell id="4PH2qwDJ6IYh9CamzKsP-139" value="Loop" style="shape=umlFrame;whiteSpace=wrap;html=1;pointerEvents=0;strokeColor=#457B9D;fontColor=#1D3557;fillColor=#A8DADC;" vertex="1" parent="1">
          <mxGeometry x="640" y="6441" width="920" height="160" as="geometry" />
        </mxCell>
        <mxCell id="4PH2qwDJ6IYh9CamzKsP-140" value="[While Transaction Fails]" style="text;html=1;strokeColor=none;fillColor=none;align=center;verticalAlign=middle;whiteSpace=wrap;rounded=0;fontColor=#1D3557;" vertex="1" parent="1">
          <mxGeometry x="700" y="6451" width="180" height="30" as="geometry" />
        </mxCell>
        <mxCell id="4PH2qwDJ6IYh9CamzKsP-405" value="&#39;Look Stat&#39; Button Pressed" style="html=1;verticalAlign=bottom;endArrow=block;curved=0;rounded=0;strokeColor=#457B9D;fontColor=#1D3557;fillColor=#A8DADC;" edge="1" parent="1">
          <mxGeometry width="80" relative="1" as="geometry">
            <mxPoint x="121" y="4840" as="sourcePoint" />
            <mxPoint x="401" y="4840" as="targetPoint" />
            <mxPoint as="offset" />
          </mxGeometry>
        </mxCell>
        <mxCell id="4PH2qwDJ6IYh9CamzKsP-406" value="Request Stat For Selected &#39;Position&#39;" style="html=1;verticalAlign=bottom;endArrow=block;curved=0;rounded=0;strokeColor=#457B9D;fontColor=#1D3557;fillColor=#A8DADC;" edge="1" parent="1">
          <mxGeometry width="80" relative="1" as="geometry">
            <mxPoint x="403" y="4880" as="sourcePoint" />
            <mxPoint x="683" y="4880" as="targetPoint" />
            <mxPoint as="offset" />
          </mxGeometry>
        </mxCell>
        <mxCell id="4PH2qwDJ6IYh9CamzKsP-407" value="Get list of &#39;Position.Count&#39;, &#39;Department&#39;, &lt;br&gt;&#39;Document Type&#39; , &#39;Document Link&#39; &lt;br&gt;for selected &#39;Position&#39; from Loaded Data&lt;br&gt;(Document.Type != &#39;Write-Off_Bad&#39;)" style="html=1;verticalAlign=bottom;endArrow=block;curved=0;rounded=0;strokeColor=#457B9D;fontColor=#1D3557;fillColor=#A8DADC;" edge="1" parent="1">
          <mxGeometry width="80" relative="1" as="geometry">
            <mxPoint x="684" y="4920" as="sourcePoint" />
            <mxPoint x="2640" y="4920" as="targetPoint" />
            <mxPoint as="offset" />
          </mxGeometry>
        </mxCell>
        <mxCell id="4PH2qwDJ6IYh9CamzKsP-409" value="Send list of &#39;Position.Count&#39;, &#39;Department&#39;, &lt;br&gt;&#39;Document Type&#39;, &#39;Document Link&#39;&amp;nbsp;&lt;br&gt;&amp;nbsp;for selected &#39;Position&#39; from Loaded Data&lt;br&gt;(Document.Type != &#39;Write-Off_Bad&#39;)" style="html=1;verticalAlign=bottom;endArrow=block;curved=0;rounded=0;strokeColor=#457B9D;fontColor=#1D3557;fillColor=#A8DADC;" edge="1" parent="1">
          <mxGeometry width="80" relative="1" as="geometry">
            <mxPoint x="2640" y="5080" as="sourcePoint" />
            <mxPoint x="679" y="5080" as="targetPoint" />
            <mxPoint as="offset" />
          </mxGeometry>
        </mxCell>
        <mxCell id="4PH2qwDJ6IYh9CamzKsP-414" value="Send Lists" style="html=1;verticalAlign=bottom;endArrow=block;curved=0;rounded=0;strokeColor=#457B9D;fontColor=#1D3557;fillColor=#A8DADC;" edge="1" parent="1">
          <mxGeometry width="80" relative="1" as="geometry">
            <mxPoint x="681" y="5600" as="sourcePoint" />
            <mxPoint x="401" y="5600" as="targetPoint" />
          </mxGeometry>
        </mxCell>
        <mxCell id="4PH2qwDJ6IYh9CamzKsP-415" value="Show Graphs Builded based on Received Lists&lt;br&gt;(one for each Department)" style="html=1;verticalAlign=bottom;endArrow=block;curved=0;rounded=0;strokeColor=#457B9D;fontColor=#1D3557;fillColor=#A8DADC;" edge="1" parent="1">
          <mxGeometry width="80" relative="1" as="geometry">
            <mxPoint x="401" y="5640" as="sourcePoint" />
            <mxPoint x="121" y="5640" as="targetPoint" />
          </mxGeometry>
        </mxCell>
        <mxCell id="4PH2qwDJ6IYh9CamzKsP-416" value="Opt" style="shape=umlFrame;whiteSpace=wrap;html=1;pointerEvents=0;strokeColor=#457B9D;fontColor=#1D3557;fillColor=#A8DADC;" vertex="1" parent="1">
          <mxGeometry x="41" y="4760" width="2760" height="920" as="geometry" />
        </mxCell>
        <mxCell id="4PH2qwDJ6IYh9CamzKsP-417" value="[Looking For Stat]" style="text;html=1;strokeColor=none;fillColor=none;align=center;verticalAlign=middle;whiteSpace=wrap;rounded=0;fontColor=#1D3557;" vertex="1" parent="1">
          <mxGeometry x="136" y="4780" width="120" height="30" as="geometry" />
        </mxCell>
        <mxCell id="4PH2qwDJ6IYh9CamzKsP-418" value="Kafka" style="ellipse;shape=umlEntity;whiteSpace=wrap;html=1;strokeColor=#457B9D;fontColor=#1D3557;fillColor=#A8DADC;" vertex="1" parent="1">
          <mxGeometry x="2610" y="80" width="60" height="60" as="geometry" />
        </mxCell>
        <mxCell id="4PH2qwDJ6IYh9CamzKsP-419" value="" style="endArrow=none;dashed=1;html=1;dashPattern=1 3;strokeWidth=2;rounded=0;strokeColor=#457B9D;fontColor=#1D3557;fillColor=#A8DADC;entryX=0.5;entryY=1;entryDx=0;entryDy=0;" edge="1" parent="1" source="4PH2qwDJ6IYh9CamzKsP-423" target="4PH2qwDJ6IYh9CamzKsP-418">
          <mxGeometry width="50" height="50" relative="1" as="geometry">
            <mxPoint x="2640" y="8001" as="sourcePoint" />
            <mxPoint x="2620" y="290" as="targetPoint" />
          </mxGeometry>
        </mxCell>
        <mxCell id="4PH2qwDJ6IYh9CamzKsP-420" value="" style="html=1;points=[[0,0,0,0,5],[0,1,0,0,-5],[1,0,0,0,5],[1,1,0,0,-5]];perimeter=orthogonalPerimeter;outlineConnect=0;targetShapes=umlLifeline;portConstraint=eastwest;newEdgeStyle={&quot;curved&quot;:0,&quot;rounded&quot;:0};strokeColor=#457B9D;fontColor=#1D3557;fillColor=#A8DADC;" vertex="1" parent="1">
          <mxGeometry x="115" y="4760" width="10" height="80" as="geometry" />
        </mxCell>
        <mxCell id="4PH2qwDJ6IYh9CamzKsP-421" value="" style="html=1;points=[[0,0,0,0,5],[0,1,0,0,-5],[1,0,0,0,5],[1,1,0,0,-5]];perimeter=orthogonalPerimeter;outlineConnect=0;targetShapes=umlLifeline;portConstraint=eastwest;newEdgeStyle={&quot;curved&quot;:0,&quot;rounded&quot;:0};strokeColor=#457B9D;fontColor=#1D3557;fillColor=#A8DADC;" vertex="1" parent="1">
          <mxGeometry x="397" y="4840" width="10" height="40" as="geometry" />
        </mxCell>
        <mxCell id="4PH2qwDJ6IYh9CamzKsP-422" value="" style="html=1;points=[[0,0,0,0,5],[0,1,0,0,-5],[1,0,0,0,5],[1,1,0,0,-5]];perimeter=orthogonalPerimeter;outlineConnect=0;targetShapes=umlLifeline;portConstraint=eastwest;newEdgeStyle={&quot;curved&quot;:0,&quot;rounded&quot;:0};strokeColor=#457B9D;fontColor=#1D3557;fillColor=#A8DADC;" vertex="1" parent="1">
          <mxGeometry x="675" y="4880" width="10" height="40" as="geometry" />
        </mxCell>
        <mxCell id="4PH2qwDJ6IYh9CamzKsP-424" value="" style="endArrow=none;dashed=1;html=1;dashPattern=1 3;strokeWidth=2;rounded=0;strokeColor=#457B9D;fontColor=#1D3557;fillColor=#A8DADC;entryX=0.5;entryY=1;entryDx=0;entryDy=0;" edge="1" parent="1" target="4PH2qwDJ6IYh9CamzKsP-423">
          <mxGeometry width="50" height="50" relative="1" as="geometry">
            <mxPoint x="2640" y="8001" as="sourcePoint" />
            <mxPoint x="2640" y="140" as="targetPoint" />
          </mxGeometry>
        </mxCell>
        <mxCell id="4PH2qwDJ6IYh9CamzKsP-423" value="" style="html=1;points=[[0,0,0,0,5],[0,1,0,0,-5],[1,0,0,0,5],[1,1,0,0,-5]];perimeter=orthogonalPerimeter;outlineConnect=0;targetShapes=umlLifeline;portConstraint=eastwest;newEdgeStyle={&quot;curved&quot;:0,&quot;rounded&quot;:0};strokeColor=#457B9D;fontColor=#1D3557;fillColor=#A8DADC;" vertex="1" parent="1">
          <mxGeometry x="2635" y="4960" width="10" height="80" as="geometry" />
        </mxCell>
        <mxCell id="4PH2qwDJ6IYh9CamzKsP-408" value="Form list of &#39;Position.Count&#39;, &#39;Department&#39;, &lt;br&gt;&#39;Document Type&#39;, &#39;Document Link&#39;&amp;nbsp;&lt;br&gt;&amp;nbsp;for selected &#39;Position&#39; from Loaded Data&lt;br&gt;(Document.Type != &#39;Write-Off_Bad&#39;)" style="html=1;verticalAlign=bottom;endArrow=block;curved=0;rounded=0;strokeColor=#457B9D;fontColor=#1D3557;fillColor=#A8DADC;" edge="1" parent="1">
          <mxGeometry x="0.25" width="80" relative="1" as="geometry">
            <mxPoint x="2640" y="4960" as="sourcePoint" />
            <mxPoint x="2640" y="5040" as="targetPoint" />
            <mxPoint as="offset" />
            <Array as="points">
              <mxPoint x="2720" y="4960" />
              <mxPoint x="2720" y="5040" />
            </Array>
          </mxGeometry>
        </mxCell>
        <mxCell id="4PH2qwDJ6IYh9CamzKsP-425" value="" style="html=1;points=[[0,0,0,0,5],[0,1,0,0,-5],[1,0,0,0,5],[1,1,0,0,-5]];perimeter=orthogonalPerimeter;outlineConnect=0;targetShapes=umlLifeline;portConstraint=eastwest;newEdgeStyle={&quot;curved&quot;:0,&quot;rounded&quot;:0};strokeColor=#457B9D;fontColor=#1D3557;fillColor=#A8DADC;" vertex="1" parent="1">
          <mxGeometry x="675" y="5120" width="10" height="80" as="geometry" />
        </mxCell>
        <mxCell id="4PH2qwDJ6IYh9CamzKsP-426" value="" style="html=1;points=[[0,0,0,0,5],[0,1,0,0,-5],[1,0,0,0,5],[1,1,0,0,-5]];perimeter=orthogonalPerimeter;outlineConnect=0;targetShapes=umlLifeline;portConstraint=eastwest;newEdgeStyle={&quot;curved&quot;:0,&quot;rounded&quot;:0};strokeColor=#457B9D;fontColor=#1D3557;fillColor=#A8DADC;" vertex="1" parent="1">
          <mxGeometry x="675" y="5220" width="10" height="80" as="geometry" />
        </mxCell>
        <mxCell id="4PH2qwDJ6IYh9CamzKsP-427" value="" style="html=1;points=[[0,0,0,0,5],[0,1,0,0,-5],[1,0,0,0,5],[1,1,0,0,-5]];perimeter=orthogonalPerimeter;outlineConnect=0;targetShapes=umlLifeline;portConstraint=eastwest;newEdgeStyle={&quot;curved&quot;:0,&quot;rounded&quot;:0};strokeColor=#457B9D;fontColor=#1D3557;fillColor=#A8DADC;" vertex="1" parent="1">
          <mxGeometry x="675" y="5320" width="10" height="80" as="geometry" />
        </mxCell>
        <mxCell id="4PH2qwDJ6IYh9CamzKsP-428" value="" style="html=1;points=[[0,0,0,0,5],[0,1,0,0,-5],[1,0,0,0,5],[1,1,0,0,-5]];perimeter=orthogonalPerimeter;outlineConnect=0;targetShapes=umlLifeline;portConstraint=eastwest;newEdgeStyle={&quot;curved&quot;:0,&quot;rounded&quot;:0};strokeColor=#457B9D;fontColor=#1D3557;fillColor=#A8DADC;" vertex="1" parent="1">
          <mxGeometry x="675" y="5420" width="10" height="140" as="geometry" />
        </mxCell>
        <mxCell id="4PH2qwDJ6IYh9CamzKsP-410" value="Replace &#39;Document Link&#39; with &#39;Document Date&#39;&amp;nbsp;&lt;br&gt;(Document names creates by template as&lt;br&gt;&#39;Order&#39; + Date + Time when it was created&lt;br&gt;+ additional numbers if two or more&lt;br&gt;documents was created at the same time)" style="html=1;verticalAlign=bottom;endArrow=block;curved=0;rounded=0;strokeColor=#457B9D;fontColor=#1D3557;fillColor=#A8DADC;" edge="1" parent="1">
          <mxGeometry x="0.25" width="80" relative="1" as="geometry">
            <mxPoint x="684" y="5220" as="sourcePoint" />
            <mxPoint x="684" y="5300" as="targetPoint" />
            <Array as="points">
              <mxPoint x="764" y="5220" />
              <mxPoint x="764" y="5300" />
            </Array>
            <mxPoint as="offset" />
          </mxGeometry>
        </mxCell>
        <mxCell id="4PH2qwDJ6IYh9CamzKsP-411" value="Split List into &#39;N&#39; Lists Where Each&lt;br&gt;Contains Items from Single &#39;Department&#39;" style="html=1;verticalAlign=bottom;endArrow=block;curved=0;rounded=0;strokeColor=#457B9D;fontColor=#1D3557;fillColor=#A8DADC;" edge="1" parent="1">
          <mxGeometry x="0.0833" width="80" relative="1" as="geometry">
            <mxPoint x="684" y="5120" as="sourcePoint" />
            <mxPoint x="684" y="5200" as="targetPoint" />
            <Array as="points">
              <mxPoint x="764" y="5120" />
              <mxPoint x="764" y="5200" />
            </Array>
            <mxPoint as="offset" />
          </mxGeometry>
        </mxCell>
        <mxCell id="4PH2qwDJ6IYh9CamzKsP-412" value="Sort Items in Lists by &#39;Document Date&#39;" style="html=1;verticalAlign=bottom;endArrow=block;curved=0;rounded=0;strokeColor=#457B9D;fontColor=#1D3557;fillColor=#A8DADC;" edge="1" parent="1">
          <mxGeometry x="0.0833" width="80" relative="1" as="geometry">
            <mxPoint x="684" y="5320" as="sourcePoint" />
            <mxPoint x="684" y="5400" as="targetPoint" />
            <Array as="points">
              <mxPoint x="764" y="5320" />
              <mxPoint x="764" y="5400" />
            </Array>
            <mxPoint as="offset" />
          </mxGeometry>
        </mxCell>
        <mxCell id="4PH2qwDJ6IYh9CamzKsP-413" value="Bring Lists to common view&lt;br&gt;(start from beginning and take another element&lt;br&gt;Then check its &#39;Document Type&#39; and if it&#39;s not a Actual,&lt;br&gt;then take previous &#39;Actual&#39; Document and add current &#39;Position.Count&#39;&lt;br&gt;(if type of current document - Admission), or subtract &#39;Position.Count&#39;&lt;br&gt;(if type - &#39;Write-Off&#39;) from its and replace current &#39;Position.Count&#39; with&lt;br&gt;Result (as well as change current &#39;Document Type&#39; to actual) )" style="html=1;verticalAlign=bottom;endArrow=block;curved=0;rounded=0;strokeColor=#457B9D;fontColor=#1D3557;fillColor=#A8DADC;" edge="1" parent="1">
          <mxGeometry x="0.25" width="80" relative="1" as="geometry">
            <mxPoint x="684" y="5420" as="sourcePoint" />
            <mxPoint x="681" y="5560" as="targetPoint" />
            <Array as="points">
              <mxPoint x="764" y="5420" />
              <mxPoint x="764" y="5560" />
            </Array>
            <mxPoint as="offset" />
          </mxGeometry>
        </mxCell>
        <mxCell id="4PH2qwDJ6IYh9CamzKsP-429" value="" style="html=1;points=[[0,0,0,0,5],[0,1,0,0,-5],[1,0,0,0,5],[1,1,0,0,-5]];perimeter=orthogonalPerimeter;outlineConnect=0;targetShapes=umlLifeline;portConstraint=eastwest;newEdgeStyle={&quot;curved&quot;:0,&quot;rounded&quot;:0};strokeColor=#457B9D;fontColor=#1D3557;fillColor=#A8DADC;" vertex="1" parent="1">
          <mxGeometry x="397" y="5600" width="10" height="40" as="geometry" />
        </mxCell>
        <mxCell id="4PH2qwDJ6IYh9CamzKsP-430" value="" style="html=1;points=[[0,0,0,0,5],[0,1,0,0,-5],[1,0,0,0,5],[1,1,0,0,-5]];perimeter=orthogonalPerimeter;outlineConnect=0;targetShapes=umlLifeline;portConstraint=eastwest;newEdgeStyle={&quot;curved&quot;:0,&quot;rounded&quot;:0};strokeColor=#457B9D;fontColor=#1D3557;fillColor=#A8DADC;" vertex="1" parent="1">
          <mxGeometry x="117" y="5640" width="10" height="40" as="geometry" />
        </mxCell>
      </root>
    </mxGraphModel>
  </diagram>
</mxfile>
